<svg xmlns="http://www.w3.org/2000/svg" xmlns:xlink="http://www.w3.org/1999/xlink" viewBox="0 0 351 56" width="351" height="56" style="width: 100%; height: 100%; transform: translate3d(0px, 0px, 0px); content-visibility: visible;" preserveAspectRatio="xMidYMid meet"><defs><clipPath id="__lottie_element_35"><rect width="351" height="56" x="0" y="0"></rect></clipPath></defs><g clip-path="url(#__lottie_element_35)"><g style="display: block;" transform="matrix(1.5299999713897705,0,0,1.5299999713897705,-1.9550000429153442,42.27899932861328)" opacity="1"><g opacity="1" transform="matrix(1,0,0,1,0,0)"><path fill="rgb(208,229,0)" fill-opacity="1" d=" M209.45399475097656,-27.155000686645508 C209.45399475097656,-27.155000686645508 209.45399475097656,-27.082000732421875 209.45399475097656,-27.082000732421875 C211.19400024414062,-26.35700035095215 211.70199584960938,-25.270000457763672 211.70199584960938,-23.202999114990234 C211.70199584960938,-23.202999114990234 211.70199584960938,-3.9519999027252197 211.70199584960938,-3.9519999027252197 C211.70199584960938,-1.559000015258789 211.37600708007812,-0.7979999780654907 209.63600158691406,-0.0729999989271164 C209.63600158691406,-0.0729999989271164 209.63600158691406,0 209.63600158691406,0 C209.63600158691406,0 216.95899963378906,0 216.95899963378906,0 C216.95899963378906,0 216.95899963378906,-0.0729999989271164 216.95899963378906,-0.0729999989271164 C215.218994140625,-0.7979999780654907 214.89300537109375,-1.559000015258789 214.89300537109375,-3.9519999027252197 C214.89300537109375,-3.9519999027252197 214.89300537109375,-9.281000137329102 214.89300537109375,-9.281000137329102 C214.89300537109375,-13.413999557495117 216.99600219726562,-16.170000076293945 219.89599609375,-16.170000076293945 C222.75999450683594,-16.170000076293945 223.73899841308594,-13.958000183105469 223.73899841308594,-11.383999824523926 C223.73899841308594,-11.383999824523926 223.73899841308594,-3.9519999027252197 223.73899841308594,-3.9519999027252197 C223.73899841308594,-1.559000015258789 223.41200256347656,-0.7979999780654907 221.6719970703125,-0.0729999989271164 C221.6719970703125,-0.0729999989271164 221.6719970703125,0 221.6719970703125,0 C221.6719970703125,0 228.99600219726562,0 228.99600219726562,0 C228.99600219726562,0 228.99600219726562,-0.0729999989271164 228.99600219726562,-0.0729999989271164 C227.25599670410156,-0.7979999780654907 226.9290008544922,-1.559000015258789 226.9290008544922,-3.9519999027252197 C226.9290008544922,-3.9519999027252197 226.9290008544922,-11.673999786376953 226.9290008544922,-11.673999786376953 C226.9290008544922,-15.843000411987305 224.60800170898438,-17.98200035095215 221.2729949951172,-17.98200035095215 C218.15499877929688,-17.98200035095215 215.8719940185547,-15.98799991607666 214.89300537109375,-12.579999923706055 C214.89300537109375,-12.579999923706055 214.89300537109375,-27.155000686645508 214.89300537109375,-27.155000686645508 C214.89300537109375,-27.155000686645508 209.45399475097656,-27.155000686645508 209.45399475097656,-27.155000686645508z"></path></g><g opacity="1" transform="matrix(1,0,0,1,0,0)"><path fill="rgb(208,229,0)" fill-opacity="1" d=" M197.3419952392578,7.830999851226807 C194.11500549316406,7.830999851226807 191.68600463867188,6.236000061035156 191.68600463867188,3.6619999408721924 C191.68600463867188,1.1970000267028809 193.427001953125,0 196.32699584960938,0 C196.32699584960938,0 200.31500244140625,0 200.31500244140625,0 C203.1790008544922,0 204.7010040283203,1.0149999856948853 204.7010040283203,3.444000005722046 C204.7010040283203,6.091000080108643 201.91000366210938,7.830999851226807 197.3419952392578,7.830999851226807z M207.4929962158203,1.9579999446868896 C207.4929962158203,-1.159999966621399 205.06399536132812,-2.9730000495910645 200.677001953125,-2.9730000495910645 C200.677001953125,-2.9730000495910645 194.91299438476562,-2.9730000495910645 194.91299438476562,-2.9730000495910645 C193.06399536132812,-2.9730000495910645 192.0850067138672,-3.4800000190734863 192.0850067138672,-4.7129998207092285 C192.0850067138672,-5.728000164031982 193.0989990234375,-6.453999996185303 194.04200744628906,-6.78000020980835 C195.02099609375,-6.38100004196167 196.14500427246094,-6.163000106811523 197.5229949951172,-6.163000106811523 C202.09100341796875,-6.163000106811523 204.59300231933594,-8.8100004196167 204.59300231933594,-12.072999954223633 C204.59300231933594,-13.269000053405762 204.26699829101562,-14.392999649047852 203.5780029296875,-15.336000442504883 C203.9770050048828,-15.843999862670898 204.6649932861328,-16.496000289916992 205.49899291992188,-16.496000289916992 C206.33299255371094,-16.496000289916992 206.8040008544922,-16.024999618530273 206.8040008544922,-15.336000442504883 C206.8040008544922,-14.720000267028809 206.6230010986328,-14.357000350952148 206.15199279785156,-14.031000137329102 C206.15199279785156,-14.031000137329102 206.15199279785156,-13.958000183105469 206.15199279785156,-13.958000183105469 C207.4929962158203,-13.958000183105469 209.125,-14.538000106811523 209.125,-16.35099983215332 C209.125,-17.6200008392334 208.29100036621094,-18.41699981689453 206.76800537109375,-18.41699981689453 C205.10000610351562,-18.41699981689453 204.0489959716797,-16.75 203.36000061035156,-15.62600040435791 C202.1269989013672,-17.11199951171875 200.0970001220703,-17.98200035095215 197.5229949951172,-17.98200035095215 C192.99099731445312,-17.98200035095215 190.49000549316406,-15.336000442504883 190.49000549316406,-12.072999954223633 C190.49000549316406,-10.043000221252441 191.54100036621094,-8.121000289916992 193.53500366210938,-7.0329999923706055 C191.75900268554688,-6.561999797821045 190.01800537109375,-5.366000175476074 190.01800537109375,-3.552999973297119 C190.01800537109375,-1.340999960899353 191.94000244140625,-0.2540000081062317 193.97000122070312,-0.035999998450279236 C190.88800048828125,0.3269999921321869 188.78599548339844,1.7039999961853027 188.78599548339844,3.878999948501587 C188.78599548339844,7.177999973297119 193.46200561523438,8.520000457763672 197.3780059814453,8.520000457763672 C202.9250030517578,8.520000457763672 207.4929962158203,6.019000053405762 207.4929962158203,1.9579999446868896z M197.5229949951172,-17.365999221801758 C200.02499389648438,-17.365999221801758 201.2209930419922,-14.937000274658203 201.2209930419922,-12.072999954223633 C201.2209930419922,-9.208999633789062 200.02499389648438,-6.78000020980835 197.5229949951172,-6.78000020980835 C195.05799865722656,-6.78000020980835 193.86099243164062,-9.208999633789062 193.86099243164062,-12.072999954223633 C193.86099243164062,-14.937000274658203 195.05799865722656,-17.365999221801758 197.5229949951172,-17.365999221801758z"></path></g><g opacity="1" transform="matrix(1,0,0,1,0,0)"><path fill="rgb(208,229,0)" fill-opacity="1" d=" M182.2989959716797,-8.33899974822998 C182.2989959716797,-4.205999851226807 179.97900390625,-1.5230000019073486 177.1510009765625,-1.5230000019073486 C174.4320068359375,-1.5230000019073486 173.4530029296875,-3.9159998893737793 173.4530029296875,-6.34499979019165 C173.4530029296875,-6.34499979019165 173.4530029296875,-17.6200008392334 173.4530029296875,-17.6200008392334 C173.4530029296875,-17.6200008392334 168.01499938964844,-17.6200008392334 168.01499938964844,-17.6200008392334 C168.01499938964844,-17.6200008392334 168.01499938964844,-17.547000885009766 168.01499938964844,-17.547000885009766 C169.7550048828125,-16.82200050354004 170.26300048828125,-15.734999656677246 170.26300048828125,-13.668000221252441 C170.26300048828125,-13.668000221252441 170.26300048828125,-5.946000099182129 170.26300048828125,-5.946000099182129 C170.26300048828125,-1.7769999504089355 172.58299255371094,0.3630000054836273 175.7729949951172,0.3630000054836273 C178.96299743652344,0.3630000054836273 181.4290008544922,-1.6679999828338623 182.2989959716797,-5.256999969482422 C182.2989959716797,-5.256999969482422 182.2989959716797,0 182.2989959716797,0 C182.2989959716797,0 188.10000610351562,0 188.10000610351562,0 C188.10000610351562,0 188.10000610351562,-0.0729999989271164 188.10000610351562,-0.0729999989271164 C186.39599609375,-0.6169999837875366 185.49000549316406,-1.340999960899353 185.49000549316406,-3.5889999866485596 C185.49000549316406,-3.5889999866485596 185.49000549316406,-17.6200008392334 185.49000549316406,-17.6200008392334 C185.49000549316406,-17.6200008392334 180.05099487304688,-17.6200008392334 180.05099487304688,-17.6200008392334 C180.05099487304688,-17.6200008392334 180.05099487304688,-17.547000885009766 180.05099487304688,-17.547000885009766 C181.79100036621094,-16.82200050354004 182.2989959716797,-15.734999656677246 182.2989959716797,-13.668000221252441 C182.2989959716797,-13.668000221252441 182.2989959716797,-8.33899974822998 182.2989959716797,-8.33899974822998z"></path></g><g opacity="1" transform="matrix(1,0,0,1,0,0)"><path fill="rgb(208,229,0)" fill-opacity="1" d=" M157.427001953125,-0.3630000054836273 C154.0919952392578,-0.3630000054836273 152.13299560546875,-4.0970001220703125 152.13299560546875,-8.8100004196167 C152.13299560546875,-13.52299976348877 154.0919952392578,-17.256999969482422 157.427001953125,-17.256999969482422 C160.76199340820312,-17.256999969482422 162.72000122070312,-13.52299976348877 162.72000122070312,-8.8100004196167 C162.72000122070312,-4.0970001220703125 160.76199340820312,-0.3630000054836273 157.427001953125,-0.3630000054836273z M157.427001953125,0.3630000054836273 C162.61099243164062,0.3630000054836273 166.3090057373047,-3.5169999599456787 166.3090057373047,-8.8100004196167 C166.3090057373047,-14.102999687194824 162.61099243164062,-17.98200035095215 157.427001953125,-17.98200035095215 C152.2429962158203,-17.98200035095215 148.54400634765625,-14.102999687194824 148.54400634765625,-8.8100004196167 C148.54400634765625,-3.5169999599456787 152.2429962158203,0.3630000054836273 157.427001953125,0.3630000054836273z"></path></g><g opacity="1" transform="matrix(1,0,0,1,0,0)"><path fill="rgb(208,229,0)" fill-opacity="1" d=" M143.39999389648438,-12.689000129699707 C143.58099365234375,-12.4350004196167 144.052001953125,-12.218000411987305 144.5959930419922,-12.218000411987305 C145.75599670410156,-12.218000411987305 147.20700073242188,-13.088000297546387 147.20700073242188,-15.081999778747559 C147.20700073242188,-16.82200050354004 145.7570037841797,-17.98200035095215 143.8350067138672,-17.98200035095215 C140.60800170898438,-17.98200035095215 138.72300720214844,-14.937000274658203 137.9250030517578,-11.529000282287598 C137.9250030517578,-11.529000282287598 137.9250030517578,-17.6200008392334 137.9250030517578,-17.6200008392334 C137.9250030517578,-17.6200008392334 132.48699951171875,-17.6200008392334 132.48699951171875,-17.6200008392334 C132.48699951171875,-17.6200008392334 132.48699951171875,-17.547000885009766 132.48699951171875,-17.547000885009766 C134.2270050048828,-16.82200050354004 134.73500061035156,-15.734999656677246 134.73500061035156,-13.668000221252441 C134.73500061035156,-13.668000221252441 134.73500061035156,-3.9519999027252197 134.73500061035156,-3.9519999027252197 C134.73500061035156,-1.559000015258789 134.4080047607422,-0.7979999780654907 132.66799926757812,-0.0729999989271164 C132.66799926757812,-0.0729999989271164 132.66799926757812,0 132.66799926757812,0 C132.66799926757812,0 141.0800018310547,0 141.0800018310547,0 C141.0800018310547,0 141.0800018310547,-0.0729999989271164 141.0800018310547,-0.0729999989271164 C139.01300048828125,-0.6890000104904175 137.9250030517578,-1.559000015258789 137.9250030517578,-3.9519999027252197 C137.9250030517578,-3.9519999027252197 137.9250030517578,-8.156999588012695 137.9250030517578,-8.156999588012695 C137.9250030517578,-12.39900016784668 140.06500244140625,-15.98799991607666 142.52999877929688,-15.98799991607666 C143.76300048828125,-15.98799991607666 144.48800659179688,-15.300000190734863 144.48800659179688,-14.321000099182129 C144.48800659179688,-13.52299976348877 144.05299377441406,-12.942999839782715 143.39999389648438,-12.689000129699707z"></path></g><g opacity="1" transform="matrix(1,0,0,1,0,0)"><path fill="rgb(208,229,0)" fill-opacity="1" d=" M110.88600158691406,-27.155000686645508 C110.88600158691406,-27.155000686645508 110.88600158691406,-27.082000732421875 110.88600158691406,-27.082000732421875 C112.6259994506836,-26.35700035095215 113.13400268554688,-25.270000457763672 113.13400268554688,-23.202999114990234 C113.13400268554688,-23.202999114990234 113.13400268554688,-3.9519999027252197 113.13400268554688,-3.9519999027252197 C113.13400268554688,-1.559000015258789 112.80799865722656,-0.7979999780654907 111.06800079345703,-0.0729999989271164 C111.06800079345703,-0.0729999989271164 111.06800079345703,0 111.06800079345703,0 C111.06800079345703,0 118.39099884033203,0 118.39099884033203,0 C118.39099884033203,0 118.39099884033203,-0.0729999989271164 118.39099884033203,-0.0729999989271164 C116.6510009765625,-0.7979999780654907 116.32499694824219,-1.559000015258789 116.32499694824219,-3.9519999027252197 C116.32499694824219,-3.9519999027252197 116.32499694824219,-9.281000137329102 116.32499694824219,-9.281000137329102 C116.32499694824219,-13.413999557495117 118.4280014038086,-16.170000076293945 121.3280029296875,-16.170000076293945 C124.19200134277344,-16.170000076293945 125.1709976196289,-13.958000183105469 125.1709976196289,-11.383999824523926 C125.1709976196289,-11.383999824523926 125.1709976196289,-3.9519999027252197 125.1709976196289,-3.9519999027252197 C125.1709976196289,-1.559000015258789 124.84400177001953,-0.7979999780654907 123.10399627685547,-0.0729999989271164 C123.10399627685547,-0.0729999989271164 123.10399627685547,0 123.10399627685547,0 C123.10399627685547,0 130.42799377441406,0 130.42799377441406,0 C130.42799377441406,0 130.42799377441406,-0.0729999989271164 130.42799377441406,-0.0729999989271164 C128.68800354003906,-0.7979999780654907 128.36099243164062,-1.559000015258789 128.36099243164062,-3.9519999027252197 C128.36099243164062,-3.9519999027252197 128.36099243164062,-11.673999786376953 128.36099243164062,-11.673999786376953 C128.36099243164062,-15.843000411987305 126.04000091552734,-17.98200035095215 122.70500183105469,-17.98200035095215 C119.58699798583984,-17.98200035095215 117.30400085449219,-15.98799991607666 116.32499694824219,-12.579999923706055 C116.32499694824219,-12.579999923706055 116.32499694824219,-27.155000686645508 116.32499694824219,-27.155000686645508 C116.32499694824219,-27.155000686645508 110.88600158691406,-27.155000686645508 110.88600158691406,-27.155000686645508z"></path></g><g opacity="1" transform="matrix(1,0,0,1,0,0)"><path fill="rgb(208,229,0)" fill-opacity="1" d=" M108.73200225830078,-5.691999912261963 C108.26100158691406,-2.9730000495910645 107.02799987792969,-1.4859999418258667 105.25199890136719,-1.4859999418258667 C103.62100219726562,-1.4859999418258667 102.75,-2.681999921798706 102.75,-5.039000034332275 C102.75,-5.039000034332275 102.75,-16.677000045776367 102.75,-16.677000045776367 C102.75,-16.677000045776367 108.2249984741211,-16.677000045776367 108.2249984741211,-16.677000045776367 C108.2249984741211,-16.677000045776367 108.40599822998047,-17.6200008392334 108.40599822998047,-17.6200008392334 C108.40599822998047,-17.6200008392334 102.75,-17.6200008392334 102.75,-17.6200008392334 C102.75,-17.6200008392334 102.75,-23.856000900268555 102.75,-23.856000900268555 C102.75,-23.856000900268555 102.45999908447266,-23.856000900268555 102.45999908447266,-23.856000900268555 C101.9520034790039,-20.267000198364258 100.06700134277344,-17.51099967956543 97.02200317382812,-16.895000457763672 C97.02200317382812,-16.895000457763672 97.02200317382812,-16.677000045776367 97.02200317382812,-16.677000045776367 C97.02200317382812,-16.677000045776367 99.55999755859375,-16.677000045776367 99.55999755859375,-16.677000045776367 C99.55999755859375,-16.677000045776367 99.55999755859375,-4.931000232696533 99.55999755859375,-4.931000232696533 C99.55999755859375,-1.4140000343322754 101.33599853515625,0.3630000054836273 104.16400146484375,0.3630000054836273 C107.427001953125,0.3630000054836273 108.73200225830078,-2.2119998931884766 109.02200317382812,-5.691999912261963 C109.02200317382812,-5.691999912261963 108.73200225830078,-5.691999912261963 108.73200225830078,-5.691999912261963z"></path></g><g opacity="1" transform="matrix(1,0,0,1,0,0)"><path fill="rgb(208,229,0)" fill-opacity="1" d=" M83.2770004272461,-10.151000022888184 C83.2770004272461,-10.151000022888184 83.2770004272461,-27.155000686645508 83.2770004272461,-27.155000686645508 C83.2770004272461,-27.155000686645508 77.83799743652344,-27.155000686645508 77.83799743652344,-27.155000686645508 C77.83799743652344,-27.155000686645508 77.83799743652344,-27.082000732421875 77.83799743652344,-27.082000732421875 C79.5780029296875,-26.35700035095215 80.08599853515625,-25.270000457763672 80.08599853515625,-23.202999114990234 C80.08599853515625,-23.202999114990234 80.08599853515625,-3.9519999027252197 80.08599853515625,-3.9519999027252197 C80.08599853515625,-1.559000015258789 79.76000213623047,-0.7979999780654907 78.0199966430664,-0.0729999989271164 C78.0199966430664,-0.0729999989271164 78.0199966430664,0 78.0199966430664,0 C78.0199966430664,0 85.34300231933594,0 85.34300231933594,0 C85.34300231933594,0 85.34300231933594,-0.0729999989271164 85.34300231933594,-0.0729999989271164 C83.60299682617188,-0.7979999780654907 83.2770004272461,-1.559000015258789 83.2770004272461,-3.9519999027252197 C83.2770004272461,-3.9519999027252197 83.2770004272461,-9.354000091552734 83.2770004272461,-9.354000091552734 C83.2770004272461,-9.354000091552734 83.96499633789062,-9.354000091552734 83.96499633789062,-9.354000091552734 C84.58100128173828,-9.354000091552734 84.90799713134766,-9.17199993133545 85.34300231933594,-8.592000007629395 C85.34300231933594,-8.592000007629395 89.83899688720703,-2.609999895095825 89.83899688720703,-2.609999895095825 C90.49199676513672,-1.7760000228881836 91.07099914550781,-0.9430000185966492 91.28900146484375,0 C91.28900146484375,0 97.5250015258789,0 97.5250015258789,0 C97.5250015258789,0 97.5250015258789,-0.0729999989271164 97.5250015258789,-0.0729999989271164 C95.7490005493164,-0.6169999837875366 94.51599884033203,-1.5219999551773071 93.13800048828125,-3.3350000381469727 C93.13800048828125,-3.3350000381469727 87.62699890136719,-10.513999938964844 87.62699890136719,-10.513999938964844 C87.62699890136719,-10.513999938964844 91.36100006103516,-14.501999855041504 91.36100006103516,-14.501999855041504 C92.88400268554688,-16.097000122070312 94.26200103759766,-17.038999557495117 96.36499786376953,-17.547000885009766 C96.36499786376953,-17.547000885009766 96.36499786376953,-17.6200008392334 96.36499786376953,-17.6200008392334 C96.36499786376953,-17.6200008392334 89.7300033569336,-17.6200008392334 89.7300033569336,-17.6200008392334 C89.7300033569336,-17.6200008392334 89.7300033569336,-17.547000885009766 89.7300033569336,-17.547000885009766 C90.52799987792969,-17.256999969482422 90.9260025024414,-16.71299934387207 90.9260025024414,-16.132999420166016 C90.9260025024414,-15.58899974822998 90.70899963378906,-15.154000282287598 90.27400207519531,-14.682999610900879 C90.27400207519531,-14.682999610900879 87.26499938964844,-11.420000076293945 87.26499938964844,-11.420000076293945 C86.21399688720703,-10.331999778747559 85.4520034790039,-10.151000022888184 84.36399841308594,-10.151000022888184 C84.36399841308594,-10.151000022888184 83.2770004272461,-10.151000022888184 83.2770004272461,-10.151000022888184z"></path></g><g opacity="1" transform="matrix(1,0,0,1,0,0)"><path fill="rgb(208,229,0)" fill-opacity="1" d=" M70.57599639892578,-9.644000053405762 C70.57599639892578,-9.644000053405762 70.50399780273438,-6.635000228881836 70.50399780273438,-6.635000228881836 C70.43099975585938,-3.263000011444092 68.18299865722656,-1.340999960899353 65.89900207519531,-1.340999960899353 C64.15899658203125,-1.340999960899353 62.81800079345703,-2.2109999656677246 62.81800079345703,-4.604000091552734 C62.81800079345703,-7.177999973297119 64.55799865722656,-8.482999801635742 68.14700317382812,-9.17199993133545 C68.14700317382812,-9.17199993133545 70.57599639892578,-9.644000053405762 70.57599639892578,-9.644000053405762z M77.17500305175781,-1.3049999475479126 C76.88500213623047,-1.1239999532699585 76.48600006103516,-1.0149999856948853 76.08699798583984,-1.0149999856948853 C74.56400299072266,-1.0149999856948853 73.8030014038086,-2.0299999713897705 73.8030014038086,-4.02400016784668 C73.8030014038086,-6.236000061035156 73.91200256347656,-8.628000259399414 73.91200256347656,-11.854999542236328 C73.91200256347656,-16.16900062561035 71.08399963378906,-17.98200035095215 66.37100219726562,-17.98200035095215 C62.637001037597656,-17.98200035095215 60.0989990234375,-15.880000114440918 60.0989990234375,-13.52299976348877 C60.0989990234375,-11.854999542236328 61.25899887084961,-10.87600040435791 62.744998931884766,-10.87600040435791 C63.79600143432617,-10.87600040435791 64.63099670410156,-11.420000076293945 64.81199645996094,-12.508000373840332 C64.66699981689453,-12.4350004196167 64.48500061035156,-12.39900016784668 64.33999633789062,-12.39900016784668 C63.32500076293945,-12.39900016784668 62.67300033569336,-13.196999549865723 62.67300033569336,-14.321000099182129 C62.67300033569336,-15.916000366210938 63.6879997253418,-17.29400062561035 66.37100219726562,-17.29400062561035 C69.34400177001953,-17.29400062561035 70.57599639892578,-15.045999526977539 70.57599639892578,-12.39900016784668 C70.57599639892578,-12.39900016784668 70.57599639892578,-10.333000183105469 70.57599639892578,-10.333000183105469 C70.57599639892578,-10.333000183105469 67.82099914550781,-9.824999809265137 67.82099914550781,-9.824999809265137 C63.50699996948242,-9.027000427246094 59.40999984741211,-8.121000289916992 59.40999984741211,-4.242000102996826 C59.40999984741211,-1.1970000267028809 61.694000244140625,0.2540000081062317 64.55799865722656,0.2540000081062317 C67.60299682617188,0.2540000081062317 70.21299743652344,-2.1029999256134033 70.61199951171875,-4.640999794006348 C70.61199951171875,-4.242000102996826 70.68499755859375,-3.0450000762939453 70.68499755859375,-2.9000000953674316 C70.86599731445312,-0.9779999852180481 71.9540023803711,0.28999999165534973 73.91200256347656,0.28999999165534973 C75.39800262451172,0.28999999165534973 76.55899810791016,-0.3630000054836273 77.17500305175781,-1.2330000400543213 C77.17500305175781,-1.2330000400543213 77.17500305175781,-1.3049999475479126 77.17500305175781,-1.3049999475479126z"></path></g><g opacity="1" transform="matrix(1,0,0,1,0,0)"><path fill="rgb(208,229,0)" fill-opacity="1" d=" M44.060001373291016,-10.295999526977539 C44.24100112915039,-14.574000358581543 46.56100082397461,-17.256999969482422 49.1349983215332,-17.256999969482422 C52.57899856567383,-17.256999969482422 53.231998443603516,-13.994000434875488 53.231998443603516,-10.295999526977539 C53.231998443603516,-10.295999526977539 44.060001373291016,-10.295999526977539 44.060001373291016,-10.295999526977539z M49.172000885009766,-17.98200035095215 C44.604000091552734,-17.98200035095215 40.7239990234375,-14.248000144958496 40.7239990234375,-8.8100004196167 C40.7239990234375,-3.009000062942505 44.638999938964844,0.3630000054836273 49.279998779296875,0.3630000054836273 C53.268001556396484,0.3630000054836273 56.09600067138672,-1.812999963760376 56.78499984741211,-5.691999912261963 C56.78499984741211,-5.691999912261963 56.56800079345703,-5.764999866485596 56.56800079345703,-5.764999866485596 C55.516998291015625,-2.75600004196167 53.19599914550781,-1.3049999475479126 50.47700119018555,-1.3049999475479126 C46.41600036621094,-1.3049999475479126 43.98699951171875,-4.7129998207092285 43.98699951171875,-9.53499984741211 C43.98699951171875,-9.53499984741211 56.67599868774414,-9.53499984741211 56.67599868774414,-9.53499984741211 C56.67599868774414,-14.501999855041504 54.393001556396484,-17.98200035095215 49.172000885009766,-17.98200035095215z"></path></g><g opacity="1" transform="matrix(1,0,0,1,0,0)"><path fill="rgb(208,229,0)" fill-opacity="1" d=" M35.58000183105469,-12.689000129699707 C35.76100158691406,-12.4350004196167 36.231998443603516,-12.218000411987305 36.7760009765625,-12.218000411987305 C37.93600082397461,-12.218000411987305 39.387001037597656,-13.088000297546387 39.387001037597656,-15.081999778747559 C39.387001037597656,-16.82200050354004 37.9370002746582,-17.98200035095215 36.01499938964844,-17.98200035095215 C32.78799819946289,-17.98200035095215 30.902999877929688,-14.937000274658203 30.104999542236328,-11.529000282287598 C30.104999542236328,-11.529000282287598 30.104999542236328,-17.6200008392334 30.104999542236328,-17.6200008392334 C30.104999542236328,-17.6200008392334 24.66699981689453,-17.6200008392334 24.66699981689453,-17.6200008392334 C24.66699981689453,-17.6200008392334 24.66699981689453,-17.547000885009766 24.66699981689453,-17.547000885009766 C26.406999588012695,-16.82200050354004 26.915000915527344,-15.734999656677246 26.915000915527344,-13.668000221252441 C26.915000915527344,-13.668000221252441 26.915000915527344,-3.9519999027252197 26.915000915527344,-3.9519999027252197 C26.915000915527344,-1.559000015258789 26.58799934387207,-0.7979999780654907 24.847999572753906,-0.0729999989271164 C24.847999572753906,-0.0729999989271164 24.847999572753906,0 24.847999572753906,0 C24.847999572753906,0 33.2599983215332,0 33.2599983215332,0 C33.2599983215332,0 33.2599983215332,-0.0729999989271164 33.2599983215332,-0.0729999989271164 C31.19300079345703,-0.6890000104904175 30.104999542236328,-1.559000015258789 30.104999542236328,-3.9519999027252197 C30.104999542236328,-3.9519999027252197 30.104999542236328,-8.156999588012695 30.104999542236328,-8.156999588012695 C30.104999542236328,-12.39900016784668 32.244998931884766,-15.98799991607666 34.709999084472656,-15.98799991607666 C35.94300079345703,-15.98799991607666 36.667999267578125,-15.300000190734863 36.667999267578125,-14.321000099182129 C36.667999267578125,-13.52299976348877 36.233001708984375,-12.942999839782715 35.58000183105469,-12.689000129699707z"></path></g><g opacity="1" transform="matrix(1,0,0,1,0,0)"><path fill="rgb(208,229,0)" fill-opacity="1" d=" M6.997000217437744,-0.9430000185966492 C6.997000217437744,-0.9430000185966492 6.997000217437744,-12.39900016784668 6.997000217437744,-12.39900016784668 C6.997000217437744,-12.39900016784668 12.182000160217285,-12.39900016784668 12.182000160217285,-12.39900016784668 C16.35099983215332,-12.39900016784668 18.924999237060547,-10.586999893188477 18.924999237060547,-6.671000003814697 C18.924999237060547,-2.755000114440918 16.35099983215332,-0.9430000185966492 12.182000160217285,-0.9430000185966492 C12.182000160217285,-0.9430000185966492 6.997000217437744,-0.9430000185966492 6.997000217437744,-0.9430000185966492z M6.997000217437744,-13.342000007629395 C6.997000217437744,-13.342000007629395 6.997000217437744,-24.43600082397461 6.997000217437744,-24.43600082397461 C6.997000217437744,-24.43600082397461 11.5649995803833,-24.43600082397461 11.5649995803833,-24.43600082397461 C15.298999786376953,-24.43600082397461 17.6560001373291,-22.551000595092773 17.6560001373291,-18.888999938964844 C17.6560001373291,-15.22700023651123 15.298999786376953,-13.342000007629395 11.5649995803833,-13.342000007629395 C11.5649995803833,-13.342000007629395 6.997000217437744,-13.342000007629395 6.997000217437744,-13.342000007629395z M12.725000381469727,0 C18.597999572753906,0 22.4060001373291,-1.812999963760376 22.4060001373291,-6.671000003814697 C22.4060001373291,-10.949000358581543 17.90999984741211,-12.942999839782715 14.248000144958496,-13.088000297546387 C17.90999984741211,-13.413999557495117 21.027999877929688,-15.409000396728516 21.027999877929688,-18.888999938964844 C21.027999877929688,-23.674999237060547 17.184999465942383,-25.378000259399414 11.96399974822998,-25.378000259399414 C11.96399974822998,-25.378000259399414 1.6679999828338623,-25.378000259399414 1.6679999828338623,-25.378000259399414 C1.6679999828338623,-25.378000259399414 1.6679999828338623,-25.305999755859375 1.6679999828338623,-25.305999755859375 C3.4079999923706055,-24.58099937438965 3.7339999675750732,-23.131000518798828 3.7339999675750732,-20.738000869750977 C3.7339999675750732,-20.738000869750977 3.7339999675750732,-4.640999794006348 3.7339999675750732,-4.640999794006348 C3.7339999675750732,-2.247999906539917 3.4079999923706055,-0.7979999780654907 1.6679999828338623,-0.0729999989271164 C1.6679999828338623,-0.0729999989271164 1.6679999828338623,0 1.6679999828338623,0 C1.6679999828338623,0 12.725000381469727,0 12.725000381469727,0z"></path></g></g><g style="display: none;" transform="matrix(1.5299999713897705,0,0,1.5299999713897705,2.5450000762939453,42.27899932861328)" opacity="1"><g opacity="1" transform="matrix(1,0,0,1,0,0)"><path fill="rgb(208,229,0)" fill-opacity="1" d=" M209.77699279785156,-7.7220001220703125 C211.26300048828125,-13.739999771118164 214.5989990234375,-16.024999618530273 216.95599365234375,-16.024999618530273 C218.51499938964844,-16.024999618530273 219.02200317382812,-15.190999984741211 219.02200317382812,-13.958000183105469 C219.02200317382812,-13.342000007629395 218.91299438476562,-12.652999877929688 218.73199462890625,-11.892000198364258 C218.73199462890625,-11.892000198364258 216.59300231933594,-3.3350000381469727 216.59300231933594,-3.3350000381469727 C216.48399353027344,-2.936000108718872 216.447998046875,-2.5739998817443848 216.447998046875,-2.247999906539917 C216.447998046875,-0.5799999833106995 217.57200622558594,0.3630000054836273 219.24000549316406,0.3630000054836273 C220.87100219726562,0.3630000054836273 222.0679931640625,-0.4350000023841858 223.19200134277344,-1.559000015258789 C223.19200134277344,-1.559000015258789 223.15499877929688,-1.63100004196167 223.15499877929688,-1.63100004196167 C222.42999267578125,-1.2680000066757202 221.74099731445312,-1.0509999990463257 221.16099548339844,-1.0509999990463257 C220.21800231933594,-1.0509999990463257 219.52999877929688,-1.559000015258789 219.52999877929688,-2.502000093460083 C219.52999877929688,-2.7200000286102295 219.5659942626953,-2.936000108718872 219.63900756835938,-3.190000057220459 C219.63900756835938,-3.190000057220459 221.88600158691406,-12.182000160217285 221.88600158691406,-12.182000160217285 C222.031005859375,-12.835000038146973 222.10400390625,-13.451000213623047 222.10400390625,-14.067000389099121 C222.10400390625,-16.315000534057617 220.94400024414062,-17.98200035095215 218.51499938964844,-17.98200035095215 C215.3249969482422,-17.98200035095215 212.49600219726562,-15.262999534606934 210.79200744628906,-11.782999992370605 C210.79200744628906,-11.782999992370605 214.63499450683594,-27.155000686645508 214.63499450683594,-27.155000686645508 C214.63499450683594,-27.155000686645508 208.8350067138672,-27.155000686645508 208.8350067138672,-27.155000686645508 C208.8350067138672,-27.155000686645508 208.8350067138672,-27.082000732421875 208.8350067138672,-27.082000732421875 C210.031005859375,-26.465999603271484 210.79200744628906,-25.958999633789062 210.79200744628906,-24.690000534057617 C210.79200744628906,-24.32699966430664 210.75599670410156,-23.964000701904297 210.64700317382812,-23.493000030517578 C210.64700317382812,-23.493000030517578 204.7740020751953,0 204.7740020751953,0 C204.7740020751953,0 207.8560028076172,0 207.8560028076172,0 C207.8560028076172,0 209.77699279785156,-7.7220001220703125 209.77699279785156,-7.7220001220703125z"></path></g><g opacity="1" transform="matrix(1,0,0,1,0,0)"><path fill="rgb(208,229,0)" fill-opacity="1" d=" M193.927001953125,0.10899999737739563 C196.718994140625,0.18199999630451202 197.98699951171875,0.7609999775886536 197.98699951171875,2.683000087738037 C197.98699951171875,5.909999847412109 194.72500610351562,7.685999870300293 190.48300170898438,7.685999870300293 C187.22000122070312,7.685999870300293 185.04400634765625,6.271999835968018 185.04400634765625,3.806999921798706 C185.04400634765625,1.1239999532699585 187.4010009765625,0 190.5189971923828,0 C190.5189971923828,0 193.927001953125,0.10899999737739563 193.927001953125,0.10899999737739563z M200.9239959716797,1.1959999799728394 C200.9239959716797,-1.3420000076293945 198.67599487304688,-2.609999895095825 195.63099670410156,-2.683000087738037 C195.63099670410156,-2.683000087738037 189.90199279785156,-2.828000068664551 189.90199279785156,-2.828000068664551 C188.41600036621094,-2.864000082015991 187.65499877929688,-3.697999954223633 187.65499877929688,-4.749000072479248 C187.65499877929688,-6.01800012588501 188.6699981689453,-6.8520002365112305 189.79400634765625,-7.177999973297119 C190.6999969482422,-6.633999824523926 191.82400512695312,-6.308000087738037 193.0570068359375,-6.308000087738037 C197.87899780273438,-6.308000087738037 201.06900024414062,-9.317000389099121 201.06900024414062,-13.088000297546387 C201.06900024414062,-14.067000389099121 200.7429962158203,-14.972999572753906 200.19900512695312,-15.770999908447266 C200.7790069580078,-16.134000778198242 201.4320068359375,-16.42300033569336 202.1929931640625,-16.42300033569336 C203.13600158691406,-16.42300033569336 203.60699462890625,-15.95199966430664 203.60699462890625,-15.262999534606934 C203.60699462890625,-14.647000312805176 203.4250030517578,-14.284000396728516 202.95399475097656,-13.958000183105469 C202.95399475097656,-13.958000183105469 202.95399475097656,-13.88599967956543 202.95399475097656,-13.88599967956543 C204.25900268554688,-13.88599967956543 205.85499572753906,-14.538000106811523 205.85499572753906,-16.35099983215332 C205.85499572753906,-17.6200008392334 205.0570068359375,-18.344999313354492 203.64300537109375,-18.344999313354492 C202.26499938964844,-18.344999313354492 200.9239959716797,-17.14900016784668 199.94500732421875,-16.06100082397461 C198.96600341796875,-17.22100067138672 197.3350067138672,-17.98200035095215 195.41299438476562,-17.98200035095215 C190.59100341796875,-17.98200035095215 187.4010009765625,-14.973999977111816 187.4010009765625,-11.20300006866455 C187.4010009765625,-9.680000305175781 188.12600708007812,-8.33899974822998 189.35899353027344,-7.468999862670898 C187.43699645996094,-7.033999919891357 185.29800415039062,-5.763999938964844 185.29800415039062,-3.4800000190734863 C185.29800415039062,-1.7400000095367432 186.60400390625,-0.5080000162124634 188.343994140625,-0.21799999475479126 C184.93600463867188,-0.21799999475479126 182.17999267578125,1.1970000267028809 182.17999267578125,3.6619999408721924 C182.17999267578125,6.815999984741211 186.38600158691406,8.375 190.5189971923828,8.375 C195.74000549316406,8.375 200.9239959716797,5.908999919891357 200.9239959716797,1.1959999799728394z M197.87899780273438,-14.138999938964844 C197.87899780273438,-13.449999809265137 197.80599975585938,-12.76200008392334 197.69700622558594,-12.072999954223633 C197.18899536132812,-9.425999641418457 195.70399475097656,-6.960999965667725 193.0570068359375,-6.960999965667725 C191.281005859375,-6.960999965667725 190.59100341796875,-8.265999794006348 190.59100341796875,-10.151000022888184 C190.59100341796875,-10.84000015258789 190.66400146484375,-11.529000282287598 190.7729949951172,-12.218000411987305 C191.281005859375,-14.864999771118164 192.76600646972656,-17.329999923706055 195.41299438476562,-17.329999923706055 C197.18899536132812,-17.329999923706055 197.87899780273438,-16.02400016784668 197.87899780273438,-14.138999938964844z"></path></g><g opacity="1" transform="matrix(1,0,0,1,0,0)"><path fill="rgb(208,229,0)" fill-opacity="1" d=" M183.01400756835938,-1.559000015258789 C183.01400756835938,-1.559000015258789 182.97799682617188,-1.63100004196167 182.97799682617188,-1.63100004196167 C182.2530059814453,-1.2680000066757202 181.56399536132812,-1.0509999990463257 180.98399353027344,-1.0509999990463257 C180.04100036621094,-1.0509999990463257 179.3520050048828,-1.559000015258789 179.3520050048828,-2.502000093460083 C179.3520050048828,-2.7200000286102295 179.38800048828125,-2.936000108718872 179.46099853515625,-3.190000057220459 C179.46099853515625,-3.190000057220459 183.0500030517578,-17.6200008392334 183.0500030517578,-17.6200008392334 C183.0500030517578,-17.6200008392334 179.968994140625,-17.6200008392334 179.968994140625,-17.6200008392334 C179.968994140625,-17.6200008392334 178.0469970703125,-9.89799976348877 178.0469970703125,-9.89799976348877 C176.56100463867188,-3.880000114440918 173.33399963378906,-1.5950000286102295 171.1219940185547,-1.5950000286102295 C169.49099731445312,-1.5950000286102295 168.91099548339844,-2.5380001068115234 168.91099548339844,-3.8429999351501465 C168.91099548339844,-4.314000129699707 168.98300170898438,-4.857999801635742 169.1280059814453,-5.4019999504089355 C169.1280059814453,-5.4019999504089355 172.1739959716797,-17.6200008392334 172.1739959716797,-17.6200008392334 C172.1739959716797,-17.6200008392334 166.6269989013672,-17.6200008392334 166.6269989013672,-17.6200008392334 C166.6269989013672,-17.6200008392334 166.6269989013672,-17.547000885009766 166.6269989013672,-17.547000885009766 C167.67799377441406,-16.893999099731445 168.33099365234375,-16.20599937438965 168.33099365234375,-15.010000228881836 C168.33099365234375,-14.684000015258789 168.2949981689453,-14.357000350952148 168.18600463867188,-13.958000183105469 C168.18600463867188,-13.958000183105469 166.0469970703125,-5.438000202178955 166.0469970703125,-5.438000202178955 C165.90199279785156,-4.857999801635742 165.82899475097656,-4.315000057220459 165.82899475097656,-3.7709999084472656 C165.82899475097656,-1.4140000343322754 167.2429962158203,0.3630000054836273 169.7449951171875,0.3630000054836273 C172.86300659179688,0.3630000054836273 175.3280029296875,-2.3570001125335693 177.03199768066406,-5.836999893188477 C176.45199584960938,-3.697999954223633 176.27099609375,-2.9730000495910645 176.27099609375,-2.247999906539917 C176.27099609375,-0.5799999833106995 177.3939971923828,0.3630000054836273 179.06199645996094,0.3630000054836273 C180.6929931640625,0.3630000054836273 181.88999938964844,-0.4350000023841858 183.01400756835938,-1.559000015258789z"></path></g><g opacity="1" transform="matrix(1,0,0,1,0,0)"><path fill="rgb(208,229,0)" fill-opacity="1" d=" M159.4739990234375,-11.493000030517578 C159.4739990234375,-10.079000473022461 159.22000122070312,-8.555999755859375 158.78500366210938,-7.070000171661377 C157.73399353027344,-3.5169999599456787 155.5590057373047,-0.3630000054836273 152.91200256347656,-0.3630000054836273 C150.01199340820312,-0.3630000054836273 149.25,-3.118000030517578 149.25,-6.126999855041504 C149.25,-7.540999889373779 149.50399780273438,-9.064000129699707 149.93899536132812,-10.550000190734863 C150.99000549316406,-14.102999687194824 153.1649932861328,-17.256999969482422 155.81199645996094,-17.256999969482422 C158.71200561523438,-17.256999969482422 159.4739990234375,-14.501999855041504 159.4739990234375,-11.493000030517578z M145.9510040283203,-6.706999778747559 C145.98699951171875,-2.174999952316284 148.9600067138672,0.3630000054836273 152.91200256347656,0.3630000054836273 C158.45899963378906,0.3630000054836273 162.7729949951172,-5.039999961853027 162.7729949951172,-10.913000106811523 C162.7729949951172,-15.444999694824219 159.76400756835938,-17.98200035095215 155.81199645996094,-17.98200035095215 C150.26499938964844,-17.98200035095215 145.9510040283203,-12.579999923706055 145.9510040283203,-6.706999778747559z"></path></g><g opacity="1" transform="matrix(1,0,0,1,0,0)"><path fill="rgb(208,229,0)" fill-opacity="1" d=" M140.95399475097656,-12.579999923706055 C141.20799255371094,-12.39900016784668 141.6790008544922,-12.218000411987305 142.25900268554688,-12.218000411987305 C144.2530059814453,-12.218000411987305 145.52200317382812,-13.52299976348877 145.52200317382812,-15.407999992370605 C145.52200317382812,-16.930999755859375 144.36099243164062,-17.98200035095215 142.72999572753906,-17.98200035095215 C139.5030059814453,-17.98200035095215 137.29100036621094,-14.574999809265137 135.66000366210938,-11.166999816894531 C135.66000366210938,-11.166999816894531 137.25599670410156,-17.6200008392334 137.25599670410156,-17.6200008392334 C137.25599670410156,-17.6200008392334 131.70899963378906,-17.6200008392334 131.70899963378906,-17.6200008392334 C131.70899963378906,-17.6200008392334 131.70899963378906,-17.547000885009766 131.70899963378906,-17.547000885009766 C132.75999450683594,-16.893999099731445 133.41299438476562,-16.20599937438965 133.41299438476562,-15.010000228881836 C133.41299438476562,-14.684000015258789 133.3769989013672,-14.357000350952148 133.26800537109375,-13.958000183105469 C133.26800537109375,-13.958000183105469 129.78700256347656,0 129.78700256347656,0 C129.78700256347656,0 132.86900329589844,0 132.86900329589844,0 C132.86900329589844,0 134.71800231933594,-7.432000160217285 134.71800231933594,-7.432000160217285 C135.66099548339844,-11.274999618530273 138.5970001220703,-15.98799991607666 141.20700073242188,-15.98799991607666 C142.11300659179688,-15.98799991607666 142.5850067138672,-15.517000198364258 142.5850067138672,-14.682999610900879 C142.5850067138672,-13.668000221252441 141.968994140625,-12.725000381469727 140.95399475097656,-12.579999923706055z"></path></g><g opacity="1" transform="matrix(1,0,0,1,0,0)"><path fill="rgb(208,229,0)" fill-opacity="1" d=" M114.26899719238281,-7.7220001220703125 C115.75499725341797,-13.739999771118164 119.09100341796875,-16.024999618530273 121.447998046875,-16.024999618530273 C123.00700378417969,-16.024999618530273 123.51399993896484,-15.190999984741211 123.51399993896484,-13.958000183105469 C123.51399993896484,-13.342000007629395 123.40499877929688,-12.652999877929688 123.2239990234375,-11.892000198364258 C123.2239990234375,-11.892000198364258 121.08499908447266,-3.3350000381469727 121.08499908447266,-3.3350000381469727 C120.97599792480469,-2.936000108718872 120.94000244140625,-2.5739998817443848 120.94000244140625,-2.247999906539917 C120.94000244140625,-0.5799999833106995 122.06400299072266,0.3630000054836273 123.73200225830078,0.3630000054836273 C125.36299896240234,0.3630000054836273 126.55999755859375,-0.4350000023841858 127.68399810791016,-1.559000015258789 C127.68399810791016,-1.559000015258789 127.64700317382812,-1.63100004196167 127.64700317382812,-1.63100004196167 C126.9219970703125,-1.2680000066757202 126.23300170898438,-1.0509999990463257 125.65299987792969,-1.0509999990463257 C124.70999908447266,-1.0509999990463257 124.02200317382812,-1.559000015258789 124.02200317382812,-2.502000093460083 C124.02200317382812,-2.7200000286102295 124.05799865722656,-2.936000108718872 124.13099670410156,-3.190000057220459 C124.13099670410156,-3.190000057220459 126.37799835205078,-12.182000160217285 126.37799835205078,-12.182000160217285 C126.52300262451172,-12.835000038146973 126.59600067138672,-13.451000213623047 126.59600067138672,-14.067000389099121 C126.59600067138672,-16.315000534057617 125.43599700927734,-17.98200035095215 123.00700378417969,-17.98200035095215 C119.81700134277344,-17.98200035095215 116.98799896240234,-15.262999534606934 115.28399658203125,-11.782999992370605 C115.28399658203125,-11.782999992370605 119.12699890136719,-27.155000686645508 119.12699890136719,-27.155000686645508 C119.12699890136719,-27.155000686645508 113.3270034790039,-27.155000686645508 113.3270034790039,-27.155000686645508 C113.3270034790039,-27.155000686645508 113.3270034790039,-27.082000732421875 113.3270034790039,-27.082000732421875 C114.52300262451172,-26.465999603271484 115.28399658203125,-25.958999633789062 115.28399658203125,-24.690000534057617 C115.28399658203125,-24.32699966430664 115.24800109863281,-23.964000701904297 115.13899993896484,-23.493000030517578 C115.13899993896484,-23.493000030517578 109.26599884033203,0 109.26599884033203,0 C109.26599884033203,0 112.3479995727539,0 112.3479995727539,0 C112.3479995727539,0 114.26899719238281,-7.7220001220703125 114.26899719238281,-7.7220001220703125z"></path></g><g opacity="1" transform="matrix(1,0,0,1,0,0)"><path fill="rgb(208,229,0)" fill-opacity="1" d=" M104.56500244140625,-16.677000045776367 C104.56500244140625,-16.677000045776367 109.45899963378906,-16.677000045776367 109.45899963378906,-16.677000045776367 C109.45899963378906,-16.677000045776367 109.85800170898438,-17.6200008392334 109.85800170898438,-17.6200008392334 C109.85800170898438,-17.6200008392334 104.78199768066406,-17.6200008392334 104.78199768066406,-17.6200008392334 C104.78199768066406,-17.6200008392334 106.41400146484375,-23.856000900268555 106.41400146484375,-23.856000900268555 C106.41400146484375,-23.856000900268555 106.16000366210938,-23.856000900268555 106.16000366210938,-23.856000900268555 C104.52899932861328,-20.231000900268555 102.4260025024414,-17.874000549316406 98.90899658203125,-16.895000457763672 C98.90899658203125,-16.895000457763672 98.87300109863281,-16.677000045776367 98.87300109863281,-16.677000045776367 C98.87300109863281,-16.677000045776367 101.41100311279297,-16.677000045776367 101.41100311279297,-16.677000045776367 C101.41100311279297,-16.677000045776367 98.18399810791016,-3.552999973297119 98.18399810791016,-3.552999973297119 C98.07499694824219,-3.1540000438690186 98.03900146484375,-2.7909998893737793 98.03900146484375,-2.4649999141693115 C98.03900146484375,-0.7609999775886536 99.1989974975586,0.3630000054836273 101.26599884033203,0.3630000054836273 C103.51399993896484,0.3630000054836273 105.39800262451172,-0.7620000243186951 106.9209976196289,-2.937000036239624 C106.9209976196289,-2.937000036239624 106.8489990234375,-3.009000062942505 106.8489990234375,-3.009000062942505 C105.76100158691406,-1.812999963760376 104.38400268554688,-1.2330000400543213 103.2959976196289,-1.2330000400543213 C102.0999984741211,-1.2330000400543213 101.22899627685547,-1.8489999771118164 101.22899627685547,-3.009000062942505 C101.22899627685547,-3.190000057220459 101.26599884033203,-3.4070000648498535 101.302001953125,-3.625 C101.302001953125,-3.625 104.56500244140625,-16.677000045776367 104.56500244140625,-16.677000045776367z"></path></g><g opacity="1" transform="matrix(1,0,0,1,0,0)"><path fill="rgb(208,229,0)" fill-opacity="1" d=" M87.4469985961914,-27.155000686645508 C87.4469985961914,-27.155000686645508 81.64700317382812,-27.155000686645508 81.64700317382812,-27.155000686645508 C81.64700317382812,-27.155000686645508 81.64700317382812,-27.082000732421875 81.64700317382812,-27.082000732421875 C82.84300231933594,-26.465999603271484 83.60399627685547,-25.958999633789062 83.60399627685547,-24.690000534057617 C83.60399627685547,-24.32699966430664 83.56800079345703,-23.964000701904297 83.45899963378906,-23.493000030517578 C83.45899963378906,-23.493000030517578 77.58599853515625,0 77.58599853515625,0 C77.58599853515625,0 80.66799926757812,0 80.66799926757812,0 C80.66799926757812,0 82.40799713134766,-6.997000217437744 82.40799713134766,-6.997000217437744 C83.89399719238281,-12.979000091552734 88.20899963378906,-16.277999877929688 90.60199737548828,-16.277999877929688 C92.052001953125,-16.277999877929688 92.8489990234375,-15.336000442504883 92.8489990234375,-13.88599967956543 C92.8489990234375,-10.840999603271484 89.76799774169922,-8.520000457763672 86.46900177001953,-8.520000457763672 C85.70800018310547,-8.520000457763672 85.23600006103516,-8.592000007629395 84.62000274658203,-8.845999717712402 C84.62000274658203,-8.845999717712402 87.66500091552734,-2.066999912261963 87.66500091552734,-2.066999912261963 C88.35399627685547,-0.5080000162124634 89.36900329589844,0.3630000054836273 91.072998046875,0.3630000054836273 C92.41400146484375,0.3630000054836273 93.9729995727539,-0.28999999165534973 95.13300323486328,-1.7760000228881836 C95.13300323486328,-1.7760000228881836 95.13300323486328,-1.8489999771118164 95.13300323486328,-1.8489999771118164 C94.40799713134766,-1.4140000343322754 93.68299865722656,-1.1959999799728394 93.06700134277344,-1.1959999799728394 C91.87100219726562,-1.1959999799728394 90.9280014038086,-1.9570000171661377 90.38400268554688,-3.0450000762939453 C90.38400268554688,-3.0450000762939453 87.91899871826172,-8.194000244140625 87.91899871826172,-8.194000244140625 C92.30599975585938,-8.847000122070312 95.75,-10.949000358581543 95.75,-14.574000358581543 C95.75,-16.531999588012695 94.40799713134766,-17.98200035095215 92.08799743652344,-17.98200035095215 C88.60800170898438,-17.98200035095215 85.48999786376953,-14.791999816894531 83.4229965209961,-11.057999610900879 C83.4229965209961,-11.057999610900879 87.4469985961914,-27.155000686645508 87.4469985961914,-27.155000686645508z"></path></g><g opacity="1" transform="matrix(1,0,0,1,0,0)"><path fill="rgb(208,229,0)" fill-opacity="1" d=" M63.73699951171875,-1.2330000400543213 C61.452999114990234,-1.2330000400543213 60.25699996948242,-2.9730000495910645 60.25699996948242,-6.01800012588501 C60.25699996948242,-11.093999862670898 63.194000244140625,-16.714000701904297 67.47200012207031,-16.714000701904297 C69.35700225830078,-16.714000701904297 71.0250015258789,-15.517000198364258 71.0250015258789,-12.869999885559082 C71.0250015258789,-12.253999710083008 70.9520034790039,-11.60099983215332 70.77100372314453,-10.84000015258789 C70.77100372314453,-10.84000015258789 70.0459976196289,-7.97599983215332 70.0459976196289,-7.97599983215332 C69.03099822998047,-4.0970001220703125 66.45600128173828,-1.2330000400543213 63.73699951171875,-1.2330000400543213z M73.99700164794922,-11.60200023651123 C74.36000061035156,-13.052000045776367 75.12100219726562,-15.878999710083008 75.84600067138672,-17.98200035095215 C74.14199829101562,-17.292999267578125 72.4749984741211,-15.916000366210938 71.64099884033203,-14.067000389099121 C71.24199676513672,-16.134000778198242 69.71900177001953,-17.98200035095215 66.89099884033203,-17.98200035095215 C61.380001068115234,-17.98200035095215 57.10300064086914,-12.072999954223633 57.10300064086914,-6.01800012588501 C57.10300064086914,-2.1019999980926514 59.16899871826172,0.3630000054836273 62.57699966430664,0.3630000054836273 C65.62200164794922,0.3630000054836273 67.76200103759766,-1.8849999904632568 69.1760025024414,-4.459000110626221 C68.9219970703125,-3.6610000133514404 68.7770004272461,-2.9730000495910645 68.7770004272461,-2.3929998874664307 C68.7770004272461,-0.4350000023841858 70.00900268554688,0.3630000054836273 71.53199768066406,0.3630000054836273 C73.16300201416016,0.3630000054836273 74.36000061035156,-0.4350000023841858 75.48400115966797,-1.559000015258789 C75.48400115966797,-1.559000015258789 75.447998046875,-1.63100004196167 75.447998046875,-1.63100004196167 C73.38099670410156,-0.5429999828338623 71.38700103759766,-1.0149999856948853 71.93099975585938,-3.190000057220459 C71.93099975585938,-3.190000057220459 73.99700164794922,-11.60200023651123 73.99700164794922,-11.60200023651123z"></path></g><g opacity="1" transform="matrix(1,0,0,1,0,0)"><path fill="rgb(208,229,0)" fill-opacity="1" d=" M50.840999603271484,-17.256999969482422 C52.18199920654297,-17.256999969482422 52.87099838256836,-16.27899932861328 52.87099838256836,-14.901000022888184 C52.87099838256836,-10.659000396728516 49.06399917602539,-9.027999877929688 43.73500061035156,-8.628999710083008 C44.459999084472656,-13.015999794006348 47.361000061035156,-17.256999969482422 50.840999603271484,-17.256999969482422z M47.21500015258789,0.3630000054836273 C50.33300018310547,0.3630000054836273 53.198001861572266,-1.340999960899353 54.53900146484375,-4.422999858856201 C54.53900146484375,-4.422999858856201 54.39400100708008,-4.422999858856201 54.39400100708008,-4.422999858856201 C52.689998626708984,-2.2109999656677246 50.731998443603516,-0.9789999723434448 48.3390007019043,-0.9789999723434448 C45.43899917602539,-0.9789999723434448 43.55400085449219,-2.6470000743865967 43.55400085449219,-6.489999771118164 C43.55400085449219,-7.033999919891357 43.5890007019043,-7.613999843597412 43.6619987487793,-8.194000244140625 C50.69499969482422,-8.411999702453613 55.84400177001953,-10.114999771118164 55.84400177001953,-14.138999938964844 C55.84400177001953,-16.35099983215332 53.849998474121094,-17.98200035095215 50.840999603271484,-17.98200035095215 C44.823001861572266,-17.98200035095215 40.362998962402344,-12.39900016784668 40.362998962402344,-6.706999778747559 C40.362998962402344,-2.3929998874664307 43.191001892089844,0.3630000054836273 47.21500015258789,0.3630000054836273z"></path></g><g opacity="1" transform="matrix(1,0,0,1,0,0)"><path fill="rgb(208,229,0)" fill-opacity="1" d=" M35.36600112915039,-12.579999923706055 C35.619998931884766,-12.39900016784668 36.090999603271484,-12.218000411987305 36.67100143432617,-12.218000411987305 C38.665000915527344,-12.218000411987305 39.933998107910156,-13.52299976348877 39.933998107910156,-15.407999992370605 C39.933998107910156,-16.930999755859375 38.77299880981445,-17.98200035095215 37.141998291015625,-17.98200035095215 C33.915000915527344,-17.98200035095215 31.702999114990234,-14.574999809265137 30.07200050354004,-11.166999816894531 C30.07200050354004,-11.166999816894531 31.667999267578125,-17.6200008392334 31.667999267578125,-17.6200008392334 C31.667999267578125,-17.6200008392334 26.121000289916992,-17.6200008392334 26.121000289916992,-17.6200008392334 C26.121000289916992,-17.6200008392334 26.121000289916992,-17.547000885009766 26.121000289916992,-17.547000885009766 C27.172000885009766,-16.893999099731445 27.825000762939453,-16.20599937438965 27.825000762939453,-15.010000228881836 C27.825000762939453,-14.684000015258789 27.788999557495117,-14.357000350952148 27.68000030517578,-13.958000183105469 C27.68000030517578,-13.958000183105469 24.198999404907227,0 24.198999404907227,0 C24.198999404907227,0 27.2810001373291,0 27.2810001373291,0 C27.2810001373291,0 29.1299991607666,-7.432000160217285 29.1299991607666,-7.432000160217285 C30.072999954223633,-11.274999618530273 33.00899887084961,-15.98799991607666 35.61899948120117,-15.98799991607666 C36.525001525878906,-15.98799991607666 36.99700164794922,-15.517000198364258 36.99700164794922,-14.682999610900879 C36.99700164794922,-13.668000221252441 36.38100051879883,-12.725000381469727 35.36600112915039,-12.579999923706055z"></path></g><g opacity="1" transform="matrix(1,0,0,1,0,0)"><path fill="rgb(208,229,0)" fill-opacity="1" d=" M5.002999782562256,-0.9430000185966492 C5.002999782562256,-0.9430000185966492 7.867000102996826,-12.39900016784668 7.867000102996826,-12.39900016784668 C7.867000102996826,-12.39900016784668 12.289999961853027,-12.39900016784668 12.289999961853027,-12.39900016784668 C15.95199966430664,-12.39900016784668 17.945999145507812,-11.20300006866455 17.945999145507812,-8.121000289916992 C17.945999145507812,-3.7339999675750732 14.538999557495117,-0.9430000185966492 10.043000221252441,-0.9430000185966492 C10.043000221252441,-0.9430000185966492 5.002999782562256,-0.9430000185966492 5.002999782562256,-0.9430000185966492z M8.085000038146973,-13.342000007629395 C8.085000038146973,-13.342000007629395 10.84000015258789,-24.43600082397461 10.84000015258789,-24.43600082397461 C10.84000015258789,-24.43600082397461 14.864999771118164,-24.43600082397461 14.864999771118164,-24.43600082397461 C18.05500030517578,-24.43600082397461 19.722999572753906,-22.804000854492188 19.722999572753906,-20.194000244140625 C19.722999572753906,-15.807000160217285 16.20599937438965,-13.342000007629395 12.036999702453613,-13.342000007629395 C12.036999702453613,-13.342000007629395 8.085000038146973,-13.342000007629395 8.085000038146973,-13.342000007629395z M10.369000434875488,0 C15.95199966430664,0 21.389999389648438,-2.3559999465942383 21.389999389648438,-8.01200008392334 C21.389999389648438,-11.20199966430664 18.27199935913086,-12.689000129699707 14.972999572753906,-12.979000091552734 C19.43199920654297,-13.413999557495117 23.0939998626709,-15.734000205993652 23.0939998626709,-20.229999542236328 C23.0939998626709,-23.819000244140625 20.121999740600586,-25.378000259399414 15.444999694824219,-25.378000259399414 C15.444999694824219,-25.378000259399414 5.836999893188477,-25.378000259399414 5.836999893188477,-25.378000259399414 C5.836999893188477,-25.378000259399414 5.836999893188477,-25.305999755859375 5.836999893188477,-25.305999755859375 C6.815999984741211,-24.834999084472656 7.177999973297119,-24.110000610351562 7.177999973297119,-23.02199935913086 C7.177999973297119,-22.368999481201172 7.070000171661377,-21.607999801635742 6.8520002365112305,-20.738000869750977 C6.8520002365112305,-20.738000869750977 2.828000068664551,-4.640999794006348 2.828000068664551,-4.640999794006348 C2.2119998931884766,-2.247999906539917 1.5230000019073486,-0.7979999780654907 -0.39899998903274536,-0.0729999989271164 C-0.39899998903274536,-0.0729999989271164 -0.39899998903274536,0 -0.39899998903274536,0 C-0.39899998903274536,0 10.369000434875488,0 10.369000434875488,0z"></path></g></g><g style="display: block;" transform="matrix(1.5299999713897705,0,0,1.5299999713897705,-35.23512268066406,27.99962043762207)" opacity="1"><g opacity="1" transform="matrix(1.0244200229644775,0,0,1,137.53700256347656,14.045999526977539)"><path fill="rgb(208,229,0)" fill-opacity="1" d=" M-110.04000091552734,-0.9860000014305115 C-110.04000091552734,-0.9860000014305115 -110.04000091552734,1.0509999990463257 -110.04000091552734,1.0509999990463257 C-110.04000091552734,1.0509999990463257 -110.07599639892578,1.0190000534057617 -110.07599639892578,1.0190000534057617 C-110.07599639892578,1.0190000534057617 -110.07599639892578,-1.0190000534057617 -110.07599639892578,-1.0190000534057617 C-110.07599639892578,-1.0190000534057617 -110.04000091552734,-0.9860000014305115 -110.04000091552734,-0.9860000014305115z"></path></g></g></g></svg>