<svg width="14" height="16" viewBox="0 0 14 16" fill="none" xmlns="http://www.w3.org/2000/svg"><path d="M0.336914 1C0.336914 0.447733 0.784647 0 1.33691 0H6.00358C6.55585 0 7.00358 0.447733 7.00358 1V5.33333H1.33691C0.784647 5.33333 0.336914 4.8856 0.336914 4.33333V1ZM7.00358 5.33333H12.6702C13.2225 5.33333 13.6702 5.78107 13.6702 6.33333V9.66667C13.6702 10.2189 13.2225 10.6667 12.6702 10.6667H7.00358V5.33333ZM0.336914 11.6667C0.336914 11.1144 0.784647 10.6667 1.33691 10.6667H7.00358V15C7.00358 15.5523 6.55585 16 6.00358 16H1.33691C0.784647 16 0.336914 15.5523 0.336914 15V11.6667Z" fill="#F26207"/></svg>