<svg xmlns="http://www.w3.org/2000/svg" width="32" height="32" fill="#222325" viewBox="0 0 24 24"><path d="M16.508 1c1.743 0 3.155 1.43 3.155 3.195a.73.73 0 0 1-.724.733.73.73 0 0 1-.724-.733c0-.955-.764-1.728-1.707-1.728H5.621c-1.2 0-2.173.985-2.173 2.2v14.666c0 1.215.973 2.2 2.173 2.2h10.421c1.2 0 2.173-.985 2.173-2.2v-.489c0-.405.324-.733.724-.733s.724.328.724.733v.49c0 2.024-1.62 3.666-3.62 3.666H5.62C3.62 23 2 21.358 2 19.333V4.667C2 2.642 3.621 1 5.62 1z"></path><path d="M10.664 16.16a.73.73 0 0 1 .65.729.73.73 0 0 1-.65.73l-.073.003H7.55a.73.73 0 0 1-.723-.733c0-.405.324-.733.724-.733h3.039zM18.939 7.91c.201 0 .382.126.453.317l.347.945.068.173a3.4 3.4 0 0 0 1.931 1.844l.945.353a.49.49 0 0 1 .069.886l-.069.031-.945.353a3.4 3.4 0 0 0-2 2.017l-.346.945a.48.48 0 0 1-.453.318.48.48 0 0 1-.453-.318l-.347-.945a3.4 3.4 0 0 0-1.829-1.949l-.17-.068-.946-.353a.49.49 0 0 1 0-.918l.946-.352.17-.068a3.4 3.4 0 0 0 1.83-1.95l.346-.944.031-.067a.48.48 0 0 1 .422-.25M10.664 11.27a.73.73 0 0 1 .65.73.73.73 0 0 1-.65.73l-.073.003H7.55A.73.73 0 0 1 6.829 12c0-.405.324-.733.724-.733h3.039zM14.243 6.382a.73.73 0 0 1 .65.73.73.73 0 0 1-.65.729l-.075.003H7.552a.73.73 0 0 1-.724-.733c0-.405.324-.733.724-.733h6.616z"></path></svg>