<svg width="163" height="28" viewBox="0 0 163 28" fill="none" xmlns="http://www.w3.org/2000/svg"><path d="M6 0.5H157C160.038 0.5 162.5 2.96243 162.5 6V22C162.5 25.0376 160.038 27.5 157 27.5H6C2.96243 27.5 0.5 25.0376 0.5 22V6C0.5 2.96243 2.96243 0.5 6 0.5Z" stroke="var(--theme-color-border, rgba(0, 0, 0, 0.08))"></path><path d="M24.299 18V10.7273H26.8913C27.4571 10.7273 27.9259 10.8303 28.2976 11.0362C28.6693 11.2422 28.9474 11.5239 29.1321 11.8814C29.3168 12.2365 29.4091 12.6366 29.4091 13.0817C29.4091 13.5291 29.3156 13.9316 29.1286 14.2891C28.9439 14.6442 28.6645 14.9259 28.2905 15.1342C27.9188 15.3402 27.4512 15.4432 26.8878 15.4432H25.1051V14.5128H26.7884C27.1458 14.5128 27.4358 14.4512 27.6584 14.3281C27.8809 14.2027 28.0443 14.0322 28.1484 13.8168C28.2526 13.6013 28.3047 13.3563 28.3047 13.0817C28.3047 12.8071 28.2526 12.5632 28.1484 12.3501C28.0443 12.1371 27.8797 11.9702 27.6548 11.8494C27.4323 11.7287 27.1387 11.6683 26.7741 11.6683H25.3963V18H24.299ZM32.8395 18.1101C32.3281 18.1101 31.8819 17.9929 31.5007 17.7585C31.1196 17.5241 30.8236 17.1963 30.6129 16.7749C30.4022 16.3535 30.2969 15.861 30.2969 15.2976C30.2969 14.7318 30.4022 14.237 30.6129 13.8132C30.8236 13.3894 31.1196 13.0604 31.5007 12.826C31.8819 12.5916 32.3281 12.4744 32.8395 12.4744C33.3509 12.4744 33.7971 12.5916 34.1783 12.826C34.5594 13.0604 34.8554 13.3894 35.0661 13.8132C35.2768 14.237 35.3821 14.7318 35.3821 15.2976C35.3821 15.861 35.2768 16.3535 35.0661 16.7749C34.8554 17.1963 34.5594 17.5241 34.1783 17.7585C33.7971 17.9929 33.3509 18.1101 32.8395 18.1101ZM32.843 17.2188C33.1745 17.2188 33.4491 17.1312 33.6669 16.956C33.8847 16.7808 34.0457 16.5476 34.1499 16.2564C34.2564 15.9652 34.3097 15.6444 34.3097 15.294C34.3097 14.946 34.2564 14.6264 34.1499 14.3352C34.0457 14.0417 33.8847 13.8061 33.6669 13.6286C33.4491 13.451 33.1745 13.3622 32.843 13.3622C32.5092 13.3622 32.2322 13.451 32.0121 13.6286C31.7943 13.8061 31.6321 14.0417 31.5256 14.3352C31.4214 14.6264 31.3693 14.946 31.3693 15.294C31.3693 15.6444 31.4214 15.9652 31.5256 16.2564C31.6321 16.5476 31.7943 16.7808 32.0121 16.956C32.2322 17.1312 32.5092 17.2188 32.843 17.2188ZM37.5838 18L35.9787 12.5455H37.076L38.1449 16.5511H38.1982L39.2706 12.5455H40.3679L41.4332 16.5334H41.4865L42.5483 12.5455H43.6456L42.044 18H40.9609L39.853 14.0618H39.7713L38.6634 18H37.5838ZM46.8381 18.1101C46.3007 18.1101 45.8378 17.9953 45.4496 17.7656C45.0637 17.5336 44.7654 17.2081 44.5547 16.7891C44.3464 16.3677 44.2422 15.8741 44.2422 15.3082C44.2422 14.7495 44.3464 14.2571 44.5547 13.831C44.7654 13.4048 45.0589 13.0722 45.4354 12.8331C45.8142 12.594 46.2569 12.4744 46.7635 12.4744C47.0713 12.4744 47.3696 12.5253 47.6584 12.6271C47.9472 12.7289 48.2064 12.8887 48.4361 13.1065C48.6657 13.3243 48.8468 13.6072 48.9794 13.9553C49.112 14.3009 49.1783 14.7211 49.1783 15.2159V15.5923H44.8423V14.7969H48.1378C48.1378 14.5175 48.081 14.2701 47.9673 14.0547C47.8537 13.8369 47.6939 13.6652 47.4879 13.5398C47.2843 13.4143 47.0452 13.3516 46.7706 13.3516C46.4723 13.3516 46.2119 13.425 45.9893 13.5717C45.7692 13.7161 45.5987 13.9055 45.478 14.1399C45.3596 14.3719 45.3004 14.6241 45.3004 14.8963V15.5178C45.3004 15.8823 45.3643 16.1925 45.4922 16.4482C45.6224 16.7038 45.8035 16.8991 46.0355 17.0341C46.2675 17.1667 46.5386 17.233 46.8487 17.233C47.05 17.233 47.2334 17.2045 47.3991 17.1477C47.5649 17.0885 47.7081 17.0009 47.8288 16.8849C47.9496 16.7689 48.0419 16.6257 48.1058 16.4553L49.1108 16.6364C49.0303 16.9323 48.8859 17.1915 48.6776 17.4141C48.4716 17.6342 48.2124 17.8059 47.8999 17.929C47.5897 18.0497 47.2358 18.1101 46.8381 18.1101ZM50.3564 18V12.5455H51.3826V13.4119H51.4395C51.5389 13.1184 51.7141 12.8875 51.965 12.7195C52.2183 12.549 52.5048 12.4638 52.8244 12.4638C52.8907 12.4638 52.9688 12.4661 53.0588 12.4709C53.1511 12.4756 53.2233 12.4815 53.2754 12.4886V13.5043C53.2328 13.4924 53.157 13.4794 53.0481 13.4652C52.9392 13.4486 52.8303 13.4403 52.7214 13.4403C52.4705 13.4403 52.2467 13.4936 52.0502 13.6001C51.8561 13.7043 51.7022 13.8499 51.5886 14.0369C51.475 14.2216 51.4181 14.4323 51.4181 14.669V18H50.3564ZM56.3498 18.1101C55.8124 18.1101 55.3496 17.9953 54.9613 17.7656C54.5754 17.5336 54.2771 17.2081 54.0664 16.7891C53.8581 16.3677 53.7539 15.8741 53.7539 15.3082C53.7539 14.7495 53.8581 14.2571 54.0664 13.831C54.2771 13.4048 54.5707 13.0722 54.9471 12.8331C55.3259 12.594 55.7686 12.4744 56.2752 12.4744C56.583 12.4744 56.8813 12.5253 57.1701 12.6271C57.4589 12.7289 57.7182 12.8887 57.9478 13.1065C58.1774 13.3243 58.3585 13.6072 58.4911 13.9553C58.6237 14.3009 58.69 14.7211 58.69 15.2159V15.5923H54.354V14.7969H57.6495C57.6495 14.5175 57.5927 14.2701 57.479 14.0547C57.3654 13.8369 57.2056 13.6652 56.9996 13.5398C56.796 13.4143 56.5569 13.3516 56.2823 13.3516C55.984 13.3516 55.7236 13.425 55.5011 13.5717C55.2809 13.7161 55.1104 13.9055 54.9897 14.1399C54.8713 14.3719 54.8121 14.6241 54.8121 14.8963V15.5178C54.8121 15.8823 54.8761 16.1925 55.0039 16.4482C55.1341 16.7038 55.3152 16.8991 55.5472 17.0341C55.7792 17.1667 56.0503 17.233 56.3604 17.233C56.5617 17.233 56.7451 17.2045 56.9109 17.1477C57.0766 17.0885 57.2198 17.0009 57.3406 16.8849C57.4613 16.7689 57.5536 16.6257 57.6175 16.4553L58.6225 16.6364C58.542 16.9323 58.3976 17.1915 58.1893 17.4141C57.9833 17.6342 57.7241 17.8059 57.4116 17.929C57.1014 18.0497 56.7475 18.1101 56.3498 18.1101ZM61.91 18.1065C61.4696 18.1065 61.0766 17.9941 60.731 17.7692C60.3877 17.5419 60.1178 17.2187 59.9213 16.7997C59.7272 16.3783 59.6301 15.8729 59.6301 15.2834C59.6301 14.6939 59.7284 14.1896 59.9249 13.7706C60.1238 13.3516 60.396 13.0308 60.7417 12.8082C61.0873 12.5857 61.4791 12.4744 61.9171 12.4744C62.2556 12.4744 62.5279 12.5312 62.7338 12.6449C62.9422 12.7562 63.1032 12.8864 63.2168 13.0355C63.3328 13.1847 63.4228 13.3161 63.4867 13.4297H63.5506V10.7273H64.6124V18H63.5755V17.1513H63.4867C63.4228 17.2673 63.3304 17.3999 63.2097 17.549C63.0913 17.6982 62.928 17.8284 62.7196 17.9396C62.5113 18.0509 62.2414 18.1065 61.91 18.1065ZM62.1444 17.201C62.4498 17.201 62.7078 17.1205 62.9185 16.9595C63.1316 16.7962 63.2926 16.5701 63.4015 16.2812C63.5127 15.9924 63.5684 15.6562 63.5684 15.2727C63.5684 14.8939 63.5139 14.5625 63.405 14.2784C63.2961 13.9943 63.1363 13.773 62.9256 13.6143C62.7149 13.4557 62.4545 13.3764 62.1444 13.3764C61.8248 13.3764 61.5584 13.4593 61.3453 13.625C61.1323 13.7907 60.9713 14.0168 60.8624 14.3033C60.7559 14.5897 60.7026 14.9129 60.7026 15.2727C60.7026 15.6373 60.757 15.9652 60.8659 16.2564C60.9748 16.5476 61.1358 16.7784 61.3489 16.9489C61.5643 17.117 61.8295 17.201 62.1444 17.201ZM68.8596 18V10.7273H69.9213V13.4297H69.9853C70.0468 13.3161 70.1356 13.1847 70.2516 13.0355C70.3676 12.8864 70.5286 12.7562 70.7346 12.6449C70.9405 12.5312 71.2128 12.4744 71.5513 12.4744C71.9917 12.4744 72.3846 12.5857 72.7303 12.8082C73.0759 13.0308 73.347 13.3516 73.5435 13.7706C73.7424 14.1896 73.8418 14.6939 73.8418 15.2834C73.8418 15.8729 73.7435 16.3783 73.5471 16.7997C73.3506 17.2187 73.0807 17.5419 72.7374 17.7692C72.3941 17.9941 72.0023 18.1065 71.562 18.1065C71.2305 18.1065 70.9595 18.0509 70.7488 17.9396C70.5404 17.8284 70.3771 17.6982 70.2587 17.549C70.1403 17.3999 70.0492 17.2673 69.9853 17.1513H69.8965V18H68.8596ZM69.9 15.2727C69.9 15.6562 69.9557 15.9924 70.0669 16.2812C70.1782 16.5701 70.3392 16.7962 70.5499 16.9595C70.7606 17.1205 71.0186 17.201 71.324 17.201C71.6413 17.201 71.9064 17.117 72.1195 16.9489C72.3326 16.7784 72.4935 16.5476 72.6025 16.2564C72.7137 15.9652 72.7694 15.6373 72.7694 15.2727C72.7694 14.9129 72.7149 14.5897 72.606 14.3033C72.4995 14.0168 72.3385 13.7907 72.123 13.625C71.91 13.4593 71.6436 13.3764 71.324 13.3764C71.0163 13.3764 70.7559 13.4557 70.5428 13.6143C70.3321 13.773 70.1723 13.9943 70.0634 14.2784C69.9545 14.5625 69.9 14.8939 69.9 15.2727ZM75.5197 20.0455C75.3611 20.0455 75.2167 20.0324 75.0865 20.0064C74.9563 19.9827 74.8592 19.9567 74.7953 19.9283L75.051 19.0582C75.2451 19.1103 75.4179 19.1328 75.5694 19.1257C75.7209 19.1186 75.8547 19.0618 75.9707 18.9553C76.0891 18.8487 76.1932 18.6747 76.2832 18.4332L76.4146 18.071L74.4189 12.5455H75.5552L76.9366 16.7784H76.9934L78.3748 12.5455H79.5147L77.2669 18.728C77.1627 19.0121 77.0301 19.2524 76.8691 19.4489C76.7082 19.6477 76.5164 19.7969 76.2939 19.8963C76.0713 19.9957 75.8133 20.0455 75.5197 20.0455Z" fill="var(--theme-color-info-quaternary-temp, #A0A3AB)"></path><path d="M94.2245 17.9941C94.2245 18.2232 94.1645 18.4142 94.0444 18.567C93.9353 18.7088 93.7607 18.8398 93.5206 18.9598C93.2369 19.1126 92.8441 19.2381 92.3421 19.3363C91.8401 19.4345 91.3272 19.4836 90.8034 19.4836C90.0287 19.4836 89.3139 19.3854 88.6591 19.189C88.0153 18.9816 87.4588 18.6652 86.9895 18.2396C86.5203 17.814 86.1547 17.2738 85.8928 16.6191C85.6309 15.9643 85.5 15.1896 85.5 14.2947C85.5 13.4217 85.6364 12.6579 85.9092 12.0031C86.182 11.3484 86.5476 10.8082 87.0059 10.3826C87.4751 9.94614 88.0208 9.61877 88.6428 9.40052C89.2757 9.18227 89.9468 9.07315 90.6561 9.07315C91.1254 9.07315 91.5564 9.1168 91.9492 9.2041C92.3421 9.28048 92.6804 9.38415 92.9641 9.5151C93.2478 9.64605 93.4661 9.79882 93.6188 9.97342C93.7716 10.1371 93.848 10.3117 93.848 10.4972C93.848 10.6827 93.7989 10.8464 93.7007 10.9883C93.6025 11.1192 93.4824 11.2229 93.3406 11.2993C93.0459 11.1138 92.6967 10.9392 92.293 10.7755C91.8892 10.6118 91.3818 10.53 90.7707 10.53C90.2796 10.53 89.8213 10.6118 89.3957 10.7755C88.9702 10.9392 88.5991 11.1792 88.2827 11.4957C87.9771 11.8122 87.737 12.205 87.5624 12.6742C87.3878 13.1435 87.3006 13.6836 87.3006 14.2947C87.3006 14.9386 87.3878 15.5006 87.5624 15.9807C87.748 16.4499 87.9935 16.8373 88.299 17.1429C88.6155 17.4484 88.9865 17.6776 89.4121 17.8304C89.8486 17.9722 90.3178 18.0432 90.8198 18.0432C91.169 18.0432 91.4964 18.0159 91.8019 17.9613C92.1075 17.8958 92.3421 17.8195 92.5058 17.7322V15.1132H90.2469C90.1923 15.0477 90.1432 14.9549 90.0996 14.8349C90.0668 14.704 90.0505 14.573 90.0505 14.4421C90.0505 14.1911 90.105 14.0056 90.2142 13.8855C90.3342 13.7655 90.4924 13.7055 90.6889 13.7055H93.4388C93.6679 13.7055 93.8535 13.7764 93.9953 13.9183C94.1481 14.0492 94.2245 14.2402 94.2245 14.4912V17.9941Z" fill="currentColor"></path><path d="M98.1278 19.2217C98.0514 19.2544 97.9423 19.2817 97.8004 19.3035C97.6694 19.3363 97.5221 19.3526 97.3584 19.3526C97.042 19.3526 96.8074 19.2926 96.6546 19.1726C96.5018 19.0526 96.4254 18.8507 96.4254 18.567V13.198C96.4254 12.9252 96.48 12.707 96.5891 12.5433C96.6982 12.3687 96.8728 12.205 97.1129 12.0522C97.4294 11.8558 97.8331 11.6921 98.3242 11.5612C98.8152 11.4302 99.3554 11.3648 99.9447 11.3648C100.905 11.3648 101.385 11.6376 101.385 12.1832C101.385 12.3141 101.363 12.4396 101.32 12.5597C101.276 12.6688 101.227 12.767 101.172 12.8543C101.063 12.8325 100.927 12.8107 100.763 12.7888C100.599 12.767 100.425 12.7561 100.239 12.7561C99.8028 12.7561 99.4045 12.8052 99.0444 12.9034C98.6843 12.9907 98.3787 13.1053 98.1278 13.2471V19.2217Z" fill="currentColor"></path><path d="M105.556 18.1577C105.938 18.1577 106.271 18.1195 106.555 18.0432C106.839 17.9668 107.041 17.8849 107.161 17.7976V15.7188L105.376 15.8989C104.874 15.9534 104.498 16.068 104.247 16.2426C103.996 16.4063 103.87 16.6627 103.87 17.0119C103.87 17.372 104.007 17.6558 104.28 17.8631C104.552 18.0595 104.978 18.1577 105.556 18.1577ZM105.524 11.3648C106.539 11.3648 107.346 11.5885 107.946 12.0359C108.546 12.4724 108.847 13.1653 108.847 14.1147V17.9286C108.847 18.1796 108.787 18.376 108.666 18.5178C108.557 18.6488 108.405 18.7743 108.208 18.8943C107.924 19.058 107.559 19.1999 107.111 19.3199C106.664 19.4399 106.146 19.5 105.556 19.5C104.498 19.5 103.669 19.2926 103.068 18.878C102.479 18.4633 102.184 17.8522 102.184 17.0447C102.184 16.3245 102.414 15.7734 102.872 15.3914C103.341 15.0095 104.012 14.7749 104.885 14.6876L107.161 14.4584V14.0983C107.161 13.6182 107.002 13.269 106.686 13.0507C106.38 12.8325 105.949 12.7234 105.393 12.7234C104.956 12.7234 104.536 12.7834 104.132 12.9034C103.729 13.0234 103.368 13.1598 103.052 13.3126C102.943 13.2253 102.85 13.1217 102.774 13.0016C102.697 12.8707 102.659 12.7288 102.659 12.576C102.659 12.3905 102.703 12.2377 102.79 12.1177C102.888 11.9977 103.036 11.894 103.232 11.8067C103.538 11.6539 103.887 11.5448 104.28 11.4793C104.673 11.4029 105.087 11.3648 105.524 11.3648Z" fill="currentColor"></path><path d="M114.473 11.3648C114.8 11.3648 115.106 11.4029 115.39 11.4793C115.684 11.5448 115.941 11.6321 116.159 11.7412V8.63119C116.235 8.60937 116.345 8.58209 116.486 8.54935C116.628 8.51661 116.781 8.50024 116.945 8.50024C117.261 8.50024 117.496 8.56026 117.649 8.6803C117.801 8.80034 117.878 9.00221 117.878 9.28594V17.8631C117.878 18.0923 117.829 18.2832 117.73 18.436C117.632 18.5779 117.479 18.7143 117.272 18.8452C117.021 19.0089 116.677 19.1562 116.241 19.2872C115.815 19.4181 115.324 19.4836 114.768 19.4836C114.146 19.4836 113.578 19.4072 113.065 19.2544C112.553 19.0908 112.116 18.8452 111.756 18.5178C111.396 18.1796 111.118 17.7594 110.921 17.2575C110.725 16.7446 110.626 16.1444 110.626 15.4569C110.626 14.7476 110.725 14.1365 110.921 13.6236C111.128 13.0998 111.407 12.6742 111.756 12.3469C112.105 12.0086 112.509 11.7631 112.967 11.6103C113.436 11.4466 113.938 11.3648 114.473 11.3648ZM116.175 13.1817C115.99 13.0616 115.772 12.958 115.521 12.8707C115.27 12.7834 114.991 12.7397 114.686 12.7397C114.359 12.7397 114.053 12.7888 113.769 12.887C113.496 12.9852 113.256 13.1489 113.049 13.3781C112.842 13.5963 112.678 13.8801 112.558 14.2293C112.438 14.5676 112.378 14.9822 112.378 15.4733C112.378 16.3899 112.591 17.0556 113.016 17.4703C113.453 17.8849 114.031 18.0923 114.751 18.0923C115.079 18.0923 115.352 18.0595 115.57 17.9941C115.799 17.9177 116.001 17.8304 116.175 17.7322V13.1817Z" fill="currentColor"></path><path d="M120.163 11.6103C120.24 11.5885 120.349 11.5666 120.491 11.5448C120.632 11.5121 120.785 11.4957 120.949 11.4957C121.265 11.4957 121.494 11.5557 121.636 11.6758C121.789 11.7958 121.865 12.0031 121.865 12.2978V16.3408C121.865 16.9737 122.029 17.4266 122.357 17.6994C122.695 17.9613 123.159 18.0923 123.748 18.0923C124.13 18.0923 124.452 18.0541 124.714 17.9777C124.976 17.9013 125.183 17.8195 125.336 17.7322V11.6103C125.423 11.5885 125.532 11.5666 125.663 11.5448C125.805 11.5121 125.958 11.4957 126.121 11.4957C126.438 11.4957 126.672 11.5557 126.825 11.6758C126.978 11.7958 127.054 12.0031 127.054 12.2978V17.814C127.054 18.0541 127.016 18.2505 126.94 18.4033C126.863 18.556 126.711 18.7034 126.481 18.8452C126.198 19.0089 125.821 19.1562 125.352 19.2872C124.894 19.4181 124.354 19.4836 123.732 19.4836C122.608 19.4836 121.729 19.2381 121.096 18.747C120.474 18.245 120.163 17.4539 120.163 16.3736V11.6103Z" fill="currentColor"></path><path d="M132.187 18.1577C132.569 18.1577 132.902 18.1195 133.186 18.0432C133.47 17.9668 133.672 17.8849 133.792 17.7976V15.7188L132.007 15.8989C131.505 15.9534 131.129 16.068 130.878 16.2426C130.627 16.4063 130.501 16.6627 130.501 17.0119C130.501 17.372 130.638 17.6558 130.911 17.8631C131.183 18.0595 131.609 18.1577 132.187 18.1577ZM132.155 11.3648C133.17 11.3648 133.977 11.5885 134.577 12.0359C135.177 12.4724 135.478 13.1653 135.478 14.1147V17.9286C135.478 18.1796 135.418 18.376 135.297 18.5178C135.188 18.6488 135.036 18.7743 134.839 18.8943C134.555 19.058 134.19 19.1999 133.742 19.3199C133.295 19.4399 132.777 19.5 132.187 19.5C131.129 19.5 130.3 19.2926 129.699 18.878C129.11 18.4633 128.816 17.8522 128.816 17.0447C128.816 16.3245 129.045 15.7734 129.503 15.3914C129.972 15.0095 130.643 14.7749 131.516 14.6876L133.792 14.4584V14.0983C133.792 13.6182 133.633 13.269 133.317 13.0507C133.011 12.8325 132.58 12.7234 132.024 12.7234C131.587 12.7234 131.167 12.7834 130.763 12.9034C130.36 13.0234 130 13.1598 129.683 13.3126C129.574 13.2253 129.481 13.1217 129.405 13.0016C129.328 12.8707 129.29 12.7288 129.29 12.576C129.29 12.3905 129.334 12.2377 129.421 12.1177C129.519 11.9977 129.667 11.894 129.863 11.8067C130.169 11.6539 130.518 11.5448 130.911 11.4793C131.304 11.4029 131.718 11.3648 132.155 11.3648Z" fill="currentColor"></path><path d="M138.714 19.3526C138.398 19.3526 138.163 19.2926 138.01 19.1726C137.858 19.0526 137.781 18.8507 137.781 18.567V8.63119C137.858 8.60937 137.967 8.58209 138.109 8.54935C138.251 8.51661 138.403 8.50024 138.567 8.50024C138.883 8.50024 139.118 8.56026 139.271 8.6803C139.424 8.80034 139.5 9.00221 139.5 9.28594V19.2217C139.413 19.2544 139.298 19.2817 139.156 19.3035C139.025 19.3363 138.878 19.3526 138.714 19.3526Z" fill="currentColor"></path></svg>