<svg width="1em" height="1em" viewBox="0 0 32 32" fill="none" xmlns="http://www.w3.org/2000/svg"><path d="M10 15.499C10 14.9467 10.4477 14.499 11 14.499H21C21.5523 14.499 22 14.9467 22 15.499C22 16.0513 21.5523 16.499 21 16.499H11C10.4477 16.499 10 16.0513 10 15.499Z" fill="currentColor"></path><path d="M11 20.499C10.4477 20.499 10 20.9467 10 21.499C10 22.0513 10.4477 22.499 11 22.499H21C21.5523 22.499 22 22.0513 22 21.499C22 20.9467 21.5523 20.499 21 20.499H11Z" fill="currentColor"></path><path fill-rule="evenodd" clip-rule="evenodd" d="M18.6041 3.41317C17.1061 2.1292 14.8957 2.1292 13.3977 3.41317L9.79756 6.49902H9C5.68629 6.49902 3 9.18532 3 12.499V23.499C3 26.8127 5.68629 29.499 9 29.499H23C26.3137 29.499 29 26.8127 29 23.499V12.499C29 9.18532 26.3137 6.49902 23 6.49902H22.2042L18.6041 3.41317ZM19.131 6.49902L17.3025 4.93168C16.5535 4.2897 15.4483 4.2897 14.6993 4.93168L12.8707 6.49902H19.131ZM23 8.49902H9C6.79086 8.49902 5 10.2899 5 12.499V23.499C5 25.7082 6.79086 27.499 9 27.499H23C25.2091 27.499 27 25.7082 27 23.499V12.499C27 10.2899 25.2091 8.49902 23 8.49902Z" fill="currentColor"></path></svg>