<svg width="1em" height="1em" viewBox="0 0 32 32" fill="none" xmlns="http://www.w3.org/2000/svg"><path fill-rule="evenodd" clip-rule="evenodd" d="M11 2.5C11.5523 2.5 12 2.94772 12 3.5V4.5H20V3.5C20 2.94772 20.4477 2.5 21 2.5C21.5523 2.5 22 2.94772 22 3.5V4.5H23C26.3137 4.5 29 7.18629 29 10.5V23.5C29 26.8137 26.3137 29.5 23 29.5H9C5.68629 29.5 3 26.8137 3 23.5V10.5C3 7.18629 5.68629 4.5 9 4.5H10V3.5C10 2.94772 10.4477 2.5 11 2.5ZM20 6.5V7.5C20 8.05228 20.4477 8.5 21 8.5C21.5523 8.5 22 8.05228 22 7.5V6.5H23C25.2091 6.5 27 8.29086 27 10.5V11.5H5L5 10.5C5 8.29086 6.79086 6.5 9 6.5H10V7.5C10 8.05228 10.4477 8.5 11 8.5C11.5523 8.5 12 8.05228 12 7.5V6.5H20ZM10.5 19.5C11.3284 19.5 12 18.8284 12 18C12 17.1716 11.3284 16.5 10.5 16.5C9.67157 16.5 9 17.1716 9 18C9 18.8284 9.67157 19.5 10.5 19.5ZM12 23C12 23.8284 11.3284 24.5 10.5 24.5C9.67157 24.5 9 23.8284 9 23C9 22.1716 9.67157 21.5 10.5 21.5C11.3284 21.5 12 22.1716 12 23ZM16 19.5C16.8284 19.5 17.5 18.8284 17.5 18C17.5 17.1716 16.8284 16.5 16 16.5C15.1716 16.5 14.5 17.1716 14.5 18C14.5 18.8284 15.1716 19.5 16 19.5ZM17.5 23C17.5 23.8284 16.8284 24.5 16 24.5C15.1716 24.5 14.5 23.8284 14.5 23C14.5 22.1716 15.1716 21.5 16 21.5C16.8284 21.5 17.5 22.1716 17.5 23ZM21.5 19.5C22.3284 19.5 23 18.8284 23 18C23 17.1716 22.3284 16.5 21.5 16.5C20.6716 16.5 20 17.1716 20 18C20 18.8284 20.6716 19.5 21.5 19.5ZM23 23C23 23.8284 22.3284 24.5 21.5 24.5C20.6716 24.5 20 23.8284 20 23C20 22.1716 20.6716 21.5 21.5 21.5C22.3284 21.5 23 22.1716 23 23Z" fill="currentColor"></path></svg>