<svg width="1em" height="1em" viewBox="0 0 32 32" fill="none" xmlns="http://www.w3.org/2000/svg"><path d="M15.932 19.3871C11.3321 19.3871 7.45078 20.1388 7.45078 23.0398C7.45078 25.942 11.3571 26.6672 15.932 26.6672C20.532 26.6672 24.4133 25.9155 24.4133 23.0146C24.4133 20.1124 20.5069 19.3871 15.932 19.3871Z" fill="currentColor"></path><path d="M15.9319 16.6234C19.0467 16.6234 21.5443 14.1114 21.5443 10.9787C21.5443 7.84473 19.0467 5.33398 15.9319 5.33398C12.8171 5.33398 10.3195 7.84473 10.3195 10.9787C10.3195 14.1114 12.8171 16.6234 15.9319 16.6234Z" fill="currentColor"></path><path d="M28.1157 12.2931C28.9216 9.12313 26.5589 6.27617 23.5504 6.27617C23.2232 6.27617 22.9105 6.31219 22.6048 6.37343C22.5642 6.38304 22.5189 6.40345 22.495 6.43947C22.4675 6.4851 22.4878 6.54634 22.5177 6.58596C23.4214 7.86115 23.9408 9.41371 23.9408 11.0803C23.9408 12.6773 23.4644 14.1662 22.6287 15.4018C22.5427 15.5291 22.6192 15.7008 22.7708 15.7272C22.9809 15.7644 23.1958 15.7836 23.4155 15.7896C25.6062 15.8473 27.5725 14.4292 28.1157 12.2931Z" fill="currentColor"></path><path d="M30.4118 19.7562C30.0106 18.8965 29.0424 18.3069 27.5703 18.0175C26.8755 17.847 24.9952 17.6069 23.2462 17.6393C23.2199 17.6429 23.2056 17.6609 23.2032 17.6729C23.1996 17.6897 23.2068 17.7185 23.2414 17.7366C24.0496 18.1388 27.174 19.8883 26.7812 23.5782C26.7645 23.7379 26.8922 23.8759 27.051 23.8519C27.8199 23.7415 29.7981 23.314 30.4118 21.9824C30.7508 21.2787 30.7508 20.461 30.4118 19.7562Z" fill="currentColor"></path><path d="M9.39213 6.37343C9.0877 6.31099 8.77371 6.27617 8.44659 6.27617C5.43803 6.27617 3.07536 9.12313 3.88242 12.2931C4.42444 14.4292 6.39074 15.8473 8.58149 15.7896C8.80117 15.7836 9.01726 15.7632 9.22618 15.7272C9.3778 15.7008 9.45421 15.5291 9.36825 15.4018C8.53254 14.165 8.05619 12.6773 8.05619 11.0803C8.05619 9.41251 8.57672 7.85995 9.48048 6.58596C9.50913 6.54634 9.53062 6.4851 9.50197 6.43947C9.47809 6.40225 9.43392 6.38304 9.39213 6.37343Z" fill="currentColor"></path><path d="M4.42744 18.0173C2.9554 18.3067 1.98836 18.8963 1.58722 19.756C1.24697 20.4608 1.24697 21.2785 1.58722 21.9834C2.20087 23.3138 4.17911 23.7425 4.94797 23.8517C5.10675 23.8757 5.2333 23.7389 5.21659 23.578C4.8238 19.8893 7.94816 18.1398 8.75761 17.7376C8.79103 17.7183 8.7982 17.6907 8.79462 17.6727C8.79223 17.6607 8.7791 17.6427 8.75283 17.6403C7.00262 17.6067 5.12347 17.8468 4.42744 18.0173Z" fill="currentColor"></path></svg>