<svg width="1em" height="1em" viewBox="0 0 32 32" fill="none" xmlns="http://www.w3.org/2000/svg"><path d="M21.474 7.49202C21.4912 7.315 21.5 7.13552 21.5 6.95398C21.5 6.031 21.2726 5.16112 20.8709 4.39728C25.6373 6.32477 29 10.9967 29 16.454C29 17.026 28.963 17.5895 28.8914 18.142C28.2821 17.3355 27.4558 16.702 26.4993 16.3286C26.4555 12.5876 24.4553 9.31689 21.474 7.49202Z" fill="currentColor"></path><path d="M16 29.454C18.8986 29.454 21.5756 28.5053 23.7375 26.9016C22.7035 26.7582 21.7614 26.3273 20.9946 25.6923C19.5092 26.497 17.808 26.954 16 26.954C14.192 26.954 12.4908 26.497 11.0054 25.6923C10.2386 26.3273 9.29645 26.7582 8.26246 26.9016C10.4244 28.5053 13.1014 29.454 16 29.454Z" fill="currentColor"></path><path d="M3.1086 18.142C3.03695 17.5895 3 17.026 3 16.454C3 10.9967 6.36271 6.32477 11.1291 4.39728C10.7274 5.16112 10.5 6.031 10.5 6.95398C10.5 7.13552 10.5088 7.315 10.526 7.49202C7.54473 9.31689 5.54449 12.5876 5.50073 16.3286C4.54421 16.702 3.71786 17.3355 3.1086 18.142Z" fill="currentColor"></path><path fill-rule="evenodd" clip-rule="evenodd" d="M16 9.9541C17.933 9.9541 19.5 8.3871 19.5 6.4541C19.5 4.5211 17.933 2.9541 16 2.9541C14.067 2.9541 12.5 4.5211 12.5 6.4541C12.5 8.3871 14.067 9.9541 16 9.9541ZM16 11.9541C19.0376 11.9541 21.5 9.49167 21.5 6.4541C21.5 3.41654 19.0376 0.954102 16 0.954102C12.9624 0.954102 10.5 3.41654 10.5 6.4541C10.5 9.49167 12.9624 11.9541 16 11.9541Z" fill="currentColor"></path><path fill-rule="evenodd" clip-rule="evenodd" d="M24.5 24.9541C26.433 24.9541 28 23.3871 28 21.4541C28 19.5211 26.433 17.9541 24.5 17.9541C22.567 17.9541 21 19.5211 21 21.4541C21 23.3871 22.567 24.9541 24.5 24.9541ZM24.5 26.9541C27.5376 26.9541 30 24.4917 30 21.4541C30 18.4165 27.5376 15.9541 24.5 15.9541C21.4624 15.9541 19 18.4165 19 21.4541C19 24.4917 21.4624 26.9541 24.5 26.9541Z" fill="currentColor"></path><path fill-rule="evenodd" clip-rule="evenodd" d="M7.5 24.9541C9.433 24.9541 11 23.3871 11 21.4541C11 19.5211 9.433 17.9541 7.5 17.9541C5.567 17.9541 4 19.5211 4 21.4541C4 23.3871 5.567 24.9541 7.5 24.9541ZM7.5 26.9541C10.5376 26.9541 13 24.4917 13 21.4541C13 18.4165 10.5376 15.9541 7.5 15.9541C4.46243 15.9541 2 18.4165 2 21.4541C2 24.4917 4.46243 26.9541 7.5 26.9541Z" fill="currentColor"></path></svg>