<svg xmlns="http://www.w3.org/2000/svg" width="24px" height="24px" fill="none" viewBox="0 0 32 32"><path fill="currentColor" d="M9.17 27.885H4.18V11.581h4.99zM6.549 9.542h-.036c-1.806 0-2.977-1.247-2.977-2.826 0-1.61 1.206-2.83 3.048-2.83 1.84 0 2.973 1.217 3.009 2.826 0 1.58-1.169 2.83-3.044 2.83m22.587 18.343h-5.658v-8.437c0-2.208-.884-3.715-2.831-3.715-1.49 0-2.316 1.017-2.702 1.997-.144.351-.122.842-.122 1.333v8.822h-5.605s.072-14.945 0-16.304h5.605v2.559c.331-1.119 2.122-2.716 4.982-2.716 3.545 0 6.331 2.346 6.331 7.395z"></path></svg>