<svg width="1em" height="1em" viewBox="0 0 32 32" fill="none" xmlns="http://www.w3.org/2000/svg"><path d="M12.1784 27.6971V23.6202C12.1784 22.5794 13.0283 21.7358 14.0766 21.7358H17.9088C18.4123 21.7358 18.8951 21.9343 19.2511 22.2877C19.6071 22.6411 19.8071 23.1204 19.8071 23.6202V27.6971C19.8039 28.1298 19.9748 28.5459 20.2819 28.8529C20.5889 29.16 21.0068 29.3327 21.4426 29.3327H24.0571C25.2782 29.3358 26.4504 28.8565 27.3149 28.0004C28.1795 27.1444 28.6654 25.982 28.6654 24.7698V13.1552C28.6653 12.176 28.2281 11.2471 27.4715 10.6189L18.5774 3.56717C17.0302 2.33076 14.8135 2.37069 13.3126 3.66199L4.62138 10.6189C3.82902 11.2286 3.35543 12.1602 3.33203 13.1552V24.7579C3.33203 27.2845 5.39521 29.3327 7.94026 29.3327H10.4951C11.4003 29.3327 12.136 28.6076 12.1426 27.709L12.1784 27.6971Z" fill="currentColor"></path></svg>