<svg width="1em" height="1em" viewBox="0 0 32 32" fill="none" xmlns="http://www.w3.org/2000/svg"><path d="M24 16.5C24 17.8807 22.8807 19 21.5 19C20.1193 19 19 17.8807 19 16.5C19 15.1193 20.1193 14 21.5 14C22.8807 14 24 15.1193 24 16.5Z" fill="currentColor"></path><path fill-rule="evenodd" clip-rule="evenodd" d="M7.75326 6.088L7.8615 5.76929C8.41252 4.14692 9.93562 3.05566 11.649 3.05566H20.1611C21.6653 3.05566 23.0424 3.89958 23.7252 5.23991L24.1791 6.1309C25.2933 6.47088 26.2258 7.28845 26.6954 8.39718L27.2499 9.70661C29.047 10.3094 30.2463 12.1493 29.9234 14.1403L27.8964 26.6403C27.5823 28.577 25.9099 30 23.948 30H8.05336C6.09137 30 4.419 28.577 4.10494 26.6403L2.07791 14.1403C1.75954 12.177 2.92126 10.3605 4.67682 9.73247L4.92026 8.87021C5.31186 7.48315 6.40706 6.44158 7.75326 6.088ZM9.97762 5.95703C10.3413 5.40367 10.9648 5.05566 11.649 5.05566H20.1611C20.8391 5.05566 21.4654 5.39855 21.8324 5.95703H9.97762ZM8.76978 7.95703C7.87449 7.95703 7.08827 8.55201 6.84502 9.41362L6.82063 9.5H24.9904L24.8537 9.1771C24.5405 8.43751 23.8152 7.95703 23.012 7.95703H8.76978ZM6.02633 11.5C4.794 11.5 3.85486 12.6037 4.05212 13.8201L4.93085 19.239L5.72634 18.7418C7.12796 17.8658 8.92404 17.9421 10.2463 18.9338L15.3432 22.7565C15.8682 23.1502 16.5531 23.2614 17.1757 23.0538L18.7925 22.5149C19.9635 22.1245 21.2492 22.2967 22.2762 22.9814L26.0551 25.5006L27.9492 13.8201C28.1465 12.6037 27.2073 11.5 25.975 11.5H6.02633ZM25.3451 27.4311L21.1668 24.6455C20.6533 24.3032 20.0105 24.2171 19.425 24.4122L17.8081 24.9512C16.5629 25.3663 15.1933 25.144 14.1432 24.3565L9.04633 20.5338C8.38519 20.0379 7.48715 19.9998 6.78634 20.4378L5.27812 21.3804L6.07915 26.3201C6.23618 27.2885 7.07236 28 8.05336 28H23.948C24.4869 28 24.9822 27.7852 25.3451 27.4311Z" fill="currentColor"></path></svg>