<svg width="46" height="46" viewBox="0 0 46 46" fill="none" xmlns="http://www.w3.org/2000/svg"><path d="M21.0469 11.1278L21.1201 11.0546C21.5597 10.615 22.0724 10.3953 22.6585 10.3953H23.9771C24.4166 10.3953 24.7096 10.6883 24.7096 11.0546V14.7173C24.7096 15.1568 24.4166 15.5231 23.9771 15.5231H21.7794C21.3399 15.5231 21.0469 15.1568 21.0469 14.7173V6.65929C21.0469 6.21976 21.3399 6 21.7794 6H23.9771C24.4166 6 24.7096 6.29301 24.7096 6.65929V8.19764" stroke="#404145" stroke-width="1.5" stroke-miterlimit="10"/><path d="M32.032 14.058C32.032 14.8638 31.3727 15.5231 30.5669 15.5231H29.1018C28.296 15.5231 27.6367 14.8638 27.6367 14.058V7.46509C27.6367 6.65929 28.296 6 29.1018 6H30.5669C31.3727 6 32.032 6.65929 32.032 7.46509V14.058Z" stroke="#404145" stroke-width="1.5" stroke-miterlimit="10"/><path d="M15.1836 10.3955H18.1138" stroke="#404145" stroke-width="1.5" stroke-miterlimit="10"/><path d="M14.4521 14.0582V14.7175C14.4521 15.157 14.7452 15.5233 15.1847 15.5233H17.3823C17.8219 15.5233 18.1149 15.157 18.1149 14.7175V6.65944C18.1149 6.21991 17.8219 6.00015 17.3823 6.00015H15.1847C14.7452 6.00015 14.4521 6.29317 14.4521 6.65944V7.46525" stroke="#404145" stroke-width="1.5" stroke-miterlimit="10"/><path d="M2 13.9853C2 16.1096 5.14995 17.941 10.058 19.1863V8.85743C5.14995 10.0295 2 11.8609 2 13.9853ZM36.4297 8.78418V19.1131C41.3378 17.941 44.4877 16.0364 44.4877 13.912C44.4877 11.8609 41.3378 10.0295 36.4297 8.78418Z" stroke="#404145" stroke-width="1.5" stroke-miterlimit="10"/><path d="M30.5664 25.0459H32.0315" stroke="#404145" stroke-width="1.5" stroke-miterlimit="10"/><path d="M29.8344 27.9763C31.0481 27.9763 32.032 26.9924 32.032 25.7787C32.032 24.565 31.0481 23.5811 29.8344 23.5811C28.6206 23.5811 27.6367 24.565 27.6367 25.7787C27.6367 26.9924 28.6206 27.9763 29.8344 27.9763Z" fill="#A6EACA" stroke="#404145" stroke-width="1.5" stroke-miterlimit="10"/><path d="M26.9053 30.9067L24.7077 33.1044L26.9053 36.0346L18.8473 27.9766L9.32422 37.4997V38.0857C13.0602 39.1113 17.895 39.6973 23.2426 39.6973C27.4181 39.6973 31.3739 39.331 34.6703 38.6718L26.9053 30.9067Z" fill="#A6EACA"/><path d="M34.6703 38.745L26.9053 30.98L24.7077 33.1044L26.9053 36.0346L18.8473 27.9766L9.32422 37.4997V38.2322" stroke="#404145" stroke-width="1.5" stroke-miterlimit="10"/><path d="M2 14.0586C2 17.7213 11.5231 20.6515 23.2439 20.6515C34.9646 20.6515 44.4877 17.7213 44.4877 14.0586V33.1048C44.4877 36.7675 34.9646 39.6977 23.2439 39.6977C11.5231 39.6977 2 36.7675 2 33.1048V14.0586V14.0586Z" stroke="#404145" stroke-width="1.5" stroke-miterlimit="10"/><path d="M36.4297 21.3838V27.9035C39.3599 28.636 41.6308 29.5883 43.0226 30.6871" stroke="#C5C6C9" stroke-width="1.5" stroke-miterlimit="10"/><path d="M3.24658 30.9067C4.56517 29.7347 6.98257 28.7091 10.0593 27.9033V21.3836" stroke="#C5C6C9" stroke-width="1.5" stroke-miterlimit="10"/></svg>