<svg width="47" height="48" viewBox="0 0 47 48" fill="none" xmlns="http://www.w3.org/2000/svg"><path d="M10.5 17V14" stroke="#404145" stroke-width="1.5" stroke-miterlimit="10"/><path d="M36.5 20C36.5 20 33.5 23.75 33.5 28H29.5V27C29.5 21.48 25 5 23.5 5C22 5 17.5 21.48 17.5 27V27.14C17.5 27.14 17.5 27.35 17.5 27.96V28H13.5C13.5 23.75 10.5 20 10.5 20C10.5 20 7.5 22.28 7.5 30C7.5 34.08 8.29 36.08 10.5 39C11.71 37.62 13.5 34.75 13.5 33H19.5C19.5 33 20.28 35.3 20.71 35.97H26.28C26.72 35.3 27.5 33 27.5 33H33.5C33.5 34.75 35.29 37.62 36.5 39C38.71 36.08 39.5 34.08 39.5 30C39.5 22.28 36.5 20 36.5 20Z" fill="#A6EACA" stroke="#404145" stroke-width="1.5" stroke-miterlimit="10"/><path d="M10.5 10V7" stroke="#404145" stroke-width="1.5" stroke-miterlimit="10"/><path d="M10.5 3V0" stroke="#404145" stroke-width="1.5" stroke-miterlimit="10"/><path d="M36.5 17V14" stroke="#404145" stroke-width="1.5" stroke-miterlimit="10"/><path d="M36.5 10V7" stroke="#404145" stroke-width="1.5" stroke-miterlimit="10"/><path d="M36.5 3V0" stroke="#404145" stroke-width="1.5" stroke-miterlimit="10"/><path d="M25.5 26.59C25.5 30.23 24.6 32 23.5 32C22.4 32 21.5 30.23 21.5 26.59C21.5 22.95 22.4 20 23.5 20C24.6 20 25.5 22.95 25.5 26.59Z" fill="white" stroke="#404145" stroke-width="1.5" stroke-miterlimit="10"/><path d="M26.5 39L23.48 46L20.46 39" stroke="#404145" stroke-width="1.5" stroke-miterlimit="10"/></svg>