<svg width="48" height="46" viewBox="0 0 48 46" fill="none" xmlns="http://www.w3.org/2000/svg"><path d="M37 36H47V2H1V36H9" stroke="#404145" stroke-width="1.5" stroke-miterlimit="10" stroke-linecap="round" stroke-linejoin="round"/><path d="M30.0017 33H32.0017C33.4117 33 33.7417 34.03 33.5117 35.31C33.5117 35.31 32.9417 41.78 32.7517 42.42C32.5617 43.06 32.1817 44 31.2417 44C31.2417 44 24.0817 44 23.6717 44C21.6017 44 21.4817 42 20.0117 42H18.0117" stroke="#404145" stroke-width="1.5" stroke-miterlimit="10" stroke-linecap="round"/><path d="M22.9117 37.4801C24.8617 37.4801 26.2517 36.1801 26.6117 34.6001C26.7417 34.0101 26.9117 33.43 27.1917 32.9C27.3617 32.57 27.5317 32.2401 27.5917 32.0701C27.6817 31.7901 28.0317 31.2301 28.0317 29.9201C28.0317 28.5901 27.8717 27.95 27.0817 27.27C26.3317 26.63 25.1917 26.9201 25.1917 27.6301V28.3901C25.1917 29.9801 24.0117 30.4101 22.8117 31.6001C22.8117 31.6001 21.5317 33 20.0117 33H18.0117" stroke="#404145" stroke-width="1.5" stroke-miterlimit="10" stroke-linecap="round"/><path d="M18 31H13V44H18V31Z" fill="#A6EACA" stroke="#404145" stroke-width="1.5" stroke-miterlimit="10"/><path d="M25.7586 23.1099L22.0586 19.6899L28.3686 18.9499L31.0286 13.1699L33.6886 18.9499L39.9986 19.6899L35.3286 23.9999L36.5686 30.2399L31.6886 27.4999" fill="#A6EACA"/><path d="M25.7586 23.1099L22.0586 19.6899L28.3686 18.9499L31.0286 13.1699L33.6886 18.9499L39.9986 19.6899L35.3286 23.9999L36.5686 30.2399L31.6886 27.4999" stroke="#404145" stroke-width="1.5" stroke-miterlimit="10" stroke-linecap="round" stroke-linejoin="round"/><path d="M24.2598 16.3C23.7998 14.61 22.4198 13.22 20.5698 13.02C18.5898 12.81 16.4598 13.9 15.7098 15.54C14.9598 13.9 12.8298 12.81 10.8498 13.02C8.23985 13.3 6.55985 15.94 7.08985 18.48C7.80985 21.93 11.7598 23.48 15.7098 27.39C17.2998 25.82 18.8898 24.63 20.2698 23.54" fill="#A6EACA"/><path d="M24.2598 16.3C23.7998 14.61 22.4198 13.22 20.5698 13.02C18.5898 12.81 16.4598 13.9 15.7098 15.54C14.9598 13.9 12.8298 12.81 10.8498 13.02C8.23985 13.3 6.55985 15.94 7.08985 18.48C7.80985 21.93 11.7598 23.48 15.7098 27.39C17.2998 25.82 18.8898 24.63 20.2698 23.54" stroke="#404145" stroke-width="1.5" stroke-linecap="round" stroke-linejoin="round"/><path d="M1 8H47" stroke="#404145" stroke-width="1.5" stroke-miterlimit="10" stroke-linecap="round"/><path d="M4 5H6" stroke="#404145" stroke-width="1.5" stroke-miterlimit="10"/><path d="M7 5H9" stroke="#404145" stroke-width="1.5" stroke-miterlimit="10"/></svg>