<svg width="46" height="48" viewBox="0 0 46 48" fill="none" xmlns="http://www.w3.org/2000/svg"><path d="M36 19V13.29C36 7.38999 30.08 1 22.5 1C14.92 1 9 7.38999 9 13.29V16" stroke="#404145" stroke-width="1.5" stroke-miterlimit="10"/><path d="M31.9983 20V22.04C31.9983 24.93 30.8183 28.05 27.9883 29.94" stroke="#404145" stroke-width="1.5" stroke-miterlimit="10"/><path d="M17 7C17 12.61 28.34 20 34 20" stroke="#404145" stroke-width="1.5" stroke-miterlimit="10"/><path d="M17 12C14.6 13 12 15.64 12 19V22C12.02 25.52 14.61 29.04 18.69 30.85" stroke="#404145" stroke-width="1.5" stroke-miterlimit="10"/><path d="M25 34H26.03C31.54 34 35.98 30.17 35.98 24.94" stroke="#404145" stroke-width="1.5" stroke-miterlimit="10"/><path d="M16 29V37" stroke="#404145" stroke-width="1.5" stroke-miterlimit="10"/><path d="M15.9976 35.9996L12.9995 38.9977L19.9998 45.998L22.9979 42.9999L15.9976 35.9996Z" stroke="#404145" stroke-width="1.5" stroke-miterlimit="10"/><path d="M29.9996 35.9996L22.9993 42.9999L25.9974 45.998L32.9977 38.9977L29.9996 35.9996Z" stroke="#404145" stroke-width="1.5" stroke-miterlimit="10"/><path d="M13 39L7.32 40.26C5.26 40.72 3.6 42.22 2.93 44.22L2 47" stroke="#404145" stroke-width="1.5" stroke-miterlimit="10"/><path d="M26 34C26 35.1 25.1 36 24 36H23C21.9 36 21 35.1 21 34C21 32.9 21.9 32 23 32H24C25.1 32 26 32.9 26 34Z" fill="#A6EACA" stroke="#404145" stroke-width="1.5" stroke-miterlimit="10"/><path d="M33 39L38.68 40.26C40.74 40.72 42.4 42.22 43.07 44.22L44 47" stroke="#404145" stroke-width="1.5" stroke-miterlimit="10"/><path d="M38 16H36V25H38C39.1 25 40 24.1 40 23V18C40 16.9 39.1 16 38 16Z" fill="#A6EACA" stroke="#404145" stroke-width="1.5" stroke-miterlimit="10"/><path d="M7 16H9V25H7C5.9 25 5 24.1 5 23V18C5 16.9 5.9 16 7 16Z" fill="#A6EACA" stroke="#404145" stroke-width="1.5" stroke-miterlimit="10"/></svg>