<?xml version="1.0" encoding="UTF-8"?><svg id="Layer_1" xmlns="http://www.w3.org/2000/svg" viewBox="0 0 46 46"><defs><style>.cls-1{fill:none;}.cls-1,.cls-2{stroke:#404145;stroke-miterlimit:10;stroke-width:1.5px;}.cls-2{fill:#a6eaca;}</style></defs><path class="cls-1" d="M13.78,40.91l-5.67-3.27c-.06-.03-.13,0-.13,.08v6.54c0,.07,.07,.11,.13,.08l5.67-3.27c.06-.03,.06-.12,0-.16Z"/><g><line class="cls-1" x1="16.79" y1="40.98" x2="28.59" y2="40.98"/><line class="cls-1" x1="31.35" y1="40.98" x2="38.55" y2="40.98"/><line class="cls-1" x1="28.59" y1="38.6" x2="28.59" y2="43.37"/></g><path class="cls-2" d="M7.45,13.89v18.93c0,.39,.32,.71,.71,.71h9.1c0-.75-.4-1.43-1.03-1.83-3.49-2.21-4.3-6.06-4.48-8.02-.07-.71,.37-1.36,1.05-1.57l.12-.04c.92-.29,1.83,.34,1.96,1.28,.08,.6,.21,1.14,.38,1.63,.58,1.66,2.07,2.72,3.74,2.93h7.99c1.67-.21,3.16-1.28,3.74-2.93,.17-.49,.31-1.03,.38-1.63,.12-.94,1.03-1.57,1.94-1.29l.14,.04c.68,.21,1.12,.86,1.05,1.57-.18,1.96-.99,5.81-4.48,8.02-.63,.4-1.03,1.08-1.03,1.83h9.1c.39,0,.71-.32,.71-.71V13.89c0-.39-.32-.71-.71-.71H8.16c-.39,0-.71,.32-.71,.71Zm18.69,7.71c0,1.73-1.4,3.14-3.14,3.14s-3.14-1.4-3.14-3.14v-1.7c0-1.73,1.4-3.14,3.14-3.14s3.14,1.4,3.14,3.14v1.7Z"/><g><g><line class="cls-1" x1="3.92" y1="4.79" x2="5.49" y2="4.79"/><line class="cls-1" x1="7.06" y1="4.79" x2="8.63" y2="4.79"/><line class="cls-1" x1="10.21" y1="4.79" x2="11.78" y2="4.79"/></g><path class="cls-1" d="M44.63,35.38V2.65c0-.55-.45-1-1-1H2.37c-.55,0-1,.45-1,1V35.38"/><line class="cls-1" x1="1.37" y1="8.13" x2="44.63" y2="8.13"/></g><line class="cls-1" x1="17.26" y1="33.54" x2="26.14" y2="33.54"/></svg>