<svg width="46" height="46" viewBox="0 0 46 46" fill="none" xmlns="http://www.w3.org/2000/svg"><path d="M25.5323 46.0001C36.119 46.0001 44.7012 37.4178 44.7012 26.8311C44.7012 16.2444 36.119 7.66211 25.5323 7.66211C14.9455 7.66211 6.36328 16.2444 6.36328 26.8311C6.36328 37.4178 14.9455 46.0001 25.5323 46.0001Z" fill="#E4E5E7"/><path d="M17.1023 33.2046C25.9953 33.2046 33.2046 25.9953 33.2046 17.1023C33.2046 8.20924 25.9953 1 17.1023 1C8.20924 1 1 8.20924 1 17.1023C1 25.9953 8.20924 33.2046 17.1023 33.2046Z" fill="white" stroke="#404145" stroke-width="1.5" stroke-miterlimit="10" stroke-linecap="round"/><path d="M29.4398 33.5183L39.4817 43.5602C40.0681 44.1466 40.9476 44.1466 41.534 43.5602L42.5602 42.534C43.1466 41.9476 43.1466 41.0681 42.5602 40.4817L32.5183 30.4398C31.9319 29.8534 31.0524 29.8534 30.466 30.4398L29.4398 31.466C28.8534 32.0524 28.8534 32.9319 29.4398 33.5183Z" fill="#A6EACA" stroke="#404145" stroke-width="1.5" stroke-miterlimit="10" stroke-linecap="round" stroke-linejoin="round"/><path d="M29.7533 30.5209L28.0664 28.834" stroke="#404145" stroke-width="1.5" stroke-miterlimit="10" stroke-linecap="round"/><path d="M38.5698 21.7031V23.2367" stroke="#C5C6C9" stroke-width="1.5" stroke-miterlimit="10"/><path d="M38.5698 24.7703V26.3038" stroke="#C5C6C9" stroke-width="1.5" stroke-miterlimit="10"/><path d="M37.8031 24.0034H36.2695" stroke="#C5C6C9" stroke-width="1.5" stroke-miterlimit="10"/><path d="M40.8702 24.0034H39.3367" stroke="#C5C6C9" stroke-width="1.5" stroke-miterlimit="10"/><path d="M42.937 28.6035V30.1371" stroke="#C5C6C9" stroke-width="1.5" stroke-miterlimit="10"/><path d="M42.937 31.6707V33.2042" stroke="#C5C6C9" stroke-width="1.5" stroke-miterlimit="10"/><path d="M42.1703 30.9038H40.6367" stroke="#C5C6C9" stroke-width="1.5" stroke-miterlimit="10"/><path d="M45.2374 30.9038H43.7039" stroke="#C5C6C9" stroke-width="1.5" stroke-miterlimit="10"/><path d="M19.4019 36.2715V37.805" stroke="#C5C6C9" stroke-width="1.5" stroke-miterlimit="10"/><path d="M19.4019 39.3386V40.8722" stroke="#C5C6C9" stroke-width="1.5" stroke-miterlimit="10"/><path d="M18.6351 38.5718H17.1016" stroke="#C5C6C9" stroke-width="1.5" stroke-miterlimit="10"/><path d="M21.7023 38.5718H20.1687" stroke="#C5C6C9" stroke-width="1.5" stroke-miterlimit="10"/><path d="M5.86719 12.1521C7.23981 8.75665 10.0573 6.08365 13.5972 5" stroke="#404145" stroke-width="1.5" stroke-miterlimit="10" stroke-linecap="round"/><path d="M5 16.7035C5 16.0533 5.07224 15.4031 5.14448 14.7529" stroke="#404145" stroke-width="1.5" stroke-miterlimit="10" stroke-linecap="round"/></svg>