<svg width="64" height="65" viewBox="0 0 64 65" fill="none" xmlns="http://www.w3.org/2000/svg"><path d="M9.01547 10.9923C10.129 10.9923 11.0316 10.1039 11.0316 9.00809C11.0316 7.91227 10.129 7.02393 9.01547 7.02393C7.90197 7.02393 6.9993 7.91227 6.9993 9.00809C6.9993 10.1039 7.90197 10.9923 9.01547 10.9923Z" stroke="#404145" stroke-width="1.6" stroke-miterlimit="10"/><path d="M9.01525 57.0247C10.1288 57.0247 11.0314 56.1364 11.0314 55.0406C11.0314 53.9447 10.1288 53.0564 9.01525 53.0564C7.90175 53.0564 6.99908 53.9447 6.99908 55.0406C6.99908 56.1364 7.90175 57.0247 9.01525 57.0247Z" stroke="#404145" stroke-width="1.6" stroke-miterlimit="10"/><path d="M54.9836 10.9923C56.0971 10.9923 56.9998 10.1039 56.9998 9.00809C56.9998 7.91227 56.0971 7.02393 54.9836 7.02393C53.8701 7.02393 52.9674 7.91227 52.9674 9.00809C52.9674 10.1039 53.8701 10.9923 54.9836 10.9923Z" stroke="#404145" stroke-width="1.6" stroke-miterlimit="10"/><path d="M54.9836 57.0247C56.0971 57.0247 56.9998 56.1364 56.9998 55.0406C56.9998 53.9447 56.0971 53.0564 54.9836 53.0564C53.8701 53.0564 52.9674 53.9447 52.9674 55.0406C52.9674 56.1364 53.8701 57.0247 54.9836 57.0247Z" stroke="#404145" stroke-width="1.6" stroke-miterlimit="10"/><path d="M11.0317 9.40527H52.5648" stroke="#404145" stroke-width="1.6" stroke-miterlimit="10" stroke-linecap="round" stroke-linejoin="round"/><path d="M11.435 54.6433H52.9681" stroke="#404145" stroke-width="1.6" stroke-miterlimit="10" stroke-linecap="round" stroke-linejoin="round"/><path d="M55.1854 11.5873L55.1854 52.4611" stroke="#404145" stroke-width="1.6" stroke-miterlimit="10" stroke-linecap="round" stroke-linejoin="round"/><path d="M9.21703 11.5873L9.21702 52.4611" stroke="#404145" stroke-width="1.6" stroke-miterlimit="10" stroke-linecap="round" stroke-linejoin="round"/><path d="M36.3292 17.6012H24.4239L20.0947 33.8357H28.7531L26.5885 46.8232L43.9053 27.3419H34.1646L36.3292 17.6012Z" stroke="#404145" stroke-width="1.5" stroke-linecap="round" stroke-linejoin="round"/></svg>