<svg width="40" height="40" viewBox="0 0 40 40" fill="none" xmlns="http://www.w3.org/2000/svg"><g style="mix-blend-mode:darken"><path d="M29.8966 34.6248C30.3029 34.6248 30.6353 34.3257 30.6353 33.9601V14.0173C30.6353 13.6517 30.3029 13.3525 29.8966 13.3525H4.78354C4.3773 13.3525 4.04492 13.6517 4.04492 14.0173V33.9601C4.04492 34.3257 4.3773 34.6248 4.78354 34.6248H29.8966Z" stroke="#222325" stroke-width="1.6" stroke-miterlimit="10" stroke-linejoin="round"/><path d="M35.215 26.6473C35.6212 26.6473 35.9536 26.3481 35.9536 25.9825V6.03976C35.9536 5.67414 35.6212 5.375 35.215 5.375H10.1019C9.69566 5.375 9.36328 5.67414 9.36328 6.03976V25.9825C9.36328 26.3481 9.69566 26.6473 10.1019 26.6473H35.215Z" fill="white" stroke="#222325" stroke-width="1.6" stroke-miterlimit="10" stroke-linejoin="round"/><path d="M18.668 12.0225L26.6451 16.011L18.668 19.9996V12.0225Z" fill="#222325" stroke="#212121" stroke-linecap="round" stroke-linejoin="round"/></g></svg>