<svg xmlns="http://www.w3.org/2000/svg" width="191" height="26" fill="none" data-track-tag="fiverr_logo_maker_logo"><g fill="#000" clip-path="url(#fiverr_logo_maker_svg__a)"><path d="M63.223 6.368h-1.517c-1.543 0-2.581.476-3.338 2.13v-2.13h-5.663c-1.543 0-2.58.476-3.338 2.13v-2.13H44.74v14.024h4.625v-7.097c0-1.963.841-3.141 2.412-3.141h1.964v10.238h4.63v-7.097c0-1.963.842-3.141 2.413-3.141h2.44zM21.57 20.392h4.067l5.077-14.024h-4.656L23.59 14.53l-2.525-8.162h-4.629zM2.608 20.392h4.603V10.154h4.376v10.238h4.567V6.368H7.211v-.87c0-.954.67-1.546 1.737-1.546h2.635V.168H8.185c-3.332 0-5.577 2.05-5.577 5.05v1.15H0v3.786h2.608zM43.785 13.1c0-2.946-1.77-6.93-7.097-6.93-5.02 0-7.04 3.928-7.04 7.211 0 3.338 2.3 7.237 7.321 7.237 2.973 0 5.47-1.487 6.48-3.927l-4.096-1.15c-.28.901-1.15 1.403-2.384 1.403-1.655 0-2.634-.902-2.889-2.469h9.65c.027-.31.055-.73.055-1.376m-9.706-1.347c.277-1.683 1.15-2.329 2.608-2.329 1.571 0 2.44 1.123 2.553 2.329zM67.599 0h2.684v20.354H67.6zM71.539 13.381c0-4.178 3.017-7.195 7.196-7.195s7.168 3.015 7.168 7.195c0 4.181-2.99 7.196-7.169 7.196-4.18 0-7.195-3.018-7.195-7.196m11.624 0c0-2.85-1.798-4.843-4.428-4.843-2.657 0-4.456 1.993-4.456 4.843s1.803 4.844 4.456 4.844c2.63-.002 4.428-1.995 4.428-4.844M99.522 21.627c0 2.519-1.577 4.373-4.317 4.373h-4.318c-2.878 0-4.428-1.688-4.428-4.124 0-1.162.637-2.186 1.466-2.85-.693-.499-1.079-1.218-1.079-2.16 0-1.161.693-1.936 1.688-2.933-.609-.803-.94-1.802-.94-2.934 0-2.906 2.27-4.815 5.368-4.815.755 0 1.505.13 2.215.387l1.91-2.186 1.715 1.522-1.688 1.94a4.66 4.66 0 0 1 1.218 3.155c0 2.935-2.27 4.816-5.37 4.816-1.024 0-1.937-.193-2.712-.554-.555.609-.802.913-.802 1.411 0 .802.693 1.11 1.55 1.11h3.875c2.684-.005 4.649 1.268 4.649 3.842m-2.63.194c0-1.329-.831-1.882-2.241-1.882h-3.238A7.7 7.7 0 0 1 90 19.828c-.72.555-.94 1.248-.94 1.966 0 1.109.802 1.965 1.909 1.965h4.124c1.328 0 1.799-.831 1.799-1.938M90.169 11c0 1.664 1.273 2.657 2.794 2.657s2.796-.996 2.796-2.657c0-1.688-1.273-2.685-2.796-2.685s-2.794.997-2.794 2.685M99.599 13.381c0-4.178 3.017-7.195 7.196-7.195s7.168 3.015 7.168 7.195c0 4.181-2.989 7.196-7.168 7.196s-7.196-3.018-7.196-7.196m11.624 0c0-2.85-1.802-4.843-4.428-4.843-2.658 0-4.456 1.993-4.456 4.843s1.798 4.844 4.456 4.844c2.629-.002 4.428-1.995 4.428-4.844M118.533 6.405h2.685v2.49c.581-1.577 2.075-2.711 4.123-2.711 2.27 0 3.958 1.023 4.512 2.85.554-1.577 2.38-2.85 4.539-2.85 3.016 0 4.898 2.075 4.898 5.314v8.856h-2.684v-8.112c0-2.214-1.11-3.708-2.962-3.708-2.131 0-3.404 1.494-3.404 3.708v8.112h-2.684v-8.112c0-2.214-1.11-3.708-2.934-3.708-2.131 0-3.404 1.494-3.404 3.708v8.112h-2.685zM152.366 11.248v9.106h-2.574v-2.27c-.664 1.495-2.436 2.491-4.539 2.491-2.795 0-4.732-1.771-4.732-4.178 0-2.824 1.826-4.484 5.424-4.484h3.017c.525 0 .832-.277.832-.775v-.056c0-1.664-1.494-2.74-3.432-2.74S143.069 9.56 142.958 11h-2.463c.249-2.74 2.657-4.815 5.839-4.815 3.486 0 6.032 2.02 6.032 5.064m-2.574 2.99v-.416h-3.598c-2.103 0-3.016.913-3.016 2.49 0 1.249 1.109 2.131 2.573 2.131 2.55 0 4.041-1.632 4.041-4.205M158.285 13.684l-1.744 1.605v5.062h-2.712V0h2.712v11.94l6.145-5.535h3.404l-5.868 5.451 6.393 8.497h-3.321zM185.952 8.73c-2.546 0-3.376 2.269-3.376 5.313v6.31h-2.685V6.405h2.685v2.684c.636-1.854 1.743-2.684 3.708-2.684h1.689V8.73z"></path><path d="M176.217 15.815c-.387 1.577-1.716 2.463-3.764 2.463-2.435 0-4.151-1.799-4.373-4.428h10.658c.028-.249.055-.693.055-1.052 0-3.542-2.297-6.614-6.614-6.614-4.291 0-6.726 3.21-6.726 7.113 0 3.874 2.685 7.28 7.003 7.28 3.142 0 5.517-1.578 6.279-4.054l-2.515-.707zm-4.04-7.473c2.296 0 3.736 1.412 3.902 3.543h-7.915c.414-2.325 1.826-3.543 4.013-3.543M190.25 18.824v.035a1.735 1.735 0 0 1-1.736 1.736 1.74 1.74 0 0 1-1.741-1.736v-.033a1.727 1.727 0 0 1 1.074-1.609 1.74 1.74 0 0 1 2.403 1.607"></path></g><defs><clipPath id="fiverr_logo_maker_svg__a"><path fill="#fff" d="M0 0h190.251v26H0z"></path></clipPath></defs></svg>