<svg width="72" height="72" viewBox="0 0 72 72" fill="none" xmlns="http://www.w3.org/2000/svg"><path d="M54.4164 15.0813L17.307 15.01C14.4228 15.0045 12.0802 17.3382 12.0746 20.2225L12.0141 51.7472C12.0086 54.6314 14.3422 56.974 17.2264 56.9796L54.3358 57.0508C57.22 57.0564 59.5626 54.7227 59.5682 51.8385L59.6287 20.3138C59.6342 17.4295 57.3006 15.0868 54.4164 15.0813Z" stroke="#222325" stroke-width="1.5" stroke-miterlimit="10"/><path d="M12 40.4452C14.0108 37.2241 19.5 30.2291 26.9905 32.421C34.4809 34.6129 32.6036 44.2666 39.6843 45.4102C46.4028 46.4871 50.4436 34.2412 59.5637 33.0214" stroke="#222325" stroke-width="1.5" stroke-miterlimit="10"/><path d="M43.3439 33.1244C46.5176 33.1244 49.0904 30.5516 49.0904 27.3779C49.0904 24.2042 46.5176 21.6313 43.3439 21.6313C40.1702 21.6313 37.5974 24.2042 37.5974 27.3779C37.5974 30.5516 40.1702 33.1244 43.3439 33.1244Z" fill="#222325"/><path d="M12.0269 50.4609L60.0002 50.553L59.9948 53.412C59.9938 53.8951 59.8976 54.3732 59.7119 54.8192C59.5262 55.2651 59.2545 55.6701 58.9123 56.011C58.5701 56.3519 58.1641 56.6221 57.7175 56.8061C57.2708 56.9901 56.7921 57.0844 56.3091 57.0834L15.693 57.0055C14.7174 57.0036 13.7824 56.6142 13.0939 55.923C12.4054 55.2318 12.0196 54.2955 12.0214 53.3199L12.0269 50.4609Z" fill="#222325"/></svg>