<svg width="64" height="65" viewBox="0 0 64 65" fill="none" xmlns="http://www.w3.org/2000/svg"><path d="M36.6432 24.0006L52.7744 6.05469" stroke="#222325" stroke-width="1.5" stroke-linejoin="bevel"/><path d="M1 63.25L31 31.25" stroke="#222325" stroke-width="1.5" stroke-linejoin="bevel"/><path d="M59.5081 21.3681L38.3123 27.1644" stroke="#222325" stroke-width="1.5" stroke-linejoin="bevel"/><path d="M44.7525 29.1518L53.3011 30.0302" stroke="#222325" stroke-width="1.5" stroke-linejoin="bevel"/><path d="M38.3705 29.8272L55.7602 44.9045" stroke="#222325" stroke-width="1.5" stroke-linejoin="bevel"/><path d="M42.7812 54.4082L43.7733 58.0438" stroke="#222325" stroke-width="1.5" stroke-linejoin="bevel"/><path d="M36.957 33.25L41.256 50.4365" stroke="#222325" stroke-width="1.5" stroke-linejoin="bevel"/><path d="M34.5059 48.0371L34.6814 56.0294" stroke="#222325" stroke-width="1.5" stroke-linejoin="bevel"/><path d="M32.8516 33.416L26.3813 54.3482" stroke="#222325" stroke-width="1.5" stroke-linejoin="bevel"/><path d="M14.6455 35.9766L9.10563 38.1707" stroke="#222325" stroke-width="1.5" stroke-linejoin="bevel"/><path d="M26.9381 31.1438L16.8964 35.0959" stroke="#222325" stroke-width="1.5" stroke-linejoin="bevel"/><path d="M27.6551 27.3987L8.39159 24.0903" stroke="#222325" stroke-width="1.5" stroke-linejoin="bevel"/><path d="M31.8713 25.1735L14.5402 12.7604" stroke="#222325" stroke-width="1.5" stroke-linejoin="bevel"/><path d="M32.7041 8.73458L32.3262 1.20703" stroke="#222325" stroke-width="1.5" stroke-linejoin="bevel"/><path d="M33.4226 23.0079L33.2471 15.0156" stroke="#222325" stroke-width="1.5" stroke-linejoin="bevel"/><path d="M53.2285 14.5742L51.1792 18.3508" stroke="#222325" stroke-width="1.5" stroke-linejoin="bevel"/><path d="M54.0915 17.4899L50.315 15.4406" stroke="#222325" stroke-width="1.5" stroke-linejoin="bevel"/><path d="M23.7002 44.7949L23.9394 49.085" stroke="#222325" stroke-width="1.5" stroke-linejoin="bevel"/><path d="M25.9572 47.1587L21.6829 46.7195" stroke="#222325" stroke-width="1.5" stroke-linejoin="bevel"/><path d="M25.1074 8.5293L24.6682 12.8036" stroke="#222325" stroke-width="1.5" stroke-linejoin="bevel"/><path d="M27.3025 11.4138L22.472 9.92064" stroke="#222325" stroke-width="1.5" stroke-linejoin="bevel"/><path d="M40.7868 6.31795C41.2318 7.1611 42.3589 7.5095 43.202 7.06451C44.0452 6.61953 44.4492 5.59781 43.9486 4.64927C43.5036 3.80612 42.3765 3.45772 41.5334 3.9027C40.6902 4.34768 40.3418 5.4748 40.7868 6.31795Z" fill="#1DBF73" stroke="#1DBF73" stroke-width="1.5" stroke-miterlimit="10"/><path d="M47.6073 49.8826C48.0529 50.7269 49.1805 51.0763 50.0236 50.6313C50.8668 50.1863 51.2147 49.0582 50.7691 48.2139C50.3235 47.3696 49.3012 46.9646 48.4581 47.4096C47.5095 47.9102 47.106 48.9328 47.6073 49.8826Z" fill="#1DBF73" stroke="#1DBF73" stroke-width="1.5" stroke-miterlimit="10"/><path d="M8.84636 32.607C9.29134 33.4502 10.4185 33.7986 11.2616 33.3536C12.1048 32.9086 12.4532 31.7815 12.0082 30.9383C11.5632 30.0952 10.4361 29.7468 9.59292 30.1918C8.74977 30.6367 8.40138 31.7639 8.84636 32.607Z" fill="#1DBF73" stroke="#1DBF73" stroke-width="1.5" stroke-miterlimit="10"/></svg>