<svg width="64" height="65" viewBox="0 0 64 65" fill="none" xmlns="http://www.w3.org/2000/svg"><path d="M5.3457 15.9688L13.8796 21.3884" stroke="#1DBF73" stroke-width="1.5" stroke-miterlimit="10"/><path d="M8.48466 59.1123L41.8008 26.8542C43.4696 27.7778 45.3714 28.205 47.2802 28.0851C49.1891 27.9651 51.0248 27.3029 52.5693 26.1774C54.1137 25.0518 55.3019 23.5101 55.9926 21.7354C56.6834 19.9608 56.8477 18.0278 56.4661 16.1661L48.3627 21.7478L43.2149 16.2547L49.3832 8.61198C47.5162 8.09622 45.537 8.1323 43.6871 8.71583C41.8372 9.29936 40.1966 10.4051 38.9655 11.8981C37.7345 13.3911 36.9662 15.2068 36.7545 17.1235C36.5427 19.0403 36.8967 20.9752 37.7732 22.6922L3.0173 53.2794C2.61594 53.6345 2.29001 54.0657 2.05881 54.5477C1.82761 55.0296 1.69582 55.5525 1.67121 56.0853C1.64661 56.6182 1.72971 57.1502 1.91558 57.65C2.10146 58.1497 2.38634 58.6071 2.7534 58.995C3.11825 59.3812 3.55708 59.691 4.04425 59.9064C4.53141 60.1217 5.05715 60.2382 5.59075 60.2492C6.12434 60.2601 6.65508 60.1652 7.15196 59.97C7.64884 59.7748 8.1019 59.4832 8.48466 59.1123Z" stroke="#222325" stroke-width="1.5" stroke-miterlimit="10"/><path d="M16.2539 8.25L19.4912 17.1727" stroke="#1DBF73" stroke-width="1.5" stroke-miterlimit="10"/><path d="M53.7164 50.4323L43.8446 46.5236" stroke="#1DBF73" stroke-width="1.5" stroke-miterlimit="10"/><path d="M44.4669 60.0351L40.6671 50.5137" stroke="#1DBF73" stroke-width="1.5" stroke-miterlimit="10"/></svg>