<svg width="17" height="16" viewBox="0 0 17 16" fill="none" xmlns="http://www.w3.org/2000/svg"><path d="M16.2778 7.17827C16.2991 7.45278 16.3419 7.7279 16.3365 8.00181C16.3296 8.34548 16.3047 8.69184 16.2479 9.03042C16.1697 9.49473 16.0518 9.95246 15.9569 10.4144C15.9362 10.5153 15.8853 10.5368 15.7937 10.5329C15.6542 10.5266 15.5144 10.5293 15.3746 10.5314C14.7831 10.5407 14.1912 10.5497 13.5997 10.5617C13.2674 10.5685 12.9354 10.582 12.6031 10.5907C12.1912 10.6018 11.7793 10.6114 11.3671 10.6206C10.8902 10.6314 10.4133 10.6401 9.93671 10.6509C9.54455 10.6599 9.15268 10.6706 8.76052 10.6805C8.37344 10.6904 7.98637 10.7 7.59929 10.7104C7.25203 10.7197 6.90507 10.7302 6.55781 10.7404C6.21564 10.7503 5.87347 10.7601 5.5316 10.7703C5.21427 10.7799 4.89725 10.7901 4.57992 10.8003C3.96024 10.82 3.34056 10.8383 2.72088 10.8613C2.5239 10.8685 2.32752 10.8895 2.11916 10.905C2.28381 10.9206 2.43798 10.9422 2.59276 10.9487C2.94481 10.9631 3.29745 10.9721 3.6498 10.9796C4.18147 10.9912 4.71314 10.9987 5.24481 11.0104C5.57231 11.0176 5.89951 11.0296 6.22671 11.0394C6.56919 11.0496 6.91166 11.0598 7.25383 11.0697C7.62144 11.0802 7.98876 11.0903 8.35638 11.0996C8.76321 11.1101 9.17034 11.1197 9.57718 11.1293C10.0142 11.1394 10.4513 11.1496 10.8887 11.1592C11.3461 11.1694 11.8035 11.1783 12.2607 11.1897C12.5882 11.1978 12.9154 11.2086 13.2429 11.2197C14.0218 11.2457 14.8005 11.2723 15.6189 11.3002C15.5507 11.4409 15.4956 11.5831 15.4171 11.7112C15.1926 12.0767 14.9606 12.4372 14.7259 12.7961C14.7026 12.8317 14.6421 12.8635 14.5993 12.8632C14.0176 12.8578 13.436 12.8479 12.8543 12.8356C12.5918 12.8299 12.3295 12.8144 12.0673 12.8069C11.6455 12.7946 11.2234 12.7859 10.8013 12.7748C10.4241 12.765 10.0472 12.7527 9.66998 12.744C9.21824 12.7335 8.76621 12.7266 8.31447 12.7165C7.88758 12.7069 7.46069 12.6943 7.0335 12.6841C6.63145 12.6746 6.22941 12.6668 5.82736 12.6563C5.50525 12.6479 5.18314 12.6356 4.86102 12.6264C4.47904 12.6156 4.09705 12.6054 3.71506 12.597C3.20824 12.5859 2.70142 12.5752 2.1946 12.5683C2.09731 12.5671 1.99792 12.5988 1.90243 12.5883C1.84106 12.5815 1.76592 12.5386 1.72939 12.4884C1.14684 11.6834 0.7876 10.7775 0.540926 9.82254C0.51548 9.72434 0.508295 9.62166 0.489436 9.50072C0.735511 9.51509 0.977396 9.53664 1.21988 9.54054C1.3971 9.54353 1.57492 9.51689 1.75245 9.51449C2.07665 9.51 2.40116 9.51719 2.72537 9.5124C3.06754 9.50731 3.40971 9.49413 3.75189 9.48306C4.02431 9.47438 4.29643 9.46031 4.56885 9.45402C5.11039 9.44175 5.65224 9.43426 6.19408 9.42319C6.60601 9.4148 7.01793 9.40343 7.42985 9.39355C7.85674 9.38337 8.28393 9.37409 8.71082 9.36331C9.06287 9.35433 9.41492 9.34356 9.76697 9.33368C10.134 9.3235 10.5013 9.31422 10.8683 9.30344C11.1707 9.29446 11.473 9.28308 11.7754 9.2738C12.1227 9.26303 12.4699 9.25405 12.8169 9.24357C13.1192 9.23429 13.4216 9.22621 13.7236 9.21333C14.1475 9.19507 14.5714 9.17232 15.039 9.14957C14.9834 9.13251 14.9711 9.12532 14.9585 9.12502C14.5466 9.11424 14.1344 9.10466 13.7224 9.09419C13.3354 9.08431 12.9483 9.07383 12.5612 9.06275C12.264 9.05407 11.9667 9.04389 11.6694 9.03461C11.3222 9.02384 10.9752 9.01336 10.6279 9.00318C10.2909 8.9933 9.95348 8.98372 9.61639 8.97474C9.20447 8.96367 8.79255 8.95319 8.38063 8.94301C7.9687 8.93283 7.55648 8.92355 7.14456 8.91367C6.69761 8.90319 6.25066 8.89272 5.80372 8.88254C5.40167 8.87326 4.99963 8.86488 4.59758 8.8547C4.24045 8.84572 3.88331 8.83494 3.52617 8.82416C3.2289 8.81518 2.93163 8.80051 2.63437 8.79512C1.94793 8.78285 1.26149 8.77387 0.575053 8.76549C0.404117 8.76339 0.344544 8.72627 0.352328 8.54127C0.36041 8.34967 0.321793 8.15599 0.331372 7.96439C0.348137 7.62671 0.366398 7.28664 0.420283 6.95375C0.489436 6.52716 0.561582 6.09607 0.692403 5.68595C0.846874 5.20158 1.06481 4.73727 1.2576 4.26547C1.27556 4.22147 1.31178 4.18495 1.3492 4.14453C1.38004 4.24572 1.445 4.28882 1.54529 4.30738C1.92727 4.37744 2.30836 4.45347 2.68945 4.52891C3.99916 4.78846 5.30857 5.04861 6.61798 5.30875C8.47463 5.67786 10.3313 6.04698 12.1879 6.41699C13.4728 6.67295 14.7576 6.9307 16.0431 7.18396C16.1179 7.19863 16.1988 7.18096 16.2769 7.17857L16.2778 7.17827Z" fill="#F58516"/><path d="M16.28 7.16633C16.1998 7.1819 16.1187 7.19926 16.0438 7.1846C14.7584 6.93133 13.4738 6.67358 12.1887 6.41763C10.332 6.04792 8.47537 5.6785 6.61872 5.30939C5.30931 5.04894 3.9999 4.7891 2.69019 4.52955C2.3091 4.45411 1.92802 4.37807 1.54603 4.30802C1.44544 4.28946 1.38078 4.24635 1.35474 4.13589C1.59512 3.7548 1.83402 3.3782 2.08937 3.01298C2.20702 2.84504 2.3567 2.69955 2.51027 2.54688C2.57524 2.56573 2.62074 2.58759 2.66894 2.59717C4.10079 2.88246 5.53324 3.16596 6.96509 3.45065C8.881 3.83174 10.7966 4.21462 12.7125 4.59481C13.7438 4.79928 14.7757 4.99985 15.8074 5.20222C15.8798 5.41027 15.9726 5.61414 16.0208 5.82759C16.1205 6.26675 16.1965 6.7113 16.28 7.16633Z" fill="#F47918"/><path d="M15.8059 5.18844C14.7755 4.99745 13.7436 4.79718 12.7123 4.59241C10.7964 4.21222 8.88074 3.82934 6.96482 3.44825C5.53267 3.16356 4.10052 2.87976 2.66867 2.59477C2.62047 2.58519 2.57497 2.56334 2.51929 2.54029C2.86475 2.14154 3.25662 1.79188 3.69219 1.49312C3.8763 1.36679 4.06759 1.25063 4.26906 1.13867C4.35498 1.19136 4.42233 1.25872 4.50077 1.27548C4.99292 1.37996 5.48746 1.47246 5.98081 1.57065C7.63239 1.89845 9.28368 2.22625 10.9353 2.55495C12.1225 2.79115 13.3092 3.03004 14.4971 3.26295C14.5806 3.27941 14.6719 3.25786 14.7593 3.25427C15.0054 3.64912 15.264 4.0368 15.4922 4.44184C15.6221 4.67234 15.702 4.93099 15.8059 5.18874V5.18844Z" fill="#F36D1A"/><path d="M3.22584 13.3451C3.65243 13.3352 4.06435 13.3259 4.47628 13.3148C4.78881 13.3064 5.10105 13.2945 5.41358 13.2852C5.77581 13.2744 6.13774 13.2639 6.49997 13.2556C6.97685 13.2445 7.45373 13.2358 7.93062 13.2253C8.35811 13.216 8.7853 13.2056 9.21279 13.1954C9.62501 13.1855 10.0372 13.1762 10.4495 13.1652C10.7916 13.1562 11.1341 13.1454 11.4763 13.1355C11.8235 13.1253 12.1711 13.1158 12.5183 13.1056C12.8357 13.096 13.1527 13.0816 13.47 13.0768C13.817 13.0717 14.1642 13.0756 14.5109 13.0756C14.4238 13.178 14.3328 13.307 14.2199 13.4133C13.8816 13.7321 13.538 14.0453 13.1892 14.3524C13.1281 14.406 13.0324 14.4225 12.9506 14.4494C12.9189 14.4599 12.8815 14.4527 12.8464 14.4533C12.2199 14.4632 11.5933 14.4722 10.9668 14.4832C10.495 14.4916 10.0229 14.5027 9.55107 14.5129C9.114 14.5225 8.67723 14.532 8.24016 14.5431C7.88302 14.5521 7.52588 14.5632 7.16874 14.5728C6.79154 14.5829 6.41435 14.5922 6.03715 14.603C5.70007 14.6123 5.36269 14.6221 5.02561 14.6329C4.75319 14.6419 4.47957 14.6389 4.20895 14.6668C3.97185 14.691 3.78325 14.6015 3.61621 14.4608C3.20099 14.1111 2.79416 13.7516 2.38403 13.396C2.39092 13.3792 2.3978 13.3621 2.40469 13.3454C2.67352 13.3454 2.94234 13.3454 3.22554 13.3454L3.22584 13.3451Z" fill="#F58616"/><path d="M14.7548 3.24488C14.6715 3.25805 14.5805 3.27961 14.4967 3.26314C13.3089 3.02994 12.1222 2.79135 10.9349 2.55515C9.28363 2.22645 7.63204 1.89865 5.98046 1.57085C5.48711 1.47296 4.99257 1.38045 4.50042 1.27568C4.42228 1.25891 4.35493 1.19156 4.27979 1.13707C4.50161 1.00236 4.71715 0.857168 4.95245 0.758678C5.35929 0.58864 5.77839 0.44764 6.21067 0.306641C6.27623 0.341965 6.32084 0.376691 6.37053 0.387169C6.73096 0.463207 7.09199 0.535054 7.45333 0.606602C9.26986 0.966136 11.0861 1.32657 12.9035 1.68101C12.9939 1.69868 13.0948 1.66185 13.1909 1.65048C13.46 1.88847 13.7438 2.11209 13.9947 2.36805C14.2626 2.64137 14.4997 2.94522 14.7548 3.24518V3.24488Z" fill="#F3631C"/><path d="M10.7145 15.051C11.142 15.0638 11.5545 15.0764 11.9671 15.0893C11.9665 15.1064 11.9659 15.1234 11.9653 15.1408C9.38657 16.3463 6.8384 16.2915 4.2998 14.9219C4.6303 14.9219 4.93775 14.9217 5.24549 14.9222C5.29488 14.9222 5.34398 14.9303 5.39338 14.9309C6.01515 14.9414 6.63663 14.9495 7.2584 14.9615C7.61584 14.9684 7.97298 14.9821 8.33042 14.9908C8.78754 15.0019 9.24467 15.01 9.7015 15.0213C10.0341 15.0297 10.3667 15.0411 10.7142 15.0513L10.7145 15.051Z" fill="#F58616"/><path d="M13.1878 1.64817C13.095 1.66254 12.9941 1.69936 12.9037 1.6817C11.0862 1.32756 9.27 0.967124 7.45347 0.607291C7.09214 0.535743 6.73111 0.463597 6.37067 0.387858C6.32098 0.37738 6.27638 0.342954 6.22339 0.308527C6.48174 0.236081 6.74308 0.153158 7.01071 0.118133C7.44359 0.0612538 7.88006 0.0211392 8.31623 0.00227942C8.57488 -0.00879699 8.83712 0.0223367 9.09517 0.0558653C9.46788 0.104063 9.84088 0.157349 10.2085 0.234585C10.7773 0.35433 11.3239 0.548616 11.8349 0.827322C12.2451 1.05095 12.6435 1.29552 13.0462 1.53262C13.0752 1.54968 13.0958 1.58112 13.1363 1.61584C13.1605 1.6341 13.1692 1.64249 13.1776 1.65057C13.1776 1.65057 13.1845 1.64518 13.1878 1.64817Z" fill="#F25D1D"/><path d="M13.1757 1.64025C13.1701 1.64178 13.1613 1.63352 13.146 1.61915C13.1506 1.61885 13.1616 1.62466 13.1757 1.64025Z" fill="#F3631C"/></svg>