<svg xmlns="http://www.w3.org/2000/svg" width="16" height="16" fill="none" viewBox="0 0 16 16"><mask id="lovable_svg__b" width="12" height="13" x="2" y="2" maskUnits="userSpaceOnUse" style="mask-type:alpha"><path fill="url(#lovable_svg__a)" fill-rule="evenodd" d="M5.6 2c1.99 0 3.601 1.616 3.601 3.61v1.372H10.4c1.989 0 3.601 1.616 3.601 3.61a3.605 3.605 0 0 1-3.6 3.61H2V5.61A3.605 3.605 0 0 1 5.6 2" clip-rule="evenodd"></path></mask><g mask="url(#lovable_svg__b)"><g filter="url(#lovable_svg__c)"><path fill="#4B73FF" d="M7.264 17.147c4.486 0 8.123-4.37 8.123-9.763S11.75-2.38 7.264-2.38C2.777-2.38-.86 1.991-.86 7.384s3.636 9.763 8.123 9.763"></path></g><g filter="url(#lovable_svg__d)"><path fill="#FF66F4" d="M8.156 11.79c5.746 0 10.404-4.37 10.404-9.763S13.902-7.737 8.156-7.737-2.247-3.365-2.247 2.027 2.41 11.79 8.156 11.79"></path></g><g filter="url(#lovable_svg__e)"><path fill="#FF0105" d="M9.854 8.765c4.486 0 8.123-3.839 8.123-8.575S14.34-8.384 9.854-8.384C5.367-8.384 1.73-4.545 1.73.19c0 4.736 3.637 8.575 8.124 8.575"></path></g><g filter="url(#lovable_svg__f)"><path fill="#FE7B02" d="M8.302 7.896c2.698 0 4.885-2.629 4.885-5.872S11-3.848 8.302-3.848s-4.885 2.63-4.885 5.872 2.187 5.872 4.885 5.872"></path></g></g><defs><filter id="lovable_svg__c" width="23.527" height="26.808" x="-4.5" y="-6.02" color-interpolation-filters="sRGB" filterUnits="userSpaceOnUse"><feFlood flood-opacity="0" result="BackgroundImageFix"></feFlood><feBlend in="SourceGraphic" in2="BackgroundImageFix" result="shape"></feBlend><feGaussianBlur result="effect1_foregroundBlur_1396_1200" stdDeviation="1.82"></feGaussianBlur></filter><filter id="lovable_svg__d" width="28.088" height="26.808" x="-5.888" y="-11.377" color-interpolation-filters="sRGB" filterUnits="userSpaceOnUse"><feFlood flood-opacity="0" result="BackgroundImageFix"></feFlood><feBlend in="SourceGraphic" in2="BackgroundImageFix" result="shape"></feBlend><feGaussianBlur result="effect1_foregroundBlur_1396_1200" stdDeviation="1.82"></feGaussianBlur></filter><filter id="lovable_svg__e" width="23.527" height="24.43" x="-1.91" y="-12.025" color-interpolation-filters="sRGB" filterUnits="userSpaceOnUse"><feFlood flood-opacity="0" result="BackgroundImageFix"></feFlood><feBlend in="SourceGraphic" in2="BackgroundImageFix" result="shape"></feBlend><feGaussianBlur result="effect1_foregroundBlur_1396_1200" stdDeviation="1.82"></feGaussianBlur></filter><filter id="lovable_svg__f" width="17.051" height="19.024" x="-0.223" y="-7.488" color-interpolation-filters="sRGB" filterUnits="userSpaceOnUse"><feFlood flood-opacity="0" result="BackgroundImageFix"></feFlood><feBlend in="SourceGraphic" in2="BackgroundImageFix" result="shape"></feBlend><feGaussianBlur result="effect1_foregroundBlur_1396_1200" stdDeviation="1.82"></feGaussianBlur></filter><linearGradient id="lovable_svg__a" x1="6.038" x2="9.694" y1="4.144" y2="14.198" gradientUnits="userSpaceOnUse"><stop offset="0.025" stop-color="#FF8E63"></stop><stop offset="0.56" stop-color="#FF7EB0"></stop><stop offset="0.95" stop-color="#4B73FF"></stop></linearGradient></defs></svg>