<svg xmlns="http://www.w3.org/2000/svg" width="32" height="32" fill="#222325" viewBox="0 0 24 24"><path d="M7.75 0A1.75 1.75 0 0 0 6 1.75v1h1.5v-1a.25.25 0 0 1 .25-.25h8a.25.25 0 0 1 .25.25v1h1.5v-1A1.75 1.75 0 0 0 15.75 0zM4 5.75A1.75 1.75 0 0 1 5.75 4h12a1.75 1.75 0 0 1 1.75 1.75v2H18v-2a.25.25 0 0 0-.25-.25h-12a.25.25 0 0 0-.25.25v2H4zm8.75 12v-1.5h6.428v1.5zm0-3h4.285v-1.5h-4.284z"></path><path fill-rule="evenodd" d="M5 14.25a2.25 2.25 0 1 1 3.405 1.931A3.75 3.75 0 0 1 11 19.75v.75H3.5v-.75a3.75 3.75 0 0 1 2.595-3.569A2.25 2.25 0 0 1 5 14.25m2.25-.75a.75.75 0 1 0 0 1.5.75.75 0 0 0 0-1.5M9.372 19H5.127a2.251 2.251 0 0 1 4.245 0" clip-rule="evenodd"></path><path fill-rule="evenodd" d="M0 11.75A2.75 2.75 0 0 1 2.75 9h18a2.75 2.75 0 0 1 2.748 2.75v9a2.75 2.75 0 0 1-2.75 2.75h-18a2.75 2.75 0 0 1-2.747-2.75zm2.75-1.25c-.69 0-1.25.56-1.25 1.25v9c0 .69.56 1.25 1.25 1.25h18c.69 0 1.25-.56 1.25-1.25v-9c0-.69-.56-1.25-1.25-1.25z" clip-rule="evenodd"></path></svg>