<?xml version="1.0" encoding="UTF-8"?>
<svg id="Layer_1" data-name="Layer 1" xmlns="http://www.w3.org/2000/svg" viewBox="0 0 46 46">
  <defs>
    <style>
      .cls-1 {
        fill: none;
      }

      .cls-1, .cls-2 {
        stroke: #404145;
        stroke-miterlimit: 10;
        stroke-width: 1.5px;
      }

      .cls-2 {
        fill: #a6eaca;
      }
    </style>
  </defs>
  <g>
    <g>
      <path class="cls-1" d="m26.41,23.17l3.32-3.32-3.32-3.32"/>
      <path class="cls-1" d="m18.11,23.17l-3.32-3.32,3.32-3.32"/>
      <path class="cls-1" d="m23.92,15.7l-3.32,8.3"/>
    </g>
    <path class="cls-1" d="m22.58,27.19h-13.54c-.49,0-.89-.4-.89-.89v-12.88c0-.49.4-.89.89-.89h26.26c.49,0,.89.4.89.89v9.61"/>
  </g>
  <g>
    <path class="cls-1" d="m40.59,28.11V2.55c0-.49-.4-.89-.89-.89H4.83c-.49,0-.89.4-.89.89v36.46c0,.49.4.89.89.89h15.77"/>
    <line class="cls-1" x1="6.62" y1="7.25" x2="37.91" y2="7.25"/>
    <g>
      <line class="cls-1" x1="6.62" y1="4.45" x2="8.02" y2="4.45"/>
      <line class="cls-1" x1="9.41" y1="4.45" x2="10.81" y2="4.45"/>
      <line class="cls-1" x1="12.21" y1="4.45" x2="13.61" y2="4.45"/>
    </g>
  </g>
  <path class="cls-2" d="m26.87,34.98h1.38s0-4.45,0-4.45h4.45s0-1.38,0-1.38c0-1.36,1.1-2.46,2.46-2.46s2.46,1.1,2.46,2.46v1.38s4.45,0,4.45,0v4.45h-1.23c-1.36,0-2.46,1.1-2.46,2.46s1.1,2.46,2.46,2.46h1.23v4.45h-13.82v-4.45s-1.38,0-1.38,0c-1.36,0-2.46-1.1-2.46-2.46s1.1-2.46,2.46-2.46Z"/>
  <line class="cls-1" x1="15.6" y1="31.07" x2="22.65" y2="31.07"/>
  <line class="cls-1" x1="9.41" y1="31.07" x2="12.21" y2="31.07"/>
  <line class="cls-1" x1="20.6" y1="34.95" x2="22.65" y2="34.95"/>
  <line class="cls-1" x1="9.41" y1="34.95" x2="18.36" y2="34.95"/>
</svg>