<svg xmlns="http://www.w3.org/2000/svg" width="22px" height="22px" fill="none" viewBox="0 0 32 32"><path fill="currentColor" d="m1.346 7.048 11.128 9.364.198.158a5.64 5.64 0 0 0 3.452 1.15 5.64 5.64 0 0 0 3.44-1.184l11.304-8.831q.13.532.132 1.103v15.384a4.72 4.72 0 0 1-1.465 3.4A5.1 5.1 0 0 1 26 29H6a5.2 5.2 0 0 1-1.913-.366 5 5 0 0 1-1.623-1.042A4.72 4.72 0 0 1 1 24.192V8.808c0-.621.123-1.216.346-1.76M26 4c1.27 0 2.429.455 3.31 1.205l-11.638 9.092-.153.11a2.57 2.57 0 0 1-1.565.424 2.56 2.56 0 0 1-1.505-.59L3.232 4.802A5.1 5.1 0 0 1 6 4z"></path></svg>