<svg width="1em" height="1em" viewBox="0 0 32 32" fill="none" xmlns="http://www.w3.org/2000/svg"><path fill-rule="evenodd" clip-rule="evenodd" d="M11.3284 24.6367L15.2929 28.6012C15.6834 28.9917 16.3166 28.9917 16.7071 28.6012L20.6716 24.6367H24C26.2091 24.6367 28 22.8459 28 20.6367V9.63672C28 7.42758 26.2091 5.63672 24 5.63672H8C5.79086 5.63672 4 7.42758 4 9.63672V20.6367C4 22.8459 5.79086 24.6367 8 24.6367H11.3284ZM21.5 26.6367H24C27.3137 26.6367 30 23.9504 30 20.6367V9.63672C30 6.32301 27.3137 3.63672 24 3.63672H8C4.68629 3.63672 2 6.32301 2 9.63672V20.6367C2 23.9504 4.68629 26.6367 8 26.6367H10.5L13.8787 30.0154C15.0503 31.187 16.9497 31.187 18.1213 30.0154L21.5 26.6367Z" fill="currentColor"></path><path fill-rule="evenodd" clip-rule="evenodd" d="M10 12.6367C10 12.0844 10.4477 11.6367 11 11.6367H21C21.5523 11.6367 22 12.0844 22 12.6367C22 13.189 21.5523 13.6367 21 13.6367H11C10.4477 13.6367 10 13.189 10 12.6367Z" fill="currentColor"></path><path fill-rule="evenodd" clip-rule="evenodd" d="M10 18.6367C10 18.0844 10.4477 17.6367 11 17.6367H21C21.5523 17.6367 22 18.0844 22 18.6367C22 19.189 21.5523 19.6367 21 19.6367H11C10.4477 19.6367 10 19.189 10 18.6367Z" fill="currentColor"></path></svg>