<svg xmlns="http://www.w3.org/2000/svg" width="1em" height="1em" fill="none" viewBox="0 0 32 32"><path fill="currentColor" fill-rule="evenodd" d="M15.69 5.037c-5.883 0-10.652 4.77-10.652 10.652S9.807 26.34 15.689 26.34c5.883 0 10.652-4.769 10.652-10.651 0-5.883-4.77-10.652-10.652-10.652M2.37 15.69C2.371 8.333 8.334 2.37 15.69 2.37s13.318 5.962 13.318 13.318c0 3.355-1.24 6.421-3.29 8.763l3.948 3.937a1.333 1.333 0 1 1-1.883 1.888l-4.012-4.001a13.26 13.26 0 0 1-8.08 2.73c-7.356 0-13.319-5.962-13.319-13.317" clip-rule="evenodd"></path></svg>