<svg width="1em" height="1em" viewBox="0 0 32 32" fill="none" xmlns="http://www.w3.org/2000/svg"><path fill-rule="evenodd" clip-rule="evenodd" d="M20.1007 21.8554L20.938 21.3788C23.9656 19.6556 26 16.4044 26 12.6807C26 7.15782 21.5228 2.68066 16 2.68066C10.4772 2.68066 6 7.15782 6 12.6807C6 16.4044 8.0344 19.6556 11.062 21.3788L11.8993 21.8554L12.0485 22.8073C12.348 24.7183 14.0051 26.1807 16 26.1807C17.9949 26.1807 19.652 24.7183 19.9515 22.8073L20.1007 21.8554ZM21.9274 23.117C21.4778 25.9859 18.9952 28.1807 16 28.1807C13.0048 28.1807 10.5222 25.9859 10.0726 23.117C6.4458 21.0526 4 17.1523 4 12.6807C4 6.05325 9.37258 0.680664 16 0.680664C22.6274 0.680664 28 6.05325 28 12.6807C28 17.1523 25.5542 21.0526 21.9274 23.117Z" fill="currentColor"></path><path d="M13.012 28.8805C13.1154 30.4435 14.4161 31.6793 16.0053 31.6793C17.5946 31.6793 18.8952 30.4435 18.9987 28.8805C18.1177 29.3886 17.0954 29.6793 16.0053 29.6793C14.9152 29.6793 13.893 29.3886 13.012 28.8805Z" fill="currentColor"></path><path d="M9.07764 11.631C10.968 10.0987 13.3765 9.18066 15.9995 9.18066C18.6224 9.18066 21.031 10.0987 22.9213 11.631C22.4148 8.26297 19.5087 5.68066 15.9995 5.68066C12.4902 5.68066 9.58409 8.26297 9.07764 11.631Z" fill="currentColor"></path></svg>