<svg xmlns="http://www.w3.org/2000/svg" width="1em" height="1em" fill="none" viewBox="0 0 32 32"><path fill="currentColor" d="M28.668 5.333H25.78V7.11h2.667v19.555H3.557V7.111h2.667V5.333H3.335A1.58 1.58 0 0 0 1.78 6.942v19.893a1.58 1.58 0 0 0 1.555 1.609h25.333a1.58 1.58 0 0 0 1.556-1.609V6.942a1.58 1.58 0 0 0-1.556-1.61"></path><path fill="currentColor" d="M7.113 12.444H8.89v1.778H7.113zM12.446 12.444h1.778v1.778h-1.778zM17.78 12.444h1.777v1.778H17.78zM23.113 12.444h1.778v1.778h-1.778zM7.113 16.889H8.89v1.777H7.113zM12.446 16.889h1.778v1.777h-1.778zM17.78 16.889h1.777v1.777H17.78zM23.113 16.889h1.778v1.777h-1.778zM7.113 21.333H8.89v1.778H7.113zM12.446 21.333h1.778v1.778h-1.778zM17.78 21.333h1.777v1.778H17.78zM23.113 21.333h1.778v1.778h-1.778zM8.89 8.888A.89.89 0 0 0 9.78 8V2.666a.889.889 0 0 0-1.778 0V8a.89.89 0 0 0 .889.888M23.113 8.888A.89.89 0 0 0 24.002 8V2.666a.889.889 0 1 0-1.778 0V8a.89.89 0 0 0 .889.888M11.557 5.333h8.89V7.11h-8.89z"></path></svg>