<svg width="1em" height="1em" viewBox="0 0 32 32" fill="none" xmlns="http://www.w3.org/2000/svg"><path fill-rule="evenodd" clip-rule="evenodd" d="M16 27.999C22.6274 27.999 28 22.6264 28 15.999C28 9.37161 22.6274 3.99902 16 3.99902C9.37258 3.99902 4 9.37161 4 15.999C4 22.6264 9.37258 27.999 16 27.999ZM16 29.999C23.732 29.999 30 23.731 30 15.999C30 8.26704 23.732 1.99902 16 1.99902C8.26801 1.99902 2 8.26704 2 15.999C2 23.731 8.26801 29.999 16 29.999Z" fill="currentColor"></path><path fill-rule="evenodd" clip-rule="evenodd" d="M15.5822 9.00925C16.6238 8.92931 17.6644 9.17766 18.5576 9.71942C19.4509 10.2612 20.152 11.0691 20.5626 12.0298C20.9731 12.9905 21.0724 14.0556 20.8465 15.0756C20.6207 16.0956 20.0809 17.0193 19.3032 17.7168C18.5255 18.4144 17.5488 18.8508 16.5103 18.9647C15.9613 19.025 15.4674 18.6288 15.4072 18.0798C15.3469 17.5308 15.7431 17.0369 16.2921 16.9767C16.9152 16.9083 17.5012 16.6464 17.9678 16.2279C18.4345 15.8094 18.7583 15.2552 18.8938 14.6432C19.0294 14.0312 18.9698 13.3921 18.7235 12.8157C18.4771 12.2393 18.0565 11.7545 17.5205 11.4295C16.9845 11.1044 16.3602 10.9554 15.7352 11.0034C15.1102 11.0514 14.516 11.2939 14.0359 11.6969C13.5558 12.1 13.214 12.6432 13.0585 13.2505C12.9216 13.7855 12.3768 14.1082 11.8418 13.9712C11.3067 13.8342 10.9841 13.2894 11.121 12.7544C11.3802 11.7423 11.9498 10.8369 12.7499 10.1651C13.5501 9.49342 14.5405 9.0892 15.5822 9.00925Z" fill="currentColor"></path><path d="M17.5 22.499C17.5 23.3274 16.8284 23.999 16 23.999C15.1716 23.999 14.5 23.3274 14.5 22.499C14.5 21.6706 15.1716 20.999 16 20.999C16.8284 20.999 17.5 21.6706 17.5 22.499Z" fill="currentColor"></path></svg>