<svg width="46" height="46" viewBox="0 0 46 46" fill="none" xmlns="http://www.w3.org/2000/svg"><path d="M14.0742 41.3637V9.95874H32.256V41.3637" fill="#A6EACA"/><path d="M14.0742 41.3637V9.95874H32.256V41.3637" stroke="#404145" stroke-width="1.5" stroke-miterlimit="10" stroke-linejoin="round"/><path d="M16.553 9.95868V5H29.7761V9.95868" stroke="#404145" stroke-width="1.5" stroke-miterlimit="10" stroke-linejoin="round"/><path d="M20.6865 41.3637V37.2314H25.6452V41.3637" fill="white"/><path d="M20.6865 41.3637V37.2314H25.6452V41.3637" stroke="#404145" stroke-width="1.5" stroke-miterlimit="10" stroke-linejoin="round"/><path d="M18.2061 25.6612V23.1818H21.5118V25.6612" stroke="#404145" stroke-width="1.5" stroke-miterlimit="10" stroke-linejoin="round"/><path d="M18.2061 32.2729V29.7936H21.5118V32.2729" stroke="#404145" stroke-width="1.5" stroke-miterlimit="10" stroke-linejoin="round"/><path d="M24.8181 25.6612V23.1818H28.1239V25.6612" stroke="#404145" stroke-width="1.5" stroke-miterlimit="10" stroke-linejoin="round"/><path d="M18.2061 19.0494V16.5701H21.5118V19.0494" stroke="#404145" stroke-width="1.5" stroke-miterlimit="10" stroke-linejoin="round"/><path d="M24.8181 19.0494V16.5701H28.1239V19.0494" stroke="#404145" stroke-width="1.5" stroke-miterlimit="10" stroke-linejoin="round"/><path d="M24.8181 32.2729V29.7936H28.1239V32.2729" stroke="#404145" stroke-width="1.5" stroke-miterlimit="10" stroke-linejoin="round"/><path d="M34.7346 28.1406H37.214" stroke="#404145" stroke-width="1.5" stroke-miterlimit="10" stroke-linejoin="round"/><path d="M34.7346 31.4462H37.214" stroke="#404145" stroke-width="1.5" stroke-miterlimit="10" stroke-linejoin="round"/><path d="M34.7346 34.7518H37.214" stroke="#404145" stroke-width="1.5" stroke-miterlimit="10" stroke-linejoin="round"/><path d="M34.7346 38.058H37.214" stroke="#404145" stroke-width="1.5" stroke-miterlimit="10" stroke-linejoin="round"/><path d="M39.6941 41.3638V24.8349H32.2561" stroke="#404145" stroke-width="1.5" stroke-miterlimit="10" stroke-linejoin="round"/><path d="M37.2148 24.8349V20.7027H32.2561" stroke="#404145" stroke-width="1.5" stroke-miterlimit="10" stroke-linejoin="round"/><path d="M11.5946 28.1406H9.11523" stroke="#404145" stroke-width="1.5" stroke-miterlimit="10" stroke-linejoin="round"/><path d="M11.5946 31.4462H9.11523" stroke="#404145" stroke-width="1.5" stroke-miterlimit="10" stroke-linejoin="round"/><path d="M11.5946 34.7518H9.11523" stroke="#404145" stroke-width="1.5" stroke-miterlimit="10" stroke-linejoin="round"/><path d="M11.5946 38.058H9.11523" stroke="#404145" stroke-width="1.5" stroke-miterlimit="10" stroke-linejoin="round"/><path d="M6.63623 41.3638V24.8349H14.0742" stroke="#404145" stroke-width="1.5" stroke-miterlimit="10" stroke-linejoin="round"/><path d="M9.11523 24.8349V20.7027H14.0739" stroke="#404145" stroke-width="1.5" stroke-miterlimit="10" stroke-linejoin="round"/><path d="M4 41L42 41" stroke="#404145" stroke-width="1.5" stroke-miterlimit="10"/></svg>