<svg width="48" height="46" viewBox="0 0 48 46" fill="none" xmlns="http://www.w3.org/2000/svg"><path d="M47 23.05H43L42 24.05H39L34 19.05H27V18.05C27 16.39 28.34 15.05 30 15.05H33L35 13.05H40L42 10.5002L45.5 16.0002L47 23.05Z" fill="#A6EACA"/><path d="M15 29L15.03 28L11 23H8L10 28V29" stroke="#404145" stroke-width="1.5" stroke-miterlimit="10" stroke-linejoin="round"/><path d="M24 33C24 31.9 23.1 31 22 31H5.56C5.45 31 3 28 3 28H1L1.96001 32.02C1.40001 32.32 1 32.61 1 33.14C1 34.72 3.55 35.01 4.56 35.01H10V36.01L7.14 41.01H10L15 37.01L16.93 35.01H22C23.1 35 24 34.1 24 33Z" stroke="#404145" stroke-width="1.5" stroke-miterlimit="10" stroke-linejoin="round"/><path d="M15 23L11 20.5L13 14H16C17.66 14 19 15.34 19 17V19H17L15 21V23Z" fill="#A6EACA"/><path d="M47 23H43L42 24H39L34 19H27V18C27 16.34 28.34 15 30 15H33L35 13H40L41.97 10.95" stroke="#404145" stroke-width="1.5" stroke-miterlimit="10" stroke-linejoin="round"/><path d="M34 36H32V30L30 28H26V24.97L28 23H33L37 26.97V33L34 36Z" fill="#A6EACA" stroke="#404145" stroke-width="1.5" stroke-miterlimit="10" stroke-linejoin="round"/><path d="M11.1099 21C12.0999 12 19.7299 5 28.9999 5C38.9399 5 46.9999 13.06 46.9999 23C46.9999 32.94 38.9399 41 28.9999 41C25.3199 41 21.8999 39.9 19.0499 38" stroke="#404145" stroke-width="1.5" stroke-miterlimit="10" stroke-linejoin="round"/><path d="M13.5 14H16C17.66 14 19 15.34 19 17V19H17L15 21V23" stroke="#404145" stroke-width="1.5" stroke-miterlimit="10" stroke-linejoin="round"/></svg>