<svg width="46" height="46" viewBox="0 0 46 46" fill="none" xmlns="http://www.w3.org/2000/svg"><path d="M20.0244 34H1V2H40V19" stroke="#404145" stroke-width="1.5" stroke-miterlimit="10"/><path d="M32 40C37.5228 40 42 35.5228 42 30C42 24.4772 37.5228 20 32 20C26.4772 20 22 24.4772 22 30C22 35.5228 26.4772 40 32 40Z" fill="#A6EACA" stroke="#404145" stroke-width="1.5" stroke-miterlimit="10"/><path d="M46 30H38" stroke="#404145" stroke-width="1.5" stroke-miterlimit="10"/><path d="M26 30H18" stroke="#404145" stroke-width="1.5" stroke-miterlimit="10"/><path d="M32 44V36" stroke="#404145" stroke-width="1.5" stroke-miterlimit="10"/><path d="M32 24V16" stroke="#404145" stroke-width="1.5" stroke-miterlimit="10"/><path d="M32 29V31" stroke="#404145" stroke-width="1.5" stroke-miterlimit="10"/><path d="M22.57 18.86L15.51 23.09C14.84 23.49 14 23.01 14 22.23V13.76C14 12.98 14.85 12.5 15.51 12.9L22.57 17.13C23.22 17.53 23.22 18.47 22.57 18.86Z" fill="#A6EACA" stroke="#404145" stroke-width="1.5" stroke-miterlimit="10"/></svg>