<svg width="49" height="46" viewBox="0 0 49 46" fill="none" xmlns="http://www.w3.org/2000/svg"><rect x="4" y="4" width="40" height="6" fill="#A6EACA"/><path d="M44 28.9412V35.1351C44 35.6108 43.4857 36 42.8571 36H18.7619M4 22.3529V4.86486C4 4.38919 4.51429 4 5.14286 4H42.8571C43.4857 4 44 4.38919 44 4.86486V18.1176" stroke="#404145" stroke-width="1.5" stroke-miterlimit="10" stroke-linejoin="round"/><path d="M6 10H41" stroke="#404145" stroke-width="1.5" stroke-miterlimit="10" stroke-linejoin="round"/><path d="M7 7H9" stroke="#404145" stroke-width="1.5" stroke-miterlimit="10" stroke-linejoin="round"/><path d="M10 7H12" stroke="#404145" stroke-width="1.5" stroke-miterlimit="10" stroke-linejoin="round"/><path d="M13 7H15" stroke="#404145" stroke-width="1.5" stroke-miterlimit="10" stroke-linejoin="round"/><path d="M4.58129 27.7679L1.10623 29.4013L4.88867 37.4488L8.36373 35.8154L16.5464 37.428L8.56129 20.4388L4.58129 27.7679Z" fill="#A6EACA" stroke="#404145" stroke-width="1.5" stroke-miterlimit="10" stroke-linejoin="round"/><path d="M14.2451 24.2497C15.8812 24.3655 17.2559 25.139 17.866 26.437C18.4798 27.7431 18.1837 29.2921 17.2395 30.6207" stroke="#404145" stroke-width="1.5" stroke-miterlimit="10" stroke-linejoin="round"/><path d="M15.4282 18.5071C18.1014 19.1677 20.5317 21.0906 21.8577 23.9117C23.1836 26.7328 23.1133 29.831 21.9161 32.3108" stroke="#404145" stroke-width="1.5" stroke-miterlimit="10" stroke-linejoin="round"/><path d="M35.772 31.2974V29.8056" stroke="#404145" stroke-width="1.5" stroke-miterlimit="10" stroke-linejoin="round"/><path d="M35.772 28.3138V26.8219" stroke="#404145" stroke-width="1.5" stroke-miterlimit="10" stroke-linejoin="round"/><path d="M36.5137 29.0597H38.0055" stroke="#404145" stroke-width="1.5" stroke-miterlimit="10" stroke-linejoin="round"/><path d="M33.5337 29.0597H35.0256" stroke="#404145" stroke-width="1.5" stroke-miterlimit="10" stroke-linejoin="round"/><path d="M41.57 27.1688L42.3855 23.852L41.0478 20.7093L44.3646 21.5248L47.5073 20.1871L46.6918 23.5039L48.0295 26.6467L44.7127 25.8312L41.57 27.1688Z" fill="white" stroke="#404145" stroke-width="1.5" stroke-miterlimit="10" stroke-linejoin="round"/><path d="M38.789 15.5425L36.4007 19.1404L36.6488 23.4517L33.0509 21.0634L28.7396 21.3115L31.1279 17.7136L30.8798 13.4023L34.4777 15.7906L38.789 15.5425Z" fill="white" stroke="#404145" stroke-width="1.5" stroke-miterlimit="10" stroke-linejoin="round"/></svg>