<svg width="72" height="72" viewBox="0 0 72 72" fill="none" xmlns="http://www.w3.org/2000/svg"><path d="M44.2878 8C40.6047 7.99861 36.988 8.98373 33.8112 10.8536C30.6344 12.7235 28.0126 15.4104 26.2166 18.6368C24.4206 21.8633 23.5154 25.5122 23.5946 29.207C23.6738 32.9018 24.7344 36.5083 26.667 39.6543L7 59.3883L11.5879 64L30.9139 44.6082C33.4555 46.7711 36.4801 48.2863 39.7305 49.0248C42.9809 49.7633 46.3609 49.7034 49.5832 48.8501C52.8056 47.9968 55.7749 46.3754 58.2389 44.1237C60.7028 41.872 62.5884 39.0566 63.7354 35.9169C64.8825 32.7772 65.257 29.406 64.8271 26.0899C64.3972 22.7738 63.1757 19.6109 61.2664 16.8701C59.357 14.1293 56.8164 11.8916 53.8604 10.3473C50.9044 8.80301 47.6204 7.99775 44.2878 8ZM44.2878 43.0357C41.4772 43.0357 38.7298 42.1994 36.393 40.6326C34.0561 39.0659 32.2347 36.839 31.1592 34.2335C30.0836 31.6281 29.8022 28.7611 30.3505 25.9952C30.8988 23.2293 32.2522 20.6887 34.2396 18.6945C36.2269 16.7004 38.759 15.3424 41.5155 14.7922C44.272 14.2421 47.1292 14.5244 49.7258 15.6036C52.3224 16.6828 54.5417 18.5104 56.1032 20.8553C57.6646 23.2001 58.4981 25.9569 58.4981 28.777C58.4916 32.5559 56.9921 36.178 54.3283 38.8493C51.6646 41.5207 48.0538 43.0232 44.2878 43.0275V43.0357Z" fill="#232426"/></svg>