<svg width="72" height="72" viewBox="0 0 72 72" fill="none" xmlns="http://www.w3.org/2000/svg"><path d="M26.5398 40.2618L22.922 10.6194C22.8066 9.63036 23.0859 8.63569 23.6992 7.85092C24.3126 7.06615 25.2106 6.55447 26.1988 6.42673C27.187 6.31412 28.1799 6.59441 28.9631 7.20709C29.7463 7.81977 30.257 8.71568 30.3848 9.70139L34.1731 40.4038" stroke="#232426" stroke-width="1.5" stroke-miterlimit="10"/><path d="M36.7031 40.3747L40.4914 10.9311L45.3025 3L47.9259 11.8965L44.2891 40.3747" stroke="#232426" stroke-width="1.5" stroke-miterlimit="10"/><path d="M21.1719 35.375H51.2033V60.323C51.2033 62.8457 50.2005 65.265 48.4156 67.0488C46.6306 68.8326 44.2096 69.8347 41.6853 69.8347H30.6899C28.1655 69.8347 25.7446 68.8326 23.9596 67.0488C22.1747 65.265 21.1719 62.8457 21.1719 60.323V35.375Z" fill="white" stroke="#232426" stroke-width="1.5" stroke-miterlimit="10"/><path d="M40.5293 10.959L47.9922 11.9338" stroke="#232426" stroke-width="1.5" stroke-miterlimit="10"/><path d="M23.2266 13.0711L30.68 12.1152" stroke="#232426" stroke-width="1.5" stroke-miterlimit="10"/><path d="M21.1714 54.3024C23.1792 52.0404 27.9429 48.5292 35.3774 52.0404C42.8118 55.5517 51.2312 51.9174 51.2312 51.9174C51.2312 51.9174 52.8791 68.6598 44.9806 69.2561C44.9806 69.2561 26.617 72.3888 22.8856 65.7921C19.1541 59.1955 21.1714 54.3024 21.1714 54.3024Z" fill="#232426"/></svg>