<svg width="64" height="37" viewBox="0 0 64 37" fill="none" xmlns="http://www.w3.org/2000/svg"><g clip-path="url(#clip0_2369_18614)"><path d="M17.8211 34.1089C24.4461 32.7647 28.4127 24.7555 26.6808 16.2199C24.9488 7.68431 18.1742 1.85458 11.5493 3.19883C4.9243 4.54308 0.957719 12.5523 2.68965 21.0879C4.42158 29.6235 11.1962 35.4532 17.8211 34.1089Z" stroke="#232426" stroke-width="1.5" stroke-miterlimit="10"/><path d="M11.5498 3.20744L16.9098 2.11744C23.5398 0.77744 30.3098 6.60744 32.0398 15.1174C33.7698 23.6274 29.8098 31.6774 23.1598 33.0274L17.8198 34.1174" stroke="#232426" stroke-width="1.5" stroke-miterlimit="10"/><path d="M16.4192 27.2005C20.0835 26.457 22.2777 22.0282 21.32 17.3084C20.3623 12.5887 16.6155 9.36532 12.9512 10.1088C9.2869 10.8523 7.09275 15.2812 8.05042 20.0009C9.00809 24.7207 12.7549 27.9441 16.4192 27.2005Z" stroke="#232426" stroke-width="1.5" stroke-miterlimit="10"/><path d="M22.9502 8.08805L28.3102 6.99805" stroke="#232426" stroke-width="1.5" stroke-miterlimit="10"/><path d="M26.6006 15.947L31.8706 14.877" stroke="#232426" stroke-width="1.5" stroke-miterlimit="10"/><path d="M26.4814 24.5676L31.6614 23.5176" stroke="#232426" stroke-width="1.5" stroke-miterlimit="10"/></g><defs><clipPath id="clip0_2369_18614"><rect width="64" height="36" fill="white" transform="translate(0 0.9375)"/></clipPath></defs></svg>