<svg width="64" height="65" viewBox="0 0 64 65" fill="none" xmlns="http://www.w3.org/2000/svg"><g clip-path="url(#clip0_2332_14051)"><path d="M36.6289 5.30317L23.2584 48.0972L47.3668 55.6296L60.7373 12.8356L36.6289 5.30317Z" stroke="#222325" stroke-width="1.5" stroke-miterlimit="10"/><path d="M24.4684 43.6309C28.6928 44.8123 34.7487 45.1122 38.6739 46.6847C42.5991 48.2573 48.5847 50.7504 48.5847 50.7504" stroke="#222325" stroke-width="1.5" stroke-miterlimit="10"/><path d="M26.8422 36.6317C31.8897 37.8627 34.4743 39.4317 37.8777 40.0797C40.2725 40.563 42.6571 41.1463 45.019 41.8263C46.1592 42.1134 50.8169 43.6378 50.8169 43.6378" stroke="#222325" stroke-width="1.5" stroke-miterlimit="10"/><path d="M28.9548 29.8647C34.1985 31.78 37.2312 32.2429 39.9903 33.3127C42.7495 34.3824 42.5675 34.0109 44.9537 34.8131C47.3399 35.6153 53.0681 37.4113 53.0681 37.4113" stroke="#222325" stroke-width="1.5" stroke-miterlimit="10"/><path d="M30.9644 23.4322C34.0904 23.9243 37.9574 26.3093 42.1782 26.9358C44.8044 27.3092 47.4269 27.9652 49.9561 28.8814C51.6933 29.4988 53.3971 30.193 55.0558 30.9593" stroke="#222325" stroke-width="1.5" stroke-miterlimit="10"/><path d="M33.0717 16.6907C37.5735 18.0281 38.389 18.6982 41.5605 19.343C44.0247 19.8641 46.4439 20.6667 48.7197 21.7183C50.3894 22.38 52.1145 22.919 53.8639 23.3255C54.9108 23.5834 56.8807 24.1674 56.8807 24.1674" stroke="#222325" stroke-width="1.5" stroke-miterlimit="10"/><path d="M35.0633 9.71513C39.1895 11.4197 40.894 12.6445 44.9144 13.5545C48.9348 14.4645 52.2757 14.9545 53.5436 15.4891C54.8115 16.0237 59.2233 17.679 59.2233 17.679" stroke="#222325" stroke-width="1.5" stroke-miterlimit="10"/><path d="M25.9775 13.3105L4.37332 19.914C2.6942 20.4272 1.74909 22.2045 2.26233 23.8836L7.87206 42.2365C8.38531 43.9157 10.1626 44.8608 11.8417 44.3476L33.4458 37.744C35.1249 37.2308 36.0701 35.4536 35.5568 33.7744L29.9471 15.4215C29.4338 13.7424 27.6566 12.7972 25.9775 13.3105Z" fill="white" stroke="#222325" stroke-width="1.5" stroke-miterlimit="10"/><path d="M5.88421 35.8049C6.4231 33.3879 8.24749 27.9377 13.0431 27.9937C17.8387 28.0496 18.6415 34.5494 22.9924 34.0096C27.1191 33.4922 27.0677 24.9496 32.1427 22.5352" stroke="#222325" stroke-width="1.5" stroke-miterlimit="10"/><path d="M23.1571 25.6349C25.0046 25.0664 26.0413 23.1078 25.4728 21.2603C24.9042 19.4128 22.9456 18.376 21.0981 18.9446C19.2506 19.5132 18.2139 21.4718 18.7824 23.3193C19.351 25.1668 21.3096 26.2035 23.1571 25.6349Z" fill="#1DBF73"/><path d="M55.333 35.7083H6.33301V63.7083H55.333V35.7083Z" fill="white" stroke="#222325" stroke-width="1.5" stroke-miterlimit="10"/><path d="M39.3334 41.5405H22.3334L22.3343 46.5405H39.3343L39.3334 41.5405Z" stroke="#222325" stroke-width="1.5" stroke-miterlimit="10"/></g><defs><clipPath id="clip0_2332_14051"><rect width="64" height="64" fill="white" transform="translate(0 0.25)"/></clipPath></defs></svg>