<svg width="41" height="40" viewBox="0 0 41 40" fill="none" xmlns="http://www.w3.org/2000/svg"><g style="mix-blend-mode:darken"><path d="M15.4443 25.0663C17.5061 25.0663 19.1776 23.3948 19.1776 21.3329C19.1776 19.2711 17.5061 17.5996 15.4443 17.5996C13.3824 17.5996 11.7109 19.2711 11.7109 21.3329C11.7109 23.3948 13.3824 25.0663 15.4443 25.0663Z" stroke="#212121" stroke-width="1.6" stroke-linecap="round" stroke-linejoin="round"/><path d="M7.97852 36.2655C7.97852 32.1414 11.3211 28.7988 15.4452 28.7988C19.5693 28.7988 22.9118 32.1414 22.9118 36.2655" stroke="#212121" stroke-width="1.6" stroke-linecap="round" stroke-linejoin="round"/><path d="M17 10.1318H5.66667C4.19391 10.1318 3 11.3257 3 12.7985V33.5985C3 35.0713 4.19391 36.2652 5.66667 36.2652H33C34.4728 36.2652 35.6667 35.0713 35.6667 33.5985V21.3318" stroke="#212121" stroke-width="1.6" stroke-linecap="round" stroke-linejoin="round"/><path d="M21.5723 5.1549V13.866C21.5723 15.2411 22.686 16.3549 24.0612 16.3549H25.3056V20.0882L31.5278 16.3549H36.5056C37.8807 16.3549 38.9945 15.2411 38.9945 13.866V5.1549C38.9945 3.77979 37.8807 2.66602 36.5056 2.66602H24.0612C22.686 2.66602 21.5723 3.77979 21.5723 5.1549Z" stroke="#212121" stroke-width="1.6" stroke-linecap="round" stroke-linejoin="round"/><path d="M27.7993 10.4439L29.666 12.3105L33.3388 8.02554L33.3993 7.95497" stroke="#212121" stroke-width="1.6" stroke-linecap="round" stroke-linejoin="round"/></g></svg>