<svg width="41" height="40" viewBox="0 0 41 40" fill="none" xmlns="http://www.w3.org/2000/svg"><g style="mix-blend-mode:darken"><rect x="5.20625" y="3.5168" width="19.3861" height="32.9674" rx="2.45953" fill="white" stroke="#222325" stroke-width="1.6"/><rect x="9.83789" y="31.2373" width="10.121" height="1.29307" rx="0.646534" fill="#222325"/><g filter="url(#filter0_b_2578_16612)"><path fill-rule="evenodd" clip-rule="evenodd" d="M19.3445 8.14941C18.5944 8.14941 17.9863 8.75747 17.9863 9.50755V22.3448C17.9863 23.0949 18.5944 23.7029 19.3445 23.7029H20.2755V26.4544C20.2755 27.011 20.9121 27.3275 21.3559 26.9916L25.7007 23.7029H34.898C35.6481 23.7029 36.2561 23.0949 36.2561 22.3448V9.50755C36.2561 8.75747 35.6481 8.14941 34.898 8.14941H19.3445Z" fill="white"/><path d="M20.2755 23.7029H21.0755V22.9029H20.2755V23.7029ZM21.3559 26.9916L20.873 26.3537L20.873 26.3537L21.3559 26.9916ZM25.7007 23.7029V22.9029H25.4321L25.2179 23.0651L25.7007 23.7029ZM18.7863 9.50755C18.7863 9.1993 19.0362 8.94941 19.3445 8.94941V7.34941C18.1526 7.34941 17.1863 8.31564 17.1863 9.50755H18.7863ZM18.7863 22.3448V9.50755H17.1863V22.3448H18.7863ZM19.3445 22.9029C19.0362 22.9029 18.7863 22.653 18.7863 22.3448H17.1863C17.1863 23.5367 18.1526 24.5029 19.3445 24.5029V22.9029ZM20.2755 22.9029H19.3445V24.5029H20.2755V22.9029ZM21.0755 26.4544V23.7029H19.4755V26.4544H21.0755ZM20.873 26.3537C20.8872 26.343 20.9123 26.3319 20.9419 26.3297C20.9683 26.3278 20.9897 26.3335 21.0055 26.3413C21.0213 26.3492 21.0387 26.3628 21.0531 26.385C21.0693 26.4099 21.0755 26.4366 21.0755 26.4544H19.4755C19.4755 27.6718 20.868 28.3642 21.8387 27.6295L20.873 26.3537ZM25.2179 23.0651L20.873 26.3537L21.8387 27.6295L26.1836 24.3408L25.2179 23.0651ZM34.898 22.9029H25.7007V24.5029H34.898V22.9029ZM35.4561 22.3448C35.4561 22.653 35.2062 22.9029 34.898 22.9029V24.5029C36.0899 24.5029 37.0561 23.5367 37.0561 22.3448H35.4561ZM35.4561 9.50755V22.3448H37.0561V9.50755H35.4561ZM34.898 8.94941C35.2062 8.94941 35.4561 9.1993 35.4561 9.50755H37.0561C37.0561 8.31565 36.0899 7.34941 34.898 7.34941V8.94941ZM19.3445 8.94941H34.898V7.34941H19.3445V8.94941Z" fill="#222325"/></g><path d="M27.1242 20.0807C26.8092 19.8435 26.5004 19.6146 26.196 19.381C25.39 18.7608 24.5971 18.1261 23.8844 17.4125C23.5944 17.1217 23.3088 16.8164 23.0853 16.4804C22.7001 15.9011 22.66 15.2568 22.8535 14.61C23.0853 13.8339 23.5969 13.272 24.4318 13.0071C25.3299 12.7217 26.3219 13.0336 26.9219 13.7724C26.9908 13.8573 27.0515 13.9471 27.1267 14.0494C27.158 14.0049 27.1843 13.9669 27.2112 13.9284C27.5783 13.4069 28.078 13.0565 28.7432 12.9427C29.526 12.809 30.1968 13.0336 30.7529 13.5508C31.5038 14.2487 31.7205 15.4224 31.2683 16.316C31.0905 16.6682 30.8174 16.9597 30.5381 17.2439C29.7239 18.0731 28.8089 18.8017 27.8795 19.5153C27.6346 19.7031 27.3847 19.8856 27.1236 20.0807H27.1242Z" fill="#222325"/></g><defs><filter id="filter0_b_2578_16612" x="8.62459" y="-1.21135" width="36.993" height="37.703" filterUnits="userSpaceOnUse" color-interpolation-filters="sRGB"><feFlood flood-opacity="0" result="BackgroundImageFix"/><feGaussianBlur in="BackgroundImageFix" stdDeviation="4.28048"/><feComposite in2="SourceAlpha" operator="in" result="effect1_backgroundBlur_2578_16612"/><feBlend mode="normal" in="SourceGraphic" in2="effect1_backgroundBlur_2578_16612" result="shape"/></filter></defs></svg>