<?xml version="1.0" encoding="UTF-8"?><svg id="a" xmlns="http://www.w3.org/2000/svg" width="46" height="46" viewBox="0 0 46 46"><defs><style>.b{fill:none;}.b,.c{stroke:#404145;stroke-miterlimit:10;stroke-width:1.5px;}.c{fill:#a6eaca;}</style></defs><circle class="c" cx="23" cy="23.006" r="5.646"/><path class="b" d="M34.916,25.146v-4.281h-.692c-1.005,0-1.91-.605-2.294-1.535-.004-.01-.008-.02-.013-.03-.389-.932-.181-2.004.533-2.718l.49-.49-3.027-3.027-.49.49c-.714.714-1.786.921-2.718.533-.01-.004-.02-.008-.03-.013-.929-.384-1.535-1.289-1.535-2.294v-.692h-4.281v.692c0,1.005-.606,1.91-1.535,2.294-.01.004-.02.008-.03.013-.932.389-2.004.181-2.718-.533l-.49-.49-3.027,3.027.49.49c.714.714.921,1.786.533,2.718-.004.01-.008.02-.013.03-.384.929-1.289,1.535-2.294,1.535h-.692v4.281h.692c1.005,0,1.91.605,2.294,1.535.004.01.008.02.013.03.389.932.181,2.004-.533,2.718l-.49.49,3.027,3.027.49-.49c.714-.714,1.786-.921,2.718-.533.01.004.02.008.03.013.929.384,1.535,1.289,1.535,2.294v.692h4.281v-.692c0-1.005.605-1.91,1.535-2.294.01-.004.02-.008.03-.013.932-.389,2.004-.181,2.718.533l.49.49,3.027-3.027-.49-.49c-.714-.714-.921-1.786-.533-2.718.004-.01.008-.02.013-.03.384-.929,1.289-1.535,2.294-1.535h.692Z"/><path class="b" d="M28.421,4.936c2.84.85,5.4,2.36,7.51,4.34"/><path class="b" d="M28.411,41.066c2.6-.77,4.97-2.09,6.97-3.83"/><path class="b" d="M4.641,27.336c-.33-1.39-.5-2.84-.5-4.33,0-1.23.12-2.43.35-3.59"/><path class="b" d="M17.571,41.066c-2.84-.84-5.4-2.35-7.5-4.33"/><path class="b" d="M17.571,4.946c-2.59.77-4.95,2.09-6.94,3.83"/><path class="b" d="M41.361,18.676c.33,1.39.5,2.84.5,4.33,0,1.23-.12,2.43-.34,3.59"/><circle class="c" cx="6.666" cy="13.576" r="3.231"/><circle class="b" cx="6.666" cy="32.436" r="2.485"/><circle class="c" cx="39.334" cy="32.436" r="3.231"/><circle class="b" cx="39.334" cy="13.576" r="2.485"/><polyline class="b" points="21.757 6.631 24.243 4.146 21.757 1.66"/><polyline class="b" points="24.243 39.369 21.757 41.854 24.243 44.34"/></svg>