<svg width="68" height="32" viewBox="0 0 68 32" fill="none" xmlns="http://www.w3.org/2000/svg"><g clip-path="url(#clip0_5400_150356)"><mask id="mask0_5400_150356" style="mask-type:luminance" maskUnits="userSpaceOnUse" x="0" y="0" width="34" height="32"><path d="M0 0H34V32H0V0Z" fill="white"/></mask><g mask="url(#mask0_5400_150356)"><g filter="url(#filter0_d_5400_150356)"><path d="M5 11.333C5 13.526 5.926 15.556 7.399 16.848L17 26L26.55 16.845C27.3238 16.1508 27.9421 15.3009 28.3644 14.351C28.7866 13.401 29.0032 12.3725 29 11.333C29 7.283 25.776 4 21.8 4C20.0227 3.99963 18.3099 4.66583 17 5.867C15.6901 4.66583 13.9773 3.99963 12.2 4C8.224 4 5 7.283 5 11.333Z" fill="#404145" fill-opacity="0.4"/></g><g filter="url(#filter1_d_5400_150356)"><path d="M7.916 16.305L7.905 16.295L7.893 16.285C6.592 15.141 5.75 13.32 5.75 11.332C5.75 7.68302 8.65 4.74902 12.2 4.74902C13.7905 4.74878 15.3233 5.34546 16.495 6.42102L17 6.88102L17.505 6.42102C18.6769 5.34582 20.2096 4.74951 21.8 4.75002C25.35 4.75002 28.25 7.68402 28.25 11.333C28.2532 12.2671 28.0589 13.1912 27.6797 14.0448C27.3006 14.8984 26.7452 15.6622 26.05 16.286L26.04 16.295L26.03 16.304L16.998 24.962L7.916 16.305Z" stroke="white" stroke-width="1.5"/></g></g><mask id="mask1_5400_150356" style="mask-type:luminance" maskUnits="userSpaceOnUse" x="34" y="0" width="34" height="32"><path d="M34 0H68V32H34V0Z" fill="white"/></mask><g mask="url(#mask1_5400_150356)"><g filter="url(#filter2_d_5400_150356)"><path d="M39 11.333C39 13.526 39.926 15.556 41.399 16.848L51 26L60.55 16.845C61.3238 16.1508 61.9421 15.3009 62.3644 14.351C62.7866 13.401 63.0032 12.3725 63 11.333C63 7.283 59.776 4 55.8 4C54.0227 3.99963 52.3099 4.66583 51 5.867C49.6901 4.66583 47.9773 3.99963 46.2 4C42.223 4 39 7.283 39 11.333Z" fill="#F85D5D"/></g><g filter="url(#filter3_d_5400_150356)"><path d="M41.916 16.305L41.905 16.295L41.893 16.285C40.592 15.142 39.75 13.321 39.75 11.333C39.75 7.684 42.65 4.75 46.2 4.75C47.7905 4.74976 49.3233 5.34643 50.495 6.422L51 6.882L51.505 6.422C52.6767 5.34643 54.2095 4.74976 55.8 4.75C59.35 4.75 62.25 7.684 62.25 11.333C62.2532 12.267 62.0589 13.1912 61.6797 14.0448C61.3006 14.8984 60.7452 15.6622 60.05 16.286L60.04 16.295L60.03 16.304L50.998 24.962L41.916 16.305Z" stroke="white" stroke-width="1.5"/></g></g></g><defs><filter id="filter0_d_5400_150356" x="0" y="0" width="34" height="32" filterUnits="userSpaceOnUse" color-interpolation-filters="sRGB"><feFlood flood-opacity="0" result="BackgroundImageFix"/><feColorMatrix in="SourceAlpha" type="matrix" values="0 0 0 0 0 0 0 0 0 0 0 0 0 0 0 0 0 0 127 0" result="hardAlpha"/><feOffset dy="1"/><feGaussianBlur stdDeviation="2.5"/><feColorMatrix type="matrix" values="0 0 0 0 0 0 0 0 0 0 0 0 0 0 0 0 0 0 0.11 0"/><feBlend mode="normal" in2="BackgroundImageFix" result="effect1_dropShadow_5400_150356"/><feBlend mode="normal" in="SourceGraphic" in2="effect1_dropShadow_5400_150356" result="shape"/></filter><filter id="filter1_d_5400_150356" x="0" y="-0.000976562" width="34" height="32.001" filterUnits="userSpaceOnUse" color-interpolation-filters="sRGB"><feFlood flood-opacity="0" result="BackgroundImageFix"/><feColorMatrix in="SourceAlpha" type="matrix" values="0 0 0 0 0 0 0 0 0 0 0 0 0 0 0 0 0 0 127 0" result="hardAlpha"/><feOffset dy="1"/><feGaussianBlur stdDeviation="2.5"/><feColorMatrix type="matrix" values="0 0 0 0 0 0 0 0 0 0 0 0 0 0 0 0 0 0 0.11 0"/><feBlend mode="normal" in2="BackgroundImageFix" result="effect1_dropShadow_5400_150356"/><feBlend mode="normal" in="SourceGraphic" in2="effect1_dropShadow_5400_150356" result="shape"/></filter><filter id="filter2_d_5400_150356" x="34" y="0" width="34" height="32" filterUnits="userSpaceOnUse" color-interpolation-filters="sRGB"><feFlood flood-opacity="0" result="BackgroundImageFix"/><feColorMatrix in="SourceAlpha" type="matrix" values="0 0 0 0 0 0 0 0 0 0 0 0 0 0 0 0 0 0 127 0" result="hardAlpha"/><feOffset dy="1"/><feGaussianBlur stdDeviation="2.5"/><feColorMatrix type="matrix" values="0 0 0 0 0 0 0 0 0 0 0 0 0 0 0 0 0 0 0.11 0"/><feBlend mode="normal" in2="BackgroundImageFix" result="effect1_dropShadow_5400_150356"/><feBlend mode="normal" in="SourceGraphic" in2="effect1_dropShadow_5400_150356" result="shape"/></filter><filter id="filter3_d_5400_150356" x="34" y="0" width="34" height="32" filterUnits="userSpaceOnUse" color-interpolation-filters="sRGB"><feFlood flood-opacity="0" result="BackgroundImageFix"/><feColorMatrix in="SourceAlpha" type="matrix" values="0 0 0 0 0 0 0 0 0 0 0 0 0 0 0 0 0 0 127 0" result="hardAlpha"/><feOffset dy="1"/><feGaussianBlur stdDeviation="2.5"/><feColorMatrix type="matrix" values="0 0 0 0 0 0 0 0 0 0 0 0 0 0 0 0 0 0 0.11 0"/><feBlend mode="normal" in2="BackgroundImageFix" result="effect1_dropShadow_5400_150356"/><feBlend mode="normal" in="SourceGraphic" in2="effect1_dropShadow_5400_150356" result="shape"/></filter><clipPath id="clip0_5400_150356"><rect width="68" height="32" fill="white"/></clipPath></defs></svg>