<svg xmlns="http://www.w3.org/2000/svg" xmlns:xlink="http://www.w3.org/1999/xlink" viewBox="0 0 548 548" width="548" height="548" style="width: 100%; height: 100%; transform: translate3d(0px, 0px, 0px); content-visibility: visible;" preserveAspectRatio="xMidYMid meet"><defs><clipPath id="__lottie_element_5"><rect width="548" height="548" x="0" y="0"></rect></clipPath><g id="__lottie_element_13"><g style="display: block;" transform="matrix(1,0,0,1,274,274)" opacity="1"><g opacity="1" transform="matrix(1,0,0,1,0,0)"><path stroke-linecap="butt" stroke-linejoin="miter" fill-opacity="0" stroke-miterlimit="4" stroke="rgb(255,255,255)" stroke-opacity="1" stroke-width="110" d=" M0,-218.5 C120.59014892578125,-218.5 218.5,-120.59014892578125 218.5,0 C218.5,120.59014892578125 120.59014892578125,218.5 0,218.5 C-120.59014892578125,218.5 -218.5,120.59014892578125 -218.5,0 C-218.5,-120.59014892578125 -120.59014892578125,-218.5 0,-218.5z"></path></g></g></g><linearGradient id="__lottie_element_19" spreadMethod="pad" gradientUnits="userSpaceOnUse" x1="252.57400512695312" y1="-37.527000427246094" x2="-69.71900177001953" y2="-193.07400512695312"><stop offset="0%" stop-color="rgb(10,102,50)"></stop><stop offset="50%" stop-color="rgb(6,83,36)"></stop><stop offset="100%" stop-color="rgb(2,63,22)"></stop></linearGradient><g id="__lottie_element_20"><g style="display: block;" transform="matrix(1,0,0,1,274,274)" opacity="1"><g opacity="1" transform="matrix(1,0,0,1,0,0)"><path stroke-linecap="butt" stroke-linejoin="miter" fill-opacity="0" stroke-miterlimit="4" stroke="rgb(255,255,255)" stroke-opacity="1" stroke-width="110" d=" M0,-218.5 C120.59014892578125,-218.5 218.5,-120.59014892578125 218.5,0 C218.5,120.59014892578125 120.59014892578125,218.5 0,218.5 C-120.59014892578125,218.5 -218.5,120.59014892578125 -218.5,0 C-218.5,-120.59014892578125 -120.59014892578125,-218.5 0,-218.5z"></path></g></g></g><mask id="__lottie_element_20_1" mask-type="alpha"><use xlink:href="#__lottie_element_20"></use></mask><mask id="__lottie_element_13_1" mask-type="alpha"><use xlink:href="#__lottie_element_13"></use></mask></defs><g clip-path="url(#__lottie_element_5)"><g style="display: block;" transform="matrix(1,0,0,1,274,274)" opacity="1"><g opacity="1" transform="matrix(1,0,0,1,0,0)"><path stroke-linecap="butt" stroke-linejoin="miter" fill-opacity="0" stroke-miterlimit="4" stroke="rgb(255,255,255)" stroke-opacity="1" stroke-width="110" d=" M0,-218.5 C120.59014892578125,-218.5 218.5,-120.59014892578125 218.5,0 C218.5,120.59014892578125 120.59014892578125,218.5 0,218.5 C-120.59014892578125,218.5 -218.5,120.59014892578125 -218.5,0 C-218.5,-120.59014892578125 -120.59014892578125,-218.5 0,-218.5z"></path></g></g><g style="display: block;" mask="url(#__lottie_element_13_1)"><g transform="matrix(1,0,0,1,272,274)" opacity="1"><g opacity="1" transform="matrix(1,0,0,1,0,0)"><path fill="rgb(208,247,230)" fill-opacity="1" d=" M2,-327 C2,-327 2,0 2,0 C2,0 162,-274 162,-274 C162,-274 2,-327 2,-327z"></path></g></g></g><g style="display: block;" mask="url(#__lottie_element_20_1)"><g transform="matrix(-1,0,0,1,276,274)" opacity="1"><g opacity="1" transform="matrix(1,0,0,1,0,0)"><path fill="url(#__lottie_element_19)" fill-opacity="1" d=" M2,-395 C2,-395 2,0 2,0 C2,0 442,-117 442,-117 C442,-117 2,-395 2,-395z"></path></g></g></g><g style="display: block;" transform="matrix(1.0639930963516235,0,0,1.0639930963516235,273.79998779296875,273.90899658203125)" opacity="1"><g opacity="1" transform="matrix(1,0,0,1,0,0)"><path fill="rgb(0,57,18)" fill-opacity="1" d=" M0,-63.79999923706055 C35.236000061035156,-63.79999923706055 63.79999923706055,-35.236000061035156 63.79999923706055,0 C63.79999923706055,35.236000061035156 35.236000061035156,63.79999923706055 0,63.79999923706055 C-35.236000061035156,63.79999923706055 -63.79999923706055,35.236000061035156 -63.79999923706055,0 C-63.79999923706055,-35.236000061035156 -35.236000061035156,-63.79999923706055 0,-63.79999923706055z"></path></g></g><g style="display: block;" transform="matrix(1.0639930963516235,0,0,1.0639930963516235,273.80743408203125,273.9100646972656)" opacity="1"><g opacity="1" transform="matrix(1,0,0,1,0,0)"><path fill="rgb(255,255,255)" fill-opacity="1" d=" M-9.069000244140625,-22.7810001373291 C-10.925000190734863,-22.881999969482422 -12.348999977111816,-21.44099998474121 -12.25,-19.56399917602539 C-12.151000022888184,-17.687000274658203 -10.5649995803833,-16.08300018310547 -8.708999633789062,-15.982999801635742 C-8.708999633789062,-15.982999801635742 9.5649995803833,-14.993000030517578 9.5649995803833,-14.993000030517578 C9.5649995803833,-14.993000030517578 -21.923999786376953,16.850000381469727 -21.923999786376953,16.850000381469727 C-23.166000366210938,18.106000900268555 -23.052000045776367,20.259000778198242 -21.66900062561035,21.656999588012695 C-20.285999298095703,23.05500030517578 -18.158000946044922,23.170000076293945 -16.916000366210938,21.913999557495117 C-16.916000366210938,21.913999557495117 15.029000282287598,-10.390000343322754 15.029000282287598,-10.390000343322754 C15.029000282287598,-10.390000343322754 16.05900001525879,9.062999725341797 16.05900001525879,9.062999725341797 C16.158000946044922,10.9399995803833 17.743999481201172,12.543000221252441 19.600000381469727,12.644000053405762 C21.45599937438965,12.744000434875488 22.8799991607666,11.303999900817871 22.7810001373291,9.427000045776367 C22.7810001373291,9.427000045776367 21.341999053955078,-17.7450008392334 21.341999053955078,-17.7450008392334 C21.243000030517578,-19.621999740600586 19.656999588012695,-21.224000930786133 17.801000595092773,-21.325000762939453 C17.801000595092773,-21.325000762939453 -9.069000244140625,-22.7810001373291 -9.069000244140625,-22.7810001373291z"></path></g></g></g></svg>